<svg xmlns="http://www.w3.org/2000/svg" width="457.737" height="480.512" viewBox="0 0 457.737 480.512">
  <g id="faq" transform="translate(-20.287 -12.822)">
    <g id="Group_3" data-name="Group 3">
      <g id="Group_1" data-name="Group 1">
        <path id="Path_1" data-name="Path 1" d="M129.377,105.759A186.508,186.508,0,0,1,390.26,125.082" fill="none" stroke="#bde1fb" stroke-linecap="round" stroke-linejoin="round" stroke-width="4"/>
        <path id="Path_2" data-name="Path 2" d="M139.577,398.307A186.525,186.525,0,0,1,105.7,129.843" fill="none" stroke="#bde1fb" stroke-linecap="round" stroke-linejoin="round" stroke-width="4"/>
        <path id="Path_3" data-name="Path 3" d="M405.288,351.314a187.328,187.328,0,0,1-73.246,64.214" fill="none" stroke="#bde1fb" stroke-linecap="round" stroke-linejoin="round" stroke-width="4"/>
      </g>
      <g id="Group_2" data-name="Group 2">
        <path id="Path_4" data-name="Path 4" d="M305.337,396.7a158.9,158.9,0,0,1-60.127,9.693" fill="none" stroke="#bde1fb" stroke-linecap="round" stroke-linejoin="round" stroke-width="4"/>
        <path id="Path_5" data-name="Path 5" d="M350.455,125.07a160.33,160.33,0,0,1,12.027,10.871,157.814,157.814,0,0,1,45.57,95.658" fill="none" stroke="#bde1fb" stroke-linecap="round" stroke-linejoin="round" stroke-width="4"/>
        <path id="Path_6" data-name="Path 6" d="M169.416,111.749A158.264,158.264,0,0,1,250.51,89.525" fill="none" stroke="#bde1fb" stroke-linecap="round" stroke-linejoin="round" stroke-width="4"/>
        <path id="Path_7" data-name="Path 7" d="M93.157,267.6a158.447,158.447,0,0,1,25.736-108.048" fill="none" stroke="#bde1fb" stroke-linecap="round" stroke-linejoin="round" stroke-width="4"/>
      </g>
      <circle id="Ellipse_1" data-name="Ellipse 1" cx="173.265" cy="173.265" r="173.265" transform="translate(76.735 74.735)" fill="none" stroke="#bde1fb" stroke-linecap="round" stroke-linejoin="round" stroke-width="4" stroke-dasharray="8 10"/>
      <circle id="Ellipse_2" data-name="Ellipse 2" cx="11.292" cy="11.292" r="11.292" transform="translate(23.155 118.551)" fill="none" stroke="#bde1fb" stroke-linecap="round" stroke-linejoin="round" stroke-width="4"/>
      <circle id="Ellipse_3" data-name="Ellipse 3" cx="11.292" cy="11.292" r="11.292" transform="matrix(0.917, -0.399, 0.399, 0.917, 250.291, 372.952)" fill="none" stroke="#bde1fb" stroke-linecap="round" stroke-linejoin="round" stroke-width="4"/>
      <circle id="Ellipse_4" data-name="Ellipse 4" cx="11.292" cy="11.292" r="11.292" transform="translate(160.629 468.749)" fill="none" stroke="#bde1fb" stroke-linecap="round" stroke-linejoin="round" stroke-width="4"/>
      <circle id="Ellipse_5" data-name="Ellipse 5" cx="11.292" cy="11.292" r="11.292" transform="matrix(0.143, -0.99, 0.99, 0.143, 449.97, 37.44)" fill="none" stroke="#bde1fb" stroke-linecap="round" stroke-linejoin="round" stroke-width="4"/>
      <path id="Path_8" data-name="Path 8" d="M324.031,34.7a6.82,6.82,0,1,1-6.82-6.82A6.819,6.819,0,0,1,324.031,34.7Z" fill="none" stroke="#bde1fb" stroke-linecap="round" stroke-linejoin="round" stroke-width="4"/>
      <path id="Path_9" data-name="Path 9" d="M368.368,267.6a6.82,6.82,0,1,1-6.82-6.82A6.82,6.82,0,0,1,368.368,267.6Z" fill="none" stroke="#bde1fb" stroke-linecap="round" stroke-linejoin="round" stroke-width="4"/>
      <circle id="Ellipse_6" data-name="Ellipse 6" cx="6.82" cy="6.82" r="6.82" transform="translate(112.073 434.798)" fill="none" stroke="#bde1fb" stroke-linecap="round" stroke-linejoin="round" stroke-width="4"/>
      <path id="Path_10" data-name="Path 10" d="M444.7,152.916a6.82,6.82,0,1,1-6.82-6.82A6.82,6.82,0,0,1,444.7,152.916Z" fill="none" stroke="#bde1fb" stroke-linecap="round" stroke-linejoin="round" stroke-width="4"/>
      <path id="Path_11" data-name="Path 11" d="M189.775,198.643a6.82,6.82,0,1,1-6.82-6.82A6.82,6.82,0,0,1,189.775,198.643Z" fill="none" stroke="#bde1fb" stroke-linecap="round" stroke-linejoin="round" stroke-width="4"/>
      <circle id="Ellipse_7" data-name="Ellipse 7" cx="6.82" cy="6.82" r="6.82" transform="translate(455.94 341.647)" fill="none" stroke="#bde1fb" stroke-linecap="round" stroke-linejoin="round" stroke-width="4"/>
      <path id="Path_12" data-name="Path 12" d="M37.73,351.314a6.82,6.82,0,1,1-6.82-6.82A6.82,6.82,0,0,1,37.73,351.314Z" fill="none" stroke="#bde1fb" stroke-linecap="round" stroke-linejoin="round" stroke-width="4"/>
      <path id="Path_13" data-name="Path 13" d="M296.976,160.85l7.913-7.934,7.034,7.934,8.792-7.934,8.37,8.393,8.025-8.393,7.769,7.934" fill="none" stroke="#bde1fb" stroke-linecap="round" stroke-linejoin="round" stroke-width="4"/>
      <path id="Path_14" data-name="Path 14" d="M124.019,337.55l7.913-7.934,7.034,7.934,8.792-7.934,8.37,8.393,8.025-8.393,7.769,7.934" fill="none" stroke="#bde1fb" stroke-linecap="round" stroke-linejoin="round" stroke-width="4"/>
      <path id="Path_15" data-name="Path 15" d="M427.293,465.722l7.913-7.934,7.034,7.934,8.792-7.934,8.37,8.393,8.025-8.393,7.769,7.934" fill="none" stroke="#bde1fb" stroke-linecap="round" stroke-linejoin="round" stroke-width="4"/>
      <path id="Path_16" data-name="Path 16" d="M135.053,31.616l7.913-7.934L150,31.616l8.792-7.934,8.37,8.393,8.025-8.393,7.769,7.934" fill="none" stroke="#bde1fb" stroke-linecap="round" stroke-linejoin="round" stroke-width="4"/>
    </g>
    <g id="Group_7" data-name="Group 7">
      <g id="Group_4" data-name="Group 4">
        <path id="Path_17" data-name="Path 17" d="M153,243.12v-6.935c0-5.009-2.99-8-8-8H80.283V192.641h66.409c4.934,0,8-3.065,8-8v-6.936c0-5.008-2.99-8-8-8H63.475c-5.008,0-8,2.99-8,8v125.2c0,5.008,2.99,8,8,8h9c4.891,0,7.811-2.99,7.811-8v-51.79h64.723C150.014,251.119,153,248.128,153,243.12Z" fill="#039"/>
      </g>
      <g id="Group_5" data-name="Group 5">
        <path id="Path_18" data-name="Path 18" d="M233.264,171.911c-1.008-2.016-2.694-5.388-6.722-5.388h-.562c-3.784,0-5.459,2.889-6.263,4.278-.126.217-.261.45-.414.7l-.153.245L157.925,300.766l-.052.113a7.21,7.21,0,0,0,.356,6.968,6.86,6.86,0,0,0,5.9,3.06H175c5.527,0,7.473-3.891,8.408-5.762l13.354-29.1h59l13.282,28.948.071.149c.935,1.871,2.879,5.764,8.222,5.764H288.2a7.063,7.063,0,0,0,6.091-3.1,7.161,7.161,0,0,0,.352-6.925Zm12.9,81.391H206.355l19.906-44.146Z" fill="#fb0"/>
      </g>
      <g id="Group_6" data-name="Group 6">
        <path id="Path_19" data-name="Path 19" d="M416.946,296.7c18.306-15.4,27.577-34.352,27.577-56.394,0-40.272-32.343-73.035-72.1-73.035s-72.1,32.763-72.1,73.035,32.344,73.037,72.1,73.037a57.817,57.817,0,0,0,23.839-4.77l14.171,21.1a8.082,8.082,0,0,0,4.664,3.593,6.76,6.76,0,0,0,1.7.214,8.057,8.057,0,0,0,4.511-1.48l7.391-5.3a7.793,7.793,0,0,0,3.567-5,7.981,7.981,0,0,0-1.628-6.167Zm2.583-56.394c0,29.858-24.356,49.916-47.1,49.916-25.093,0-47.1-23.326-47.1-49.916a51.948,51.948,0,0,1,13.769-34.686c9.03-9.821,20.869-15.23,33.305-15.23C397.943,190.554,419.529,213.413,419.529,240.308Z" fill="#039"/>
      </g>
    </g>
    <g id="Group_8" data-name="Group 8">
      <path id="Path_20" data-name="Path 20" d="M412.889,97.124c-.18-.9-.229-1.823-.439-2.712a1.682,1.682,0,0,0-.7-.858,2.79,2.79,0,0,0-4.1.532,15.8,15.8,0,0,1-2.242,1.768,1.19,1.19,0,0,1-1.719,0c-1.733-1.705-3.46-3.416-5.156-5.157-.509-.523-.307-1.085.113-1.616.944-1.188,1.895-2.375,2.768-3.615a1.7,1.7,0,0,0,.133-1.187,2.935,2.935,0,0,0-3.29-2.6,8.6,8.6,0,0,1-2.4-.343,12.27,12.27,0,0,1-1.847-.825v-7.64a5.5,5.5,0,0,1,1.466-.828c1.481-.3,2.995-.451,4.486-.714a1.238,1.238,0,0,0,.79-.545,12.488,12.488,0,0,0,.924-2.237,1.345,1.345,0,0,0-.258-1c-.825-1.143-1.692-2.257-2.568-3.362a1.406,1.406,0,0,1,.068-2.077q2.328-2.382,4.683-4.739a1.2,1.2,0,0,1,1.788-.038c1.136.893,2.327,1.72,3.452,2.627a1.648,1.648,0,0,0,1.686.218,2.771,2.771,0,0,0,2.31-2.969,17.208,17.208,0,0,1,.46-3.026,7.664,7.664,0,0,1,.66-1.471h7.852c.358,1.11.769,2.207,1.057,3.335a13.784,13.784,0,0,1,.38,2.613c.034.614.4.758.834,1.035a2.839,2.839,0,0,0,4.038-.6,20.085,20.085,0,0,1,2.248-1.761,1.167,1.167,0,0,1,1.709-.015q2.566,2.515,5.091,5.073c.539.549.4,1.126-.065,1.7-.933,1.152-1.812,2.347-2.75,3.495a1.227,1.227,0,0,0-.166,1.316,3.055,3.055,0,0,0,3.325,2.588,8.52,8.52,0,0,1,2.4.341,12.133,12.133,0,0,1,1.843.826V80.3a5.429,5.429,0,0,1-1.468.828c-1.484.3-3,.464-4.5.681a1.686,1.686,0,0,0-.314.042c-.746.262-1.583,3.216-1.1,3.849.818,1.063,1.617,2.141,2.461,3.183a1.493,1.493,0,0,1-.038,2.252q-2.354,2.363-4.719,4.711a1.156,1.156,0,0,1-1.7.01c-1.146-.883-2.324-1.727-3.45-2.635a1.637,1.637,0,0,0-1.686-.232,2.778,2.778,0,0,0-2.318,2.968,16.608,16.608,0,0,1-.459,3.03,7.806,7.806,0,0,1-.66,1.473h-7.852C413,99.54,413.119,98.271,412.889,97.124Zm5.082-12.588a7.954,7.954,0,1,0-8.044-7.915A7.87,7.87,0,0,0,417.971,84.536Z" fill="#c143a3"/>
      <path id="Path_21" data-name="Path 21" d="M381.7,67.5c-.107-.534-.136-1.084-.261-1.612a1,1,0,0,0-.415-.511,1.659,1.659,0,0,0-2.439.317,9.336,9.336,0,0,1-1.333,1.051.708.708,0,0,1-1.022,0c-1.029-1.014-2.056-2.032-3.065-3.067-.3-.31-.182-.645.068-.96.561-.707,1.126-1.412,1.645-2.149a1.01,1.01,0,0,0,.079-.706A1.743,1.743,0,0,0,373,58.316a5.147,5.147,0,0,1-1.429-.2,7.288,7.288,0,0,1-1.1-.491V53.079a3.28,3.28,0,0,1,.871-.492c.881-.18,1.781-.268,2.667-.425a.732.732,0,0,0,.47-.324,7.377,7.377,0,0,0,.549-1.33.8.8,0,0,0-.153-.592c-.491-.68-1.006-1.343-1.527-2a.836.836,0,0,1,.04-1.235q1.385-1.416,2.785-2.818a.711.711,0,0,1,1.062-.022c.676.531,1.384,1.022,2.053,1.562a.979.979,0,0,0,1,.129,1.647,1.647,0,0,0,1.373-1.765,10.2,10.2,0,0,1,.274-1.8,4.62,4.62,0,0,1,.392-.874H387c.213.66.458,1.312.628,1.982a8.218,8.218,0,0,1,.227,1.554c.02.365.235.451.495.615a1.688,1.688,0,0,0,2.4-.356,11.975,11.975,0,0,1,1.336-1.047.694.694,0,0,1,1.016-.009q1.525,1.5,3.027,3.016c.321.327.237.669-.039,1.011-.554.685-1.077,1.4-1.634,2.078a.727.727,0,0,0-.1.782,1.816,1.816,0,0,0,1.976,1.538,5.109,5.109,0,0,1,1.429.2,7.213,7.213,0,0,1,1.1.491v4.542a3.23,3.23,0,0,1-.872.492c-.882.178-1.781.276-2.674.4a.947.947,0,0,0-.186.025,2.605,2.605,0,0,0-.651,2.288c.486.632.961,1.273,1.463,1.892a.888.888,0,0,1-.023,1.339q-1.4,1.4-2.805,2.8a.688.688,0,0,1-1.013.006c-.682-.525-1.382-1.027-2.051-1.567a.976.976,0,0,0-1-.138,1.651,1.651,0,0,0-1.378,1.765,9.851,9.851,0,0,1-.274,1.8,4.538,4.538,0,0,1-.392.875h-4.668C381.762,68.935,381.836,68.181,381.7,67.5Zm3.021-7.484a4.728,4.728,0,1,0-4.782-4.7A4.677,4.677,0,0,0,384.72,60.015Z" fill="#883cc0"/>
    </g>
    <g id="Group_9" data-name="Group 9">
      <path id="Path_22" data-name="Path 22" d="M285.61,89.606a1.229,1.229,0,0,0-1.411-.325q-12.728,3.7-25.459,7.394-17.008,4.941-34.015,9.885c-.56.162-1.086.354-1.191,1.039-.1.652.327.978.777,1.3,2.914,2.093,5.836,4.177,8.728,6.3a2.808,2.808,0,0,1,.912,1.168q4.41,11.2,8.765,22.416c.542,1.386,1.248,1.56,2.366.588q4.421-3.846,8.836-7.7c.292-.255.589-.5.907-.777,1.713,1.349,3.39,2.668,5.066,3.989,1.249.985,1.755.882,2.5-.515q6.6-12.309,13.191-24.617,4.977-9.29,9.95-18.58C285.813,90.661,286.052,90.138,285.61,89.606Z" fill="#6bb9dd"/>
      <path id="Path_23" data-name="Path 23" d="M242.969,139.313c.508.882,1.162.891,2.117.061q4.419-3.846,8.835-7.695c.293-.255.59-.506.907-.777h0l-7.75-7.612Z" fill="#c143a3"/>
      <path id="Path_24" data-name="Path 24" d="M247.192,123.583l38.649-33.512a1.092,1.092,0,0,0-.117-.172,1.121,1.121,0,0,0-.387-.3L234.1,116.735q4.394,11.162,8.736,22.342a3.994,3.994,0,0,0,.209.459l.043.069Z" fill="#883cc0"/>
    </g>
    <g id="Group_10" data-name="Group 10">
      <path id="Path_25" data-name="Path 25" d="M405.877,389.274l-15.61-15.61-2.065,2.071,15.613,15.612Z" fill="#6bb9dd"/>
      <path id="Path_26" data-name="Path 26" d="M390.226,381.207l-35.674,35.675,1.488,6.73,6.39,1.4,35.8-35.8Z" fill="#883cc0"/>
      <path id="Path_27" data-name="Path 27" d="M402.1,393.076l-3.865-3.865-35.8,35.8.322.07,1.157,6.4Z" fill="#6bb9dd"/>
      <path id="Path_28" data-name="Path 28" d="M411.99,383.126a3.158,3.158,0,0,0,.01-4.442l-11.051-11.22a3.159,3.159,0,0,0-4.486-.014l-6.2,6.214,15.61,15.61Z" fill="#c143a3"/>
      <path id="Path_29" data-name="Path 29" d="M343.394,429.89l-2.278,6.554a1.552,1.552,0,0,0,1.957,1.982l6.643-2.215Z" fill="#883cc0"/>
      <path id="Path_30" data-name="Path 30" d="M363.909,431.48l-1.157-6.4-.322-.07-.051.051.051-.051-6.39-1.4-1.488-6.73-6.239-1.142-4.918,14.151,6.322,6.322Z" fill="#c143a3"/>
      <path id="Path_31" data-name="Path 31" d="M390.226,381.207l-3.745-3.745-38.169,38.278,6.239,1.142Z" fill="#6bb9dd"/>
      <path id="Path_32" data-name="Path 32" d="M402.1,393.076l1.719-1.728L388.2,375.735l-1.721,1.726,3.745,3.745Z" fill="#c143a3"/>
    </g>
    <g id="Group_11" data-name="Group 11">
      <path id="Path_33" data-name="Path 33" d="M139.423,394.616V391.79a4.427,4.427,0,0,0,.1-.5,20.368,20.368,0,0,1,3.056-8.989,27.207,27.207,0,0,1,12.9-10.741,35.562,35.562,0,0,1,22.641-1.828,29.828,29.828,0,0,1,16.323,9.654,20.9,20.9,0,0,1,5.245,13,20.562,20.562,0,0,1-5.261,14.641c-5.77,6.675-13.32,9.765-21.944,10.552a36.223,36.223,0,0,1-9.378-.454,1.93,1.93,0,0,0-1.033.2c-1.107.5-2.166,1.108-3.293,1.551a42.046,42.046,0,0,1-14.161,2.571c-.555.019-1.112,0-1.774,0a37.034,37.034,0,0,0,6.111-10.369c-.629-.536-1.257-1.038-1.849-1.579a22.749,22.749,0,0,1-7.174-11.83C139.71,396.666,139.593,395.635,139.423,394.616Z" fill="#c143a3"/>
      <path id="Path_34" data-name="Path 34" d="M230.838,409.513v-2.826a4.219,4.219,0,0,1-.1-.5,20.364,20.364,0,0,0-3.056-8.989,27.212,27.212,0,0,0-12.9-10.741,35.556,35.556,0,0,0-22.641-1.828,29.825,29.825,0,0,0-16.323,9.654,20.9,20.9,0,0,0-5.245,13,20.561,20.561,0,0,0,5.26,14.641c5.771,6.675,13.321,9.765,21.944,10.552a36.229,36.229,0,0,0,9.379-.454,1.929,1.929,0,0,1,1.033.2c1.107.5,2.166,1.109,3.292,1.552a42.075,42.075,0,0,0,14.161,2.571c.556.019,1.112,0,1.775,0a37.023,37.023,0,0,1-6.111-10.369c.629-.536,1.256-1.039,1.849-1.58a22.746,22.746,0,0,0,7.174-11.829C230.551,411.563,230.668,410.532,230.838,409.513Z" fill="#6bb9dd"/>
    </g>
    <g id="Group_12" data-name="Group 12">
      <path id="Path_35" data-name="Path 35" d="M63.761,64.458c.118-1.2.162-2.28.339-3.339a9.457,9.457,0,0,1,11.933-7.781c.552.13,1.1.269,1.733.423.358-.718.7-1.424,1.058-2.123a12.151,12.151,0,0,1,16.657-5.356,12.017,12.017,0,0,1,6.492,10.173c.056.617.141,1.232.212,1.845,1.146.15,2.257.216,3.331.45a9.466,9.466,0,0,1-1.558,18.678c-.4.022-.8.041-1.194.041q-21.135,0-42.27.013a7.029,7.029,0,0,1-6.049-2.7,6.819,6.819,0,0,1-.4-7.616A6.73,6.73,0,0,1,61.059,64C61.921,64.158,62.786,64.295,63.761,64.458Z" fill="#c143a3"/>
      <path id="Path_36" data-name="Path 36" d="M136.7,75.141c-.156-1.59-.214-3.026-.45-4.432-1.286-7.685-8.155-12.147-15.841-10.33-.732.173-1.462.357-2.3.562-.475-.953-.932-1.89-1.4-2.818a16.13,16.13,0,0,0-22.112-7.11c-5.358,2.846-8.076,7.513-8.618,13.5-.075.82-.187,1.636-.281,2.45-1.522.2-3,.286-4.422.6a12.566,12.566,0,0,0,2.068,24.795c.528.029,1.057.055,1.585.055q28.057,0,56.113.017c3.256,0,6.011-.929,8.03-3.588a9.054,9.054,0,0,0,.531-10.11,8.933,8.933,0,0,0-9.311-4.193C139.143,74.743,137.995,74.925,136.7,75.141Z" fill="#6bb9dd"/>
    </g>
    <g id="Group_13" data-name="Group 13">
      <ellipse id="Ellipse_8" data-name="Ellipse 8" cx="6.208" cy="8.691" rx="6.208" ry="8.691" transform="translate(449.075 164.822)" fill="#e79a79"/>
      <path id="Path_37" data-name="Path 37" d="M450.406,173.859a1.621,1.621,0,1,1-1.564-2.045A1.853,1.853,0,0,1,450.406,173.859Z" fill="#e79a79"/>
      <path id="Path_38" data-name="Path 38" d="M463.055,174.215a1.621,1.621,0,1,1-1.564-2.045A1.854,1.854,0,0,1,463.055,174.215Z" fill="#e79a79"/>
      <path id="Path_39" data-name="Path 39" d="M452.331,167.964s2.005.962,6.577.4c0,0-.241,2.877,1.444,3.8,0,0-.048,1.959,1.139,2.045s1.812-7.147.866-8.577a2.756,2.756,0,0,0-2.43-1.283s.409-1.822-3.987-2.3-7.461,3.265-7.623,5.35-.574,5.765.758,6.111,2.107-1.414,1.331-2.5A2.678,2.678,0,0,0,452.331,167.964Z" fill="#883cc0"/>
      <rect id="Rectangle_1" data-name="Rectangle 1" width="8.635" height="8.085" transform="translate(450.689 179.346)" fill="#e79a79"/>
      <path id="Path_40" data-name="Path 40" d="M439.058,231.2l-.9,77.269h2.9l12.246-65.92h1.978l7.2,65.92h2.74l3.185-77.269Z" fill="#6bb9dd"/>
      <path id="Path_41" data-name="Path 41" d="M440.666,237.2l3.8-4.539s5.086,3.547,2.711,6.331S440.666,237.2,440.666,237.2Z" fill="#e79a79"/>
      <path id="Path_42" data-name="Path 42" d="M469.347,237.2,465.22,232.9s-4.8,3.547-2.426,6.332S469.347,237.2,469.347,237.2Z" fill="#e79a79"/>
      <path id="Path_43" data-name="Path 43" d="M462.48,308.467v2.954h8.144l-5.4-2.954Z" fill="#883cc0"/>
      <path id="Path_44" data-name="Path 44" d="M440.982,308.467v2.954h-8.144l5.4-2.954Z" fill="#883cc0"/>
      <path id="Path_45" data-name="Path 45" d="M440.666,237.2c-4.14-5.08-6.4-17.685-6.4-19.943s1.5-23.141,3.2-26.528,13.222-7.342,13.222-7.342a4.516,4.516,0,0,0,4.317,3.059,4.256,4.256,0,0,0,4.318-3.059s11.528,3.956,13.221,7.342,3.2,24.27,3.2,26.528-2.258,14.863-6.4,19.943L465.22,232.9l-20.758-.233Z" fill="#c143a3"/>
      <path id="Path_46" data-name="Path 46" d="M467.483,198.621c1.7,6.539,1.111,28.422-2.263,34.275" fill="none" stroke="#dbeffa" stroke-miterlimit="10" stroke-width="1"/>
      <path id="Path_47" data-name="Path 47" d="M442.506,198.621c-1.7,6.539-1.11,28.422,2.263,34.275" fill="none" stroke="#dbeffa" stroke-miterlimit="10" stroke-width="1"/>
      <path id="Path_48" data-name="Path 48" d="M460.974,208.194s-3.034,6.835-13.169,9.86" fill="none" stroke="#dbeffa" stroke-miterlimit="10" stroke-width="1"/>
      <path id="Path_49" data-name="Path 49" d="M461.534,215.759s-5.454,9.006-15.685,9.129" fill="none" stroke="#dbeffa" stroke-miterlimit="10" stroke-width="1"/>
    </g>
    <g id="Group_14" data-name="Group 14">
      <ellipse id="Ellipse_9" data-name="Ellipse 9" cx="6.617" cy="9.143" rx="6.617" ry="9.143" transform="translate(170.245 167.847) rotate(-26.443)" fill="#e79a79"/>
      <path id="Path_50" data-name="Path 50" d="M174.9,172.532a1.475,1.475,0,0,1,2.332-1.592c.781.669.791,1.591,1.62,3.549a.561.561,0,0,0,1.071-.116,27.711,27.711,0,0,0,.314-4.55s-.328-2.79,3.282-4.431,1.149-5.251-2.544-3.939-10.421-3.774-11.4,4.76,4.481,14.1,7.8,12.576C178.253,178.384,175.644,174.938,174.9,172.532Z" fill="#c143a3"/>
      <rect id="Rectangle_2" data-name="Rectangle 2" width="7.852" height="10.361" transform="translate(176.211 179.04)" fill="#e79a79"/>
      <path id="Path_51" data-name="Path 51" d="M184.064,181.331l5.436,1.828,9.262-5.033,10.872-15.705,3.423,2.617L204.4,184.221l-10.872,10.415-.857,33.624H167.151l-2.014-11.476s-9.06,3.423-10.268-1.007,4.026-24.161,7.651-26.376,13.691-8.457,13.691-8.457,0,5.149,3.926,4.588A4.338,4.338,0,0,0,184.064,181.331Z" fill="#883cc0"/>
      <path id="Path_52" data-name="Path 52" d="M209.634,162.421s2.215-6.846,5.034-4.833-1.611,7.45-1.611,7.45Z" fill="#e79a79"/>
      <path id="Path_53" data-name="Path 53" d="M167.1,189.453c.571.635,3.982,4.652-3.928,20.354" fill="none" stroke="#dbeffa" stroke-miterlimit="10" stroke-width="1"/>
      <path id="Path_54" data-name="Path 54" d="M168.321,208.9s5.273-3.65,6.481,0-5.354,5.261-5.354,5.261Z" fill="#e79a79"/>
      <path id="Path_55" data-name="Path 55" d="M192.67,228.26l-1.559,29.8-4.631,31.41-2.605,18.336h-2.63l-4.832-79.545Z" fill="#6bb9dd"/>
      <path id="Path_56" data-name="Path 56" d="M167.151,228.26l5.839,37.853,1.928,41.692h2.7l6.921-79.545Z" fill="#6bb9dd"/>
      <path id="Path_57" data-name="Path 57" d="M181.245,307.805v2.77h7.771l-5.142-2.77Z" fill="#883cc0"/>
      <path id="Path_58" data-name="Path 58" d="M174.918,307.805v2.77h7.771l-5.142-2.77Z" fill="#883cc0"/>
      <path id="Path_59" data-name="Path 59" d="M160.708,208.931s2.466,1.812,7.613-.026l1.127,5.261-4.311,2.618" fill="none" stroke="#dbeffa" stroke-miterlimit="10" stroke-width="1"/>
      <line id="Line_1" data-name="Line 1" x1="4.451" y2="51.16" transform="translate(179.501 235.03)" fill="none" stroke="#dbeffa" stroke-miterlimit="10" stroke-width="1"/>
    </g>
    <g id="Group_15" data-name="Group 15">
      <path id="Path_60" data-name="Path 60" d="M289.1,266.354s-1.362-19.916,8.348-22.347,12.978,5.993,13.448,22.347Z" fill="#c143a3"/>
      <ellipse id="Ellipse_10" data-name="Ellipse 10" cx="5.396" cy="7.311" rx="5.396" ry="7.311" transform="translate(294.892 248.143)" fill="#e79a79"/>
      <rect id="Rectangle_3" data-name="Rectangle 3" width="5.766" height="8.65" transform="translate(297.443 260.414)" fill="#e79a79"/>
      <path id="Path_61" data-name="Path 61" d="M294.066,264.635l-10.391,53.613H316.9l-11.22-53.517s-3,1.951-5.4,2.085S294.066,264.635,294.066,264.635Z" fill="#c143a3"/>
      <path id="Path_62" data-name="Path 62" d="M285.968,318.248l3,64.786h2.938l8.384-60.91,6.765,60.91h2.715l3.495-64.786Z" fill="#883cc0"/>
      <path id="Path_63" data-name="Path 63" d="M307.055,383.034v2.91h7.988l-5.273-2.91Z" fill="#c143a3"/>
      <path id="Path_64" data-name="Path 64" d="M291.81,383.034v2.91h-7.988l5.273-2.91Z" fill="#c143a3"/>
      <path id="Path_65" data-name="Path 65" d="M303.209,253.355s.259,5.048,2.476,5.89,3.244-13.742-3.673-13.368-9.463,2.145-8.871,11.311S303.209,253.355,303.209,253.355Z" fill="#c143a3"/>
      <path id="Path_66" data-name="Path 66" d="M303.209,263.725a41.35,41.35,0,0,0,6.835,2.349c2.456.427,4.378,3.951,7.155,11s6.514,5.874,6.086,9.5.068,2.99.034,7.262-6.12,2.029-6.12,2.029,1.6,8.009.32,13.775l.213,2.99H307.588Z" fill="#6bb9dd"/>
      <path id="Path_67" data-name="Path 67" d="M297.443,263.294a41.284,41.284,0,0,1-6.835,2.35c-2.456.427-4.378,3.951-7.154,11s-6.514,5.873-6.087,9.5-.067,2.99-.034,7.262,6.121,2.028,6.121,2.028-1.6,8.009-.321,13.776l-.213,2.99h10.145Z" fill="#6bb9dd"/>
      <rect id="Rectangle_4" data-name="Rectangle 4" width="24.974" height="16.171" transform="translate(288.107 274.298)" fill="#883cc0"/>
      <path id="Path_68" data-name="Path 68" d="M315.92,287.749l-2.655,4.83s-7-3.674-4.777-6.236S315.92,287.749,315.92,287.749Z" fill="#e79a79"/>
      <path id="Path_69" data-name="Path 69" d="M285.273,287.749l2.655,4.83s7-3.674,4.777-6.236S285.273,287.749,285.273,287.749Z" fill="#e79a79"/>
      <line id="Line_2" data-name="Line 2" x1="4.475" y2="2.859" transform="translate(283.454 292.579)" fill="none" stroke="#dbeffa" stroke-miterlimit="10" stroke-width="1"/>
      <path id="Path_70" data-name="Path 70" d="M285.273,287.749s-2.833,1,0-5.872" fill="none" stroke="#dbeffa" stroke-miterlimit="10" stroke-width="1"/>
      <line id="Line_3" data-name="Line 3" x2="4.475" y2="2.859" transform="translate(313.081 292.952)" fill="none" stroke="#dbeffa" stroke-miterlimit="10" stroke-width="1"/>
      <path id="Path_71" data-name="Path 71" d="M315.736,288.122s2.833,1,0-5.873" fill="none" stroke="#dbeffa" stroke-miterlimit="10" stroke-width="1"/>
    </g>
    <g id="Group_16" data-name="Group 16">
      <path id="Path_72" data-name="Path 72" d="M65.373,246.96s9.475,7.592.632,18.457-13.424,7.372-13.424,7.372Z" fill="#883cc0"/>
      <ellipse id="Ellipse_11" data-name="Ellipse 11" cx="6.396" cy="8.69" rx="6.396" ry="8.69" transform="translate(52.581 244.557)" fill="#e79a79"/>
      <rect id="Rectangle_5" data-name="Rectangle 5" width="7.631" height="13.13" transform="translate(52.581 254.945)" fill="#e79a79"/>
      <rect id="Rectangle_6" data-name="Rectangle 6" width="1.48" height="8.074" transform="translate(79.265 273.35) rotate(20.957)" fill="#883cc0"/>
      <path id="Path_73" data-name="Path 73" d="M51.674,261.976s4.574-.914,8.538,6.1S66,311.677,66,311.677H42.527S37.648,268.684,51.674,261.976Z" fill="#c143a3"/>
      <path id="Path_74" data-name="Path 74" d="M42.527,311.677,37.619,344.7,22.333,379.155l2.073,1.555,21.5-31.608,13.068-37.424Z" fill="#6bb9dd"/>
      <path id="Path_75" data-name="Path 75" d="M47.723,311.677l19.949,34.516,12.954,35.811h3.109l-6.477-37.567L66.005,311.677Z" fill="#6bb9dd"/>
      <path id="Path_76" data-name="Path 76" d="M22.333,379.155l-2.046,3.529,3.425,3.425H28.07l-3.892-2.335.227-3.064Z" fill="#c143a3"/>
      <path id="Path_77" data-name="Path 77" d="M80.626,382.005l.84,3.325,9.963-2.7-7.694-.627Z" fill="#c143a3"/>
      <path id="Path_78" data-name="Path 78" d="M68.856,385.33" fill="#c143a3"/>
      <path id="Path_79" data-name="Path 79" d="M73.6,284.791l-10.475,2.016-4.152-13.484s-7.072-5.742-7.571.867,6.859,21.076,6.859,21.076l16.96-7.233Z" fill="#c143a3"/>
      <path id="Path_80" data-name="Path 80" d="M73.6,284.791s1.5-5.087,4.24-4.29-2.619,7.532-2.619,7.532Z" fill="#e79a79"/>
      <path id="Path_81" data-name="Path 81" d="M65.373,246.96s-7.556,23.954-18.289,31.153-18.719-3.01-9.163-15.576,6.937-21.6,16.493-22.121S65.373,246.96,65.373,246.96Z" fill="#883cc0"/>
      <line id="Line_4" data-name="Line 4" x2="7.624" y2="10.611" transform="translate(46.231 311.677)" fill="none" stroke="#dbeffa" stroke-miterlimit="10" stroke-width="1"/>
      <path id="Path_82" data-name="Path 82" d="M51.624,277.385s2.785,12.912,6.641,17.881l6.335-2.7" fill="none" stroke="#dbeffa" stroke-miterlimit="10" stroke-width="1"/>
      <path id="Path_83" data-name="Path 83" d="M57.862,272.528s.49,3.818,5.267,14.279l1.471-.283" fill="none" stroke="#dbeffa" stroke-miterlimit="10" stroke-width="1"/>
    </g>
  </g>
</svg>
