<svg id="logo_main" xmlns="http://www.w3.org/2000/svg" width="122.374" height="32.129" viewBox="0 0 122.374 32.129">
  <path id="Path_9" data-name="Path 9" d="M16.468,13.244a10.12,10.12,0,0,0-3.224-2.224,9.98,9.98,0,0,0-4.06-.816,8.522,8.522,0,0,0-3.55.775,7.305,7.305,0,0,0-1.806,1.155.64.64,0,0,1-1.053-.492v-11A.641.641,0,0,0,2.134,0H.641A.641.641,0,0,0,0,.641V29.97a.641.641,0,0,0,.641.641H2.134a.641.641,0,0,0,.641-.641h0a.64.64,0,0,1,1-.526,9.291,9.291,0,0,0,1.976,1.024,9.741,9.741,0,0,0,7.45-.224,10.772,10.772,0,0,0,3.244-2.286,10.277,10.277,0,0,0,2.162-3.347,10.681,10.681,0,0,0,.775-4.041,10.526,10.526,0,0,0-.775-4.02A10.263,10.263,0,0,0,16.468,13.244Zm-.489,10.51a7.73,7.73,0,0,1-1.531,2.49A7.363,7.363,0,0,1,12.1,27.938a7.056,7.056,0,0,1-3,.633,7.861,7.861,0,0,1-3.469-.857,7.94,7.94,0,0,1-2.714-2.107.634.634,0,0,1-.143-.405V16.643a.64.64,0,0,1,.069-.293A5.374,5.374,0,0,1,3.9,14.938a8.074,8.074,0,0,1,1.551-1.184A7.583,7.583,0,0,1,7.224,13a7.044,7.044,0,0,1,4.876.388,7.329,7.329,0,0,1,2.348,1.755,8.168,8.168,0,0,1,1.531,2.551,8.479,8.479,0,0,1,.551,3.041A8.317,8.317,0,0,1,15.979,23.754Z" transform="translate(0)" fill="#039"/>
  <path id="Path_10" data-name="Path 10" d="M120.05,50.294a8.812,8.812,0,0,0-2.816-2.041,8.356,8.356,0,0,0-3.551-.755,9.22,9.22,0,0,0-3.816.795,9.769,9.769,0,0,0-5.183,5.428,10.994,10.994,0,0,0-.755,4.1,12.709,12.709,0,0,0,.653,4.122,9.529,9.529,0,0,0,1.94,3.347,9.265,9.265,0,0,0,3.163,2.264,10.537,10.537,0,0,0,4.326.838,9.9,9.9,0,0,0,2.326-.286,9.712,9.712,0,0,0,2.265-.857,8.823,8.823,0,0,0,1.979-1.428,8.2,8.2,0,0,0,1.026-1.187.877.877,0,0,0-.243-1.242l-.468-.3a.882.882,0,0,0-1.206.253,6.192,6.192,0,0,1-.783.926,6.017,6.017,0,0,1-1.49,1.041,6.487,6.487,0,0,1-1.714.551,10.829,10.829,0,0,1-1.9.163,6.571,6.571,0,0,1-2.9-.612,7.02,7.02,0,0,1-2.184-1.633,7.44,7.44,0,0,1-1.429-2.367,9.29,9.29,0,0,1-.479-1.766.873.873,0,0,1,.867-1.01h13.941a.875.875,0,0,0,.873-.806v-.011q.041-.531.041-1.02a9.73,9.73,0,0,0-.653-3.53A9.281,9.281,0,0,0,120.05,50.294Zm-1.244,5.979H107.86a.878.878,0,0,1-.845-1.113,8.835,8.835,0,0,1,.544-1.458,7.192,7.192,0,0,1,1.449-2.041,6.169,6.169,0,0,1,2.062-1.326,7.03,7.03,0,0,1,2.612-.468,5.387,5.387,0,0,1,2.367.531,6.205,6.205,0,0,1,1.918,1.429,6.913,6.913,0,0,1,1.286,2.041,7.58,7.58,0,0,1,.412,1.353.878.878,0,0,1-.859,1.054Z" transform="translate(-81.603 -37.295)" fill="#039"/>
  <path id="Path_11" data-name="Path 11" d="M509.25,107.757l-.046-.062a1.439,1.439,0,0,0-1.664-.444l-.01,0q-.578.225-1.2.408a10.291,10.291,0,0,1-1.246.286,7.178,7.178,0,0,1-1.156.1,8.934,8.934,0,0,1-3.38-.612,7.713,7.713,0,0,1-2.579-1.673,7.062,7.062,0,0,1-1.623-2.51,8.66,8.66,0,0,1-.3-.949,1.509,1.509,0,0,0-1.5-1.08h0a1.445,1.445,0,0,0-1.493,1.767,10.213,10.213,0,0,0,.46,1.282,10.063,10.063,0,0,0,2.357,3.306,10.875,10.875,0,0,0,3.624,2.2,13.083,13.083,0,0,0,4.647.8,10.515,10.515,0,0,0,3.135-.449,12.454,12.454,0,0,0,1.439-.551,1.2,1.2,0,0,0,.527-1.825Z" transform="translate(-387.105 -79.481)" fill="#039"/>
  <path id="Path_12" data-name="Path 12" d="M508.585,40.566l-.046.062a1.439,1.439,0,0,1-1.664.444l-.01,0q-.578-.225-1.2-.408a10.25,10.25,0,0,0-1.246-.286,7.179,7.179,0,0,0-1.156-.1,8.926,8.926,0,0,0-3.38.612,7.713,7.713,0,0,0-2.579,1.673,7.057,7.057,0,0,0-1.623,2.51,8.589,8.589,0,0,0-.3.949,1.509,1.509,0,0,1-1.5,1.08h0a1.445,1.445,0,0,1-1.493-1.767,10.216,10.216,0,0,1,.46-1.282,10.065,10.065,0,0,1,2.358-3.306,10.872,10.872,0,0,1,3.624-2.2,13.084,13.084,0,0,1,4.647-.795,10.518,10.518,0,0,1,3.135.449,12.443,12.443,0,0,1,1.439.551,1.2,1.2,0,0,1,.525,1.824Z" transform="translate(-386.584 -29.634)" fill="#039"/>
  <rect id="Rectangle_1" data-name="Rectangle 1" width="2.775" height="30.611" rx="1.388" transform="translate(45.712)" fill="#039"/>
  <path id="Path_13" data-name="Path 13" d="M264.561,23.133V24.65a.638.638,0,0,1-.079.311,6.348,6.348,0,0,1-1.064,1.406,7.481,7.481,0,0,1-3.326,1.939,6.954,6.954,0,0,1-1.857.265,6.87,6.87,0,0,1-3-.653,7.332,7.332,0,0,1-2.347-1.755,8.168,8.168,0,0,1-1.531-2.551,8.48,8.48,0,0,1-.551-3.041,8.317,8.317,0,0,1,.551-3.02,7.73,7.73,0,0,1,1.531-2.49,7.366,7.366,0,0,1,2.347-1.694,7.056,7.056,0,0,1,3-.633,7.858,7.858,0,0,1,3.469.857,7.941,7.941,0,0,1,2.714,2.108.634.634,0,0,1,.143.405v.2a1.388,1.388,0,0,0,1.388,1.388h0a1.388,1.388,0,0,0,1.388-1.388V.641A.641.641,0,0,0,266.7,0H265.2a.641.641,0,0,0-.641.641V11.334a.64.64,0,0,1-1,.526,9.29,9.29,0,0,0-1.976-1.024,9.738,9.738,0,0,0-7.449.224,10.773,10.773,0,0,0-3.244,2.286,10.275,10.275,0,0,0-2.163,3.347,10.68,10.68,0,0,0-.775,4.041,10.525,10.525,0,0,0,.775,4.02,10.266,10.266,0,0,0,2.143,3.306,10.12,10.12,0,0,0,3.224,2.224,9.98,9.98,0,0,0,4.06.816,8.522,8.522,0,0,0,3.55-.775,7.306,7.306,0,0,0,1.806-1.155.64.64,0,0,1,1.053.492v.307a.641.641,0,0,0,.641.641h1.493a.641.641,0,0,0,.641-.641V23.133a1.388,1.388,0,0,0-1.388-1.388h0A1.388,1.388,0,0,0,264.561,23.133Z" transform="translate(-194.687)" fill="#039"/>
  <g id="Group_3" data-name="Group 3" transform="translate(70.147 8.627)">
    <g id="Group_2" data-name="Group 2" transform="translate(0.318)">
      <path id="Path_4" data-name="Path 4" d="M385.275,101.716a.819.819,0,0,0-.914.444,14.273,14.273,0,0,1-2.712,3.2,26.1,26.1,0,0,1-6.755,4.413.47.47,0,0,1-.44-.017,27.513,27.513,0,0,1-5.081-3.023,16.464,16.464,0,0,1-4.336-4.64l0,0a.7.7,0,0,0-.6-.351h0a.905.905,0,0,0-.734,1.382,17.1,17.1,0,0,0,3.9,4.4,27.187,27.187,0,0,0,6.91,4.124.451.451,0,0,0,.172.034h0a.452.452,0,0,0,.167-.032,21.909,21.909,0,0,0,2.081-.962,24.956,24.956,0,0,0,6.977-5.2,14.435,14.435,0,0,0,1.844-2.41A.873.873,0,0,0,385.275,101.716Z" transform="translate(-355.934 -88.478)" fill="#039" stroke="#039" stroke-width="0.6"/>
      <path id="Path_5" data-name="Path 5" d="M383.063,45.18c-1.5-4.744-7.471-6.452-11.707-3.673a.312.312,0,0,1-.41,0,7.679,7.679,0,0,0-6.228-1.108c-3.949.977-6.407,3.977-6.151,7.922a.846.846,0,0,0,.83.806h.009a.856.856,0,0,0,.831-.881.478.478,0,0,0,0-.06,2.119,2.119,0,0,1,.1-.953,6.475,6.475,0,0,1,6.146-5.332A6.28,6.28,0,0,1,370.5,43.3a1.014,1.014,0,0,0,.695.282,1.221,1.221,0,0,0,.651-.327,6.063,6.063,0,0,1,6.241-.87c2.333.946,3.918,2.36,3.659,5.676a.847.847,0,0,0,.736,1,.857.857,0,0,0,.917-.863A5.76,5.76,0,0,0,383.063,45.18Z" transform="translate(-351.993 -40.161)" fill="#039" stroke="#039" stroke-width="0.6"/>
      <path id="Path_6" data-name="Path 6" d="M342.97,71.642a.74.74,0,0,1-.862.638c-.529-.018-12.853,0-13.383,0a.656.656,0,0,1-.076-1.31.617.617,0,0,1,.067,0c.373,0,12.54-.012,12.912,0,.165.007.213-.06.244-.212q.236-1.145.488-2.286a.611.611,0,0,1,.6-.519.632.632,0,0,1,.616.536q.517,2.406,1.027,4.812c.016.075.037.149.064.261.3-1.384.583-2.728.868-4.072.212-1,.42-2,.633-2.994a.641.641,0,0,1,.6-.5.6.6,0,0,1,.614.5c.3,1.383.6,2.765.884,4.152.051.252.135.326.384.325,3.184-.01,12.266-.007,15.45-.006a.659.659,0,0,1,.173,1.306c-.013,0,.834,0,.821,0-.059.006-.978,0-1.038,0H348.006c-.5,0-.7-.165-.807-.673q-.181-.85-.359-1.7a.207.207,0,0,0-.074-.148q-.408,1.91-.813,3.811c-.223,1.044-.443,2.089-.669,3.133a.627.627,0,0,1-.623.552.614.614,0,0,1-.6-.545q-.516-2.389-1.022-4.781C343.018,71.848,343,71.773,342.97,71.642Z" transform="translate(-328.031 -60.442)" fill="#fb0" stroke="#fb0" stroke-width="0.6"/>
    </g>
    <circle id="Ellipse_1" data-name="Ellipse 1" cx="1.236" cy="1.236" r="1.236" transform="translate(0 9.942)" fill="#fb0" stroke="#fb0" stroke-width="1"/>
    <circle id="Ellipse_2" data-name="Ellipse 2" cx="1.236" cy="1.236" r="1.236" transform="translate(35.831 9.856)" fill="#fb0" stroke="#fb0" stroke-width="1"/>
  </g>
</svg>
