<svg xmlns="http://www.w3.org/2000/svg" width="137.317" height="50.906" viewBox="0 0 137.317 50.906">
  <g id="Group_10" data-name="Group 10" transform="translate(-43.43 256.114)">
    <text id="DO" transform="translate(43.43 -227.114)" fill="#32469b" font-size="30" font-family="HelveticaRounded-Bold, Helvetica Rounded" font-weight="700"><tspan x="0" y="0">DO</tspan></text>
    <text id="TOR" transform="translate(113.747 -226.697)" fill="#32469b" font-size="30" font-family="HelveticaRounded-Bold, Helvetica Rounded" font-weight="700"><tspan x="0" y="0">TOR</tspan></text>
    <g id="Group_7" data-name="Group 7" transform="translate(92.631 -246.391)">
      <path id="Path_32" data-name="Path 32" d="M246.917-216.783a10.856,10.856,0,0,0-3.675-.364,9.729,9.729,0,0,0-3.434.932,7.727,7.727,0,0,0-4.238,4.546,8.1,8.1,0,0,0,.531,6.292,8.063,8.063,0,0,0,4.449,4.292,7.23,7.23,0,0,0,5.92-.3,9.954,9.954,0,0,0,3.015-2.192,11.616,11.616,0,0,0,2.129-3.294l1.714,3.6a10.4,10.4,0,0,1-2.137,2.708,12.546,12.546,0,0,1-3.058,2.015,12.663,12.663,0,0,1-4.5,1.243,10.669,10.669,0,0,1-4.38-.569,10.658,10.658,0,0,1-3.776-2.26,11.891,11.891,0,0,1-2.7-3.69,11.78,11.78,0,0,1-1.159-4.409,10.793,10.793,0,0,1,.642-4.382,10.86,10.86,0,0,1,2.3-3.778,12.216,12.216,0,0,1,3.723-2.685,11.849,11.849,0,0,1,3.527-1.066,12.754,12.754,0,0,1,3.757.071Z" transform="translate(-231.594 220.251)" fill="#fa4949"/>
    </g>
    <g id="Group_8" data-name="Group 8" transform="translate(100.952 -218.205)">
      <path id="Path_33" data-name="Path 33" d="M272.923-101.125v-2.154a4.479,4.479,0,0,1-1.642,1.988,4.487,4.487,0,0,1-2.493.685,5.207,5.207,0,0,1-4.089-1.742,6.665,6.665,0,0,1-1.549-4.6,6.862,6.862,0,0,1,1.529-4.621,4.957,4.957,0,0,1,3.949-1.788,4.956,4.956,0,0,1,2.6.658,4.323,4.323,0,0,1,1.7,1.934v-2.154h1.635v11.794Zm-7.951-5.771a5.363,5.363,0,0,0,1.03,3.524,3.618,3.618,0,0,0,2.945,1.236,3.538,3.538,0,0,0,2.932-1.35,5.83,5.83,0,0,0,1.07-3.716,5.078,5.078,0,0,0-1.064-3.41,3.632,3.632,0,0,0-2.912-1.243,3.573,3.573,0,0,0-2.925,1.323A5.6,5.6,0,0,0,264.972-106.9Z" transform="translate(-263.15 113.358)" fill="#fa4949"/>
      <path id="Path_34" data-name="Path 34" d="M326.794-101.125v-2.154a4.48,4.48,0,0,1-1.642,1.988,4.487,4.487,0,0,1-2.493.685,5.207,5.207,0,0,1-4.089-1.742,6.665,6.665,0,0,1-1.549-4.6,6.861,6.861,0,0,1,1.529-4.621,4.957,4.957,0,0,1,3.949-1.788,4.956,4.956,0,0,1,2.6.658,4.324,4.324,0,0,1,1.7,1.934v-2.154h1.635v11.794Zm-7.951-5.771a5.363,5.363,0,0,0,1.03,3.524,3.618,3.618,0,0,0,2.945,1.236,3.538,3.538,0,0,0,2.932-1.35,5.83,5.83,0,0,0,1.071-3.716,5.078,5.078,0,0,0-1.064-3.41,3.632,3.632,0,0,0-2.912-1.243,3.573,3.573,0,0,0-2.925,1.323A5.6,5.6,0,0,0,318.843-106.9Z" transform="translate(-302.816 113.358)" fill="#fa4949"/>
      <path id="Path_35" data-name="Path 35" d="M374.562-110.552a7.233,7.233,0,0,1,1.775-2.167,3.338,3.338,0,0,1,2.028-.638,3.766,3.766,0,0,1,.7.067,4.907,4.907,0,0,1,.7.186l-.532,1.542a5.235,5.235,0,0,0-.552-.133,3,3,0,0,0-.552-.053,3.078,3.078,0,0,0-2.519,1.383,5.551,5.551,0,0,0-1.044,3.444v5.8h-1.636v-11.794h1.636Z" transform="translate(-343.98 113.358)" fill="#fa4949"/>
      <path id="Path_36" data-name="Path 36" d="M407.086-111.694v5.89a6.945,6.945,0,0,0,.764,3.789,2.921,2.921,0,0,0,2.586,1.1,2.945,2.945,0,0,0,2.593-1.117,6.809,6.809,0,0,0,.784-3.776v-5.89h1.622v6.728a6.079,6.079,0,0,1-1.263,4.168,4.711,4.711,0,0,1-3.709,1.416,4.771,4.771,0,0,1-3.736-1.416,6.037,6.037,0,0,1-1.276-4.168v-6.728Z" transform="translate(-367.929 112.133)" fill="#fa4949"/>
    </g>
    <circle id="Ellipse_1" data-name="Ellipse 1" cx="1.915" cy="1.915" r="1.915" transform="translate(89.034 -215.257)" fill="#fa4949"/>
    <circle id="Ellipse_2" data-name="Ellipse 2" cx="3.416" cy="3.416" r="3.416" transform="translate(109.816 -234.314)" fill="#fa4949"/>
    <circle id="Ellipse_3" data-name="Ellipse 3" cx="4.022" cy="4.022" r="4.022" transform="translate(86.9 -217.329)" fill="none" stroke="#fa4949" stroke-miterlimit="10" stroke-width="1"/>
    <path id="Path_37" data-name="Path 37" d="M273.606-228.379a3.416,3.416,0,0,1,3.416,3.416,3.416,3.416,0,0,1-3.416,3.416,3.416,3.416,0,0,1-3.416-3.416,3.416,3.416,0,0,1,3.416-3.416" transform="translate(-167.382 -20.155)" fill="#fa4949"/>
    <g id="Group_9" data-name="Group 9" transform="translate(81.471 -230.249)">
      <path id="Path_38" data-name="Path 38" d="M191.612-149.184a9.584,9.584,0,0,0-1.738,2.833,9.9,9.9,0,0,0-.6,3.459,8.852,8.852,0,0,0,2.387,6.443,8.317,8.317,0,0,0,6.246,2.456,8.071,8.071,0,0,0,6.1-2.294,8.765,8.765,0,0,0,2.213-6.35v-.185h-3.588v1.333h1.9a5.892,5.892,0,0,1-1.837,4.392,6.508,6.508,0,0,1-4.641,1.68,7.256,7.256,0,0,1-2.769-.515,6.819,6.819,0,0,1-2.283-1.547,7.17,7.17,0,0,1-1.535-2.387,8.826,8.826,0,0,1-.527-2.862,11.431,11.431,0,0,1,1.982-5.527c4.536-5.526,11.711-9.339,11.615-9.494-.06-.1-1.073-1.283-1.073-1.283C194.469-153.622,192.589-150.343,191.612-149.184Z" transform="translate(-189.271 159.034)" fill="#fa4949"/>
    </g>
  </g>
</svg>
