<svg xmlns="http://www.w3.org/2000/svg" width="464.755" height="321.499" viewBox="0 0 464.755 321.499">
  <g id="why-choose-us" transform="translate(-183 -233.735)">
    <g id="shadow" transform="translate(183 477.165)">
      <g id="Group_17" data-name="Group 17" opacity="0.12">
        <path id="Path_13" data-name="Path 13" d="M626.024,851.8H248.188c-11.951,0-21.729,5.924-21.729,13.166h0c0,5.014,4.69,9.4,11.542,11.616H204.73c-11.951,0-21.73,5.925-21.73,13.166h0c0,7.241,9.778,13.166,21.73,13.166h11.593c-3.238,2.3-5.2,5.276-5.2,8.519V916.7c0,7.241,9.778,13.166,21.73,13.166H605.062c11.951,0,21.73-5.924,21.73-13.166v-5.266c0-7.241-9.778-13.165-21.73-13.165l-25.308.292a12.035,12.035,0,0,0,7.158-2.774c3.682-3.248,3.846-8.192,2.045-12.284-1.167-2.653-3.037-4.757-7.669-5.548l44.737.178c11.951,0,21.73-5.924,21.73-13.165h0C647.754,857.721,637.976,851.8,626.024,851.8Z" transform="translate(-183 -851.797)" fill="#606060"/>
      </g>
    </g>
    <g id="object" transform="translate(190.613 233.736)">
      <g id="Group_109" data-name="Group 109">
        <g id="Group_18" data-name="Group 18" transform="translate(35.282 49.149)">
          <path id="Path_14" data-name="Path 14" d="M299.056,385.1l27.964,8.271L347.6,358.524l6.752,7.739L334.529,411.42l-33.36-6.225-9.261-11.764Z" transform="translate(-291.908 -358.525)" fill="#aeccdc"/>
        </g>
        <g id="Group_19" data-name="Group 19" transform="translate(346.444 13.151)">
          <path id="Path_15" data-name="Path 15" d="M1123.81,328.725l-28.477-27.108.908-34.05-9.5-.441-4.773,33.369-.017,8.155,35.513,40.648,4.777-13.246Z" transform="translate(-1081.944 -267.126)" fill="#c8d6a1"/>
        </g>
        <g id="Group_40" data-name="Group 40" transform="translate(358.068 35.909)">
          <g id="Group_30" data-name="Group 30" transform="translate(10.979 109.582)">
            <g id="Group_24" data-name="Group 24" transform="translate(18.81 0.798)">
              <g id="Group_21" data-name="Group 21" transform="translate(36.78 128.936)">
                <g id="Group_20" data-name="Group 20">
                  <path id="Path_16" data-name="Path 16" d="M1292.18,936.859l.945,4.334-7.487,6.172-5.161-3.415,3.271-5.253,7.487-6.172Z" transform="translate(-1280.472 -932.525)" fill="#3a3029"/>
                </g>
              </g>
              <g id="Group_23" data-name="Group 23">
                <g id="Group_22" data-name="Group 22">
                  <path id="Path_17" data-name="Path 17" d="M1209.39,605.159l8.355,19.266.788,54.206,17.179,58.306-7.988,3.542-35.056-67.7-3.99-21.443-1.586-45.161Z" transform="translate(-1187.089 -605.159)" fill="#cab5a1"/>
                </g>
              </g>
            </g>
            <g id="Group_29" data-name="Group 29">
              <g id="Group_26" data-name="Group 26">
                <g id="Group_25" data-name="Group 25">
                  <path id="Path_18" data-name="Path 18" d="M1139.99,608.25l-.657,56.807,10.7,73.245h8.231l5.2-67.584,11.264-67.584Z" transform="translate(-1139.33 -603.134)" fill="#cab5a1"/>
                </g>
              </g>
              <g id="Group_28" data-name="Group 28" transform="translate(5.537 134.188)">
                <g id="Group_27" data-name="Group 27">
                  <path id="Path_19" data-name="Path 19" d="M1166.74,943.835v4.451l-8.9,4.451-4.451-4.451,4.451-4.451Z" transform="translate(-1153.389 -943.835)" fill="#3a3029"/>
                </g>
              </g>
            </g>
          </g>
          <g id="Group_32" data-name="Group 32" transform="translate(0 36.965)">
            <g id="Group_31" data-name="Group 31">
              <path id="Path_20" data-name="Path 20" d="M1139.3,419.572l21.865-.81s13.081,11.477,19.841,41.3c6.883,30.368-1.271,74.086-1.271,74.086s-58.661-7.819-68.28-9.026l14.674-59.959Z" transform="translate(-1111.455 -418.762)" fill="#c8d6a1"/>
            </g>
          </g>
          <g id="Group_37" data-name="Group 37" transform="translate(10.121)">
            <g id="Group_34" data-name="Group 34" transform="translate(14.559 14.251)">
              <g id="Group_33" data-name="Group 33">
                <path id="Path_21" data-name="Path 21" d="M1183.88,388.427l7.674-.586a38.4,38.4,0,0,0-.277-6.125c2.144-.7,4.628-1.766,5.049-3.982a6.362,6.362,0,0,0-.078-2.119q-.652-4.357-1.3-8.714a7.761,7.761,0,0,0-.836-2.909c-.921-1.526-2.759-2.226-4.508-2.571a15.857,15.857,0,0,0-12.908,2.837,6.946,6.946,0,0,0-2.233,2.81c-.668,1.743-.242,3.692.191,5.507l1.2,5.028c.46,1.928,1.137,4.122,2.967,4.883.972.4,2.132.318,3.006.9C1183.37,384.42,1183.11,386.743,1183.88,388.427Z" transform="translate(-1174.116 -361.092)" fill="#eacdb0"/>
              </g>
            </g>
            <g id="Group_36" data-name="Group 36">
              <g id="Group_35" data-name="Group 35">
                <path id="Path_22" data-name="Path 22" d="M1137.15,337.039a24.637,24.637,0,0,1,.749-5.787c.747-3.1,4.445-4.414,7.624-4.567,6.867-.33,13.551-3.3,20.2-.756,3.8,1.453,8.932,1.891,12.355,3.9a10.232,10.232,0,0,1,3.425,3.534,15.413,15.413,0,0,1-.326,16.3,22,22,0,0,1-2.466,2.968c-1.851,1.918-4.067,4.29-6.568,4.96-.009-2.225,2.175-9.19.508-11.051-2.644-2.953-8.794-2.083-12.172-1.447-3.684.694-7.011,3.217-10.659,3.689-2.625.34-5.934-1.018-8.128-2.421C1138.25,344.159,1137.17,340.626,1137.15,337.039Z" transform="translate(-1137.152 -324.909)" fill="#3a3029"/>
              </g>
            </g>
          </g>
          <g id="Group_39" data-name="Group 39" transform="translate(9.006 39.348)">
            <g id="Group_38" data-name="Group 38">
              <path id="Path_23" data-name="Path 23" d="M1159.19,425.942,1136.2,517.887l-1.884,12.058,28.639,3.768s-1.131-44.029-.754-49.9,4.624-18.567,5.276-32.248c.376-7.913,2.89-22.127,1.13-26.754Z" transform="translate(-1134.321 -424.812)" fill="#fff"/>
            </g>
          </g>
        </g>
        <g id="Group_41" data-name="Group 41" transform="translate(349.468)">
          <path id="Path_24" data-name="Path 24" d="M1099.87,247.276l3.346-6.93-5.977-6.611L1089.62,244l3.4,2.962Z" transform="translate(-1089.62 -233.736)" fill="#eacdb0"/>
        </g>
        <g id="Group_48" data-name="Group 48" transform="translate(143.633 51.306)">
          <g id="Group_43" data-name="Group 43">
            <g id="Group_42" data-name="Group 42">
              <path id="Path_25" data-name="Path 25" d="M747.222,364.178c-21.768-1.773-49.158,9.845-55.694,28.431-6.536-18.586-39.932-30.023-61.7-28.25C572.385,369.038,552.94,433.1,577.3,476.176c13.108,23.186,31.946,43.458,52.5,61.661,17.21,15.243,61.6,47.573,61.735,47.463.135.11,44.526-32.22,61.736-47.463,20.552-18.2,39.389-38.475,52.5-61.661C830.117,433.1,804.665,368.857,747.222,364.178Z" transform="translate(-567.01 -364)" fill="#6bb9dd"/>
            </g>
          </g>
          <g id="Group_45" data-name="Group 45" transform="translate(87.121 88.964)" opacity="0.12">
            <g id="Group_44" data-name="Group 44">
              <path id="Path_26" data-name="Path 26" d="M928.671,618.532A312.341,312.341,0,0,1,879.779,666c-17.4,13.481-37.8,25.226-60.242,29.151a78.726,78.726,0,0,1-31.329-.674c18.322,14.141,38.235,28.6,38.326,28.525.136.11,44.526-32.22,61.735-47.463,20.552-18.2,39.39-38.476,52.5-61.661a71.125,71.125,0,0,0,8.283-24.006A226.476,226.476,0,0,1,928.671,618.532Z" transform="translate(-788.208 -589.877)"/>
            </g>
          </g>
          <g id="Group_47" data-name="Group 47" transform="translate(18.369 39.254)">
            <g id="Group_46" data-name="Group 46">
              <path id="Path_27" data-name="Path 27" d="M821.906,523.825,776.78,524.97l-16.33-59.243c-.787-2.855-5.029-2.64-5.923,0L719.59,568.85l-2.024,5.973-23.757-67.884L690,496.051c-.766-2.187-4.375-3.055-5.613-.69l-17.269,32.981h-50.5a2.892,2.892,0,1,0,0,5.782h52.4a3.08,3.08,0,0,0,2.652-1.432l14.8-28.263,24.373,69.645,3.81,10.887a3.16,3.16,0,0,0,5.923,0q17.468-51.561,34.937-103.122l1.671-4.933,14.275,51.784a3.092,3.092,0,0,0,2.962,2.122l47.486-1.2C825.852,529.507,825.867,523.724,821.906,523.825Z" transform="translate(-613.65 -463.666)" fill="#fff"/>
            </g>
          </g>
        </g>
        <g id="Group_49" data-name="Group 49" transform="translate(348.851 72.968)">
          <path id="Path_28" data-name="Path 28" d="M1147.13,419l-16.542,43.325h-40.174l-2.363,13,43.718,3.545,14.179-5.908,14.177-33.531Z" transform="translate(-1088.055 -419)" fill="#d2e0a9"/>
        </g>
        <g id="Group_50" data-name="Group 50" transform="translate(329.552 111.566)">
          <path id="Path_29" data-name="Path 29" d="M1060.72,521.726,1048.9,517l-9.847,6.3,1.575,4.332,18.53,2.653Z" transform="translate(-1039.055 -517)" fill="#eacdb0"/>
        </g>
        <g id="Group_86" data-name="Group 86" transform="translate(74.826 28.488)">
          <g id="Group_61" data-name="Group 61" transform="translate(163.063 57.354)">
            <g id="Group_52" data-name="Group 52">
              <g id="Group_51" data-name="Group 51">
                <circle id="Ellipse_1" data-name="Ellipse 1" cx="25.998" cy="25.998" r="25.998" transform="translate(0 51.848) rotate(-85.669)" fill="#fb0"/>
              </g>
            </g>
            <g id="Group_54" data-name="Group 54" transform="translate(2.615 2.615)">
              <g id="Group_53" data-name="Group 53">
                <circle id="Ellipse_2" data-name="Ellipse 2" cx="17.87" cy="17.87" r="17.87" transform="translate(0 25.272) rotate(-45)" fill="#e5ded6"/>
              </g>
            </g>
            <g id="Group_56" data-name="Group 56" transform="translate(3.935 37.842)">
              <g id="Group_55" data-name="Group 55">
                <rect id="Rectangle_13" data-name="Rectangle 13" width="6.967" height="95.157" transform="translate(18.436) rotate(11.171)" fill="#e5ded6"/>
              </g>
            </g>
            <g id="Group_58" data-name="Group 58" transform="translate(21.352 22.215)">
              <g id="Group_57" data-name="Group 57">
                <circle id="Ellipse_3" data-name="Ellipse 3" cx="6.117" cy="6.117" r="6.117" transform="matrix(0.026, -1, 1, 0.026, 0, 12.23)" fill="#fb0"/>
              </g>
            </g>
            <g id="Group_60" data-name="Group 60" transform="translate(26.313 33.377)" opacity="0.13">
              <g id="Group_59" data-name="Group 59">
                <path id="Path_30" data-name="Path 30" d="M877.046,537.078,873.133,556.9a31.478,31.478,0,0,0,6.251-.371l-1.266-20.092Z" transform="translate(-873.133 -536.432)"/>
              </g>
            </g>
          </g>
          <g id="Group_64" data-name="Group 64" transform="translate(29.603 148.35)">
            <g id="Group_63" data-name="Group 63">
              <g id="Group_62" data-name="Group 62">
                <path id="Path_31" data-name="Path 31" d="M469.946,682.723a139.128,139.128,0,0,0-2.473,27.893c.057,19.344,3.372,40.987,18.979,57.938,16.517,17.939,48.319,26.622,72.912,18.57,23.482-7.689,37.078-26.411,45.862-44.238a162,162,0,0,0,9.781-25.255,110.551,110.551,0,0,0,3.433-13.72c.035-.214.081-.427.118-.641,1.04-6.059-11.271-8.175-12.313-2.107-.529,3.082-1.289,6.132-2.087,9.16q-1.3,4.939-2.913,9.8c-.31.939-.633,1.875-.957,2.81l-.085.249-.048.131-.6,1.623q-1.152,3.076-2.438,6.113a117.935,117.935,0,0,1-14.312,25.327c-.342.452-.691.9-1.041,1.349.49-.63-.383.473-.621.761q-1.271,1.534-2.626,3.02a74.529,74.529,0,0,1-5.431,5.379q-1.351,1.2-2.783,2.352-.673.538-1.365,1.062c-.306.232-.618.458-.927.688-.1.072-.3.217-.461.326a61.529,61.529,0,0,1-6.326,3.771q-1.65.845-3.383,1.594c-.545.235-1.1.454-1.653.682,1.494-.617-.88.309-1.266.438a55.384,55.384,0,0,1-7.986,2.031c-.277.049-.561.088-.836.141l-.1.019h-.043c-.647.069-1.289.157-1.938.22q-2.31.223-4.66.267c-1.46.028-2.919-.016-4.386-.07-.1,0-.243-.013-.381-.022l.39.032-.653-.052-.116-.01-.188-.016c-.973-.1-1.943-.193-2.915-.319a96.912,96.912,0,0,1-10.03-1.974l-.062-.015c-.31-.091-.62-.18-.928-.274q-1.035-.314-2.056-.658-2.426-.818-4.763-1.811c-1.238-.527-2.422-1.114-3.63-1.684l-.076-.036-.072-.042c-.246-.142-.5-.275-.752-.414q-1.113-.624-2.188-1.292-1.595-.99-3.1-2.067-.828-.594-1.627-1.213c-.274-.212-1.742-1.453-1.39-1.128a58.189,58.189,0,0,1-5.17-5.182q-1.135-1.3-2.168-2.655c-.191-.249-1.126-1.563-.757-1.02-.356-.517-.71-1.034-1.05-1.557a67.385,67.385,0,0,1-6.543-13.293c-.037-.1-.071-.2-.106-.3-.044-.126-.1-.286-.131-.384-.169-.525-.343-1.048-.506-1.574q-.571-1.844-1.05-3.7-.918-3.54-1.535-7.1a110.145,110.145,0,0,1-1.512-14.015q-.074-1.609-.107-3.216c-.011-.555-.016-1.11-.024-1.666.022,1.492,0-.482.005-.845q.024-3.16.19-6.307.289-5.555.986-11.062c.345-2.746.811-5.463,1.317-8.175a21.5,21.5,0,0,1-5.644-.51,31.287,31.287,0,0,1-6.685-2.127Zm51.039,95.306C520.667,777.945,520.131,777.781,520.985,778.029ZM484.7,743.561Z" transform="translate(-467.472 -682.723)" fill="#11157a"/>
              </g>
            </g>
          </g>
          <g id="Group_72" data-name="Group 72" transform="translate(6.687)">
            <g id="Group_66" data-name="Group 66" transform="translate(0 1.228)">
              <g id="Group_65" data-name="Group 65">
                <path id="Path_32" data-name="Path 32" d="M443.678,313.292l-20.548-4.058a2.8,2.8,0,0,0-3.238,2.17q-4.619,23.391-9.239,46.782-.651,3.3-1.3,6.6c-.687,3.479,4.72,4.553,5.408,1.068q4.619-23.391,9.239-46.782l.769-3.9L442.61,318.7C446.09,319.387,447.163,313.98,443.678,313.292Z" transform="translate(-409.289 -309.184)" fill="#e5ded6"/>
              </g>
            </g>
            <g id="Group_71" data-name="Group 71" transform="translate(24.451)">
              <g id="Group_68" data-name="Group 68" transform="translate(9.9 2.763)">
                <g id="Group_67" data-name="Group 67">
                  <path id="Rectangle_14" data-name="Rectangle 14" d="M0,0H5.512a5.512,5.512,0,0,1,5.512,5.512h0a5.512,5.512,0,0,1-5.512,5.512H0Z" transform="translate(2.136) rotate(11.171)" fill="#fb0"/>
                </g>
              </g>
              <g id="Group_70" data-name="Group 70">
                <g id="Group_69" data-name="Group 69">
                  <path id="Rectangle_15" data-name="Rectangle 15" d="M6.369,0h4.41V12.739H6.369A6.369,6.369,0,0,1,0,6.369H0A6.369,6.369,0,0,1,6.369,0Z" transform="translate(2.468) rotate(11.172)" fill="#e5ded6"/>
                </g>
              </g>
            </g>
          </g>
          <g id="Group_80" data-name="Group 80" transform="translate(80.829 10.247)">
            <g id="Group_74" data-name="Group 74" transform="translate(10.708 5.253)">
              <g id="Group_73" data-name="Group 73">
                <path id="Path_33" data-name="Path 33" d="M627.926,345.48l20.549,4.058a2.8,2.8,0,0,1,2.17,3.238l-9.239,46.782-1.3,6.6c-.687,3.48-6.1,2.417-5.408-1.068l9.239-46.782q.385-1.948.77-3.9l-17.845-3.524C623.379,350.2,624.441,344.792,627.926,345.48Z" transform="translate(-624.72 -345.42)" fill="#e5ded6"/>
              </g>
            </g>
            <g id="Group_79" data-name="Group 79">
              <g id="Group_76" data-name="Group 76">
                <g id="Group_75" data-name="Group 75">
                  <path id="Rectangle_16" data-name="Rectangle 16" d="M0,0H5.512a5.512,5.512,0,0,1,5.512,5.512h0a5.512,5.512,0,0,1-5.512,5.512H0Z" transform="translate(10.815 12.951) rotate(-168.828)" fill="#fb0"/>
                </g>
              </g>
              <g id="Group_78" data-name="Group 78" transform="translate(9.808 1.129)">
                <g id="Group_77" data-name="Group 77">
                  <path id="Rectangle_17" data-name="Rectangle 17" d="M6.369,0h4.41V12.739H6.369A6.369,6.369,0,0,1,0,6.369H0A6.369,6.369,0,0,1,6.369,0Z" transform="translate(10.575 14.586) rotate(-168.828)" fill="#e5ded6"/>
                </g>
              </g>
            </g>
          </g>
          <g id="Group_82" data-name="Group 82" transform="translate(30.638 152.957)" opacity="0.13">
            <g id="Group_81" data-name="Group 81">
              <path id="Path_34" data-name="Path 34" d="M482.882,698.148s-.567,4.035-.98,8.726l-11.8-7.607.9-4.846Z" transform="translate(-470.101 -694.42)"/>
            </g>
          </g>
          <g id="Group_85" data-name="Group 85" transform="translate(0 53.324)">
            <g id="Group_84" data-name="Group 84">
              <g id="Group_83" data-name="Group 83">
                <path id="Path_35" data-name="Path 35" d="M397.1,445.011a158.932,158.932,0,0,0-4.441,29.839c-1.11,17.713-.034,37.472,10.083,52.714,10.707,16.131,32.862,23.513,50.872,15.7,17.2-7.46,28-24.847,35.324-41.329a190.707,190.707,0,0,0,8.474-23.3c1.229-4.151,2.448-8.368,3.264-12.625.038-.2.083-.392.122-.589,1.1-5.567-7.548-7.284-8.652-1.709-.561,2.832-1.284,5.638-2.033,8.425q-1.222,4.546-2.66,9.03c-.277.865-.563,1.728-.849,2.59-.379,1.142.223-.626-.118.35-.174.5-.347,1-.523,1.5q-1,2.838-2.1,5.641A132.2,132.2,0,0,1,472.154,514.7c-.3.468-.61.932-.917,1.4.577-.872-.194.279-.394.566q-1,1.427-2.051,2.812c-1.323,1.735-2.717,3.416-4.192,5.022q-1.034,1.128-2.124,2.2-.512.505-1.036,1c-.232.218-.468.431-.7.647-.189.175-.952.824-.1.1a49.925,49.925,0,0,1-4.982,3.776q-1.226.8-2.506,1.521c-.4.225-.813.436-1.219.654,1.1-.592-.646.3-.928.423a35.325,35.325,0,0,1-5.814,2c-.2.05-.4.09-.6.144-1.033.28.958-.146-.1.024-.466.075-.928.167-1.395.236q-1.659.245-3.338.328c-1.042.052-2.08.038-3.123.015-.273-.006-1.069-.079.006.009-.226-.018-.453-.03-.677-.054-.688-.073-1.374-.142-2.059-.24a52.408,52.408,0,0,1-7.033-1.628c-.21-.06-.825-.292.124.048-.271-.1-.543-.193-.813-.295q-.718-.269-1.426-.566-1.681-.706-3.288-1.573c-.851-.46-1.66-.977-2.487-1.477-.93-.562.763.582-.1-.069-.167-.126-.343-.243-.512-.366q-.756-.552-1.483-1.143-1.078-.877-2.085-1.837-.555-.529-1.087-1.082c-.213-.221-1.506-1.7-.7-.733a43.741,43.741,0,0,1-3.6-4.927q-.731-1.173-1.388-2.392c-.137-.253-.872-1.738-.345-.64-.269-.56-.536-1.12-.79-1.688a64.54,64.54,0,0,1-3.874-12.055c-.047-.21-.091-.421-.135-.631.221,1.032.056.271.007.011-.089-.477-.182-.954-.267-1.432q-.3-1.679-.529-3.369-.444-3.225-.672-6.474a126.632,126.632,0,0,1-.244-12.807q.043-1.472.115-2.943c.025-.508.055-1.017.082-1.525-.073,1.366.031-.441.054-.774q.2-2.893.51-5.779.537-5.091,1.361-10.147c.639-3.933,1.482-7.806,2.32-11.7.041-.189.092-.377.141-.565a4.41,4.41,0,1,0-8.652-1.709Z" transform="translate(-392.311 -441.453)" fill="#11157a"/>
              </g>
            </g>
          </g>
        </g>
        <g id="Group_91" data-name="Group 91" transform="translate(21.504 167.533)">
          <g id="Group_88" data-name="Group 88" transform="translate(0.771 106.509)">
            <g id="Group_87" data-name="Group 87">
              <path id="Path_36" data-name="Path 36" d="M259.239,933.083l-.354,3.56,6.476,4.426,3.768-3.127-3.061-3.993-6.475-4.426Z" transform="translate(-258.885 -929.523)" fill="#514943"/>
            </g>
          </g>
          <g id="Group_90" data-name="Group 90">
            <g id="Group_89" data-name="Group 89">
              <path id="Path_37" data-name="Path 37" d="M258,660.337l-1.074,10.813,9.77,37.123-8.889,59.7,6.633,2.271,17.365-58.3,2.741-16.957-.171-35.886Z" transform="translate(-256.927 -659.099)" fill="#8c9498"/>
            </g>
          </g>
        </g>
        <g id="Group_96" data-name="Group 96" transform="translate(35.284 172.402)">
          <g id="Group_93" data-name="Group 93">
            <g id="Group_92" data-name="Group 92">
              <path id="Path_38" data-name="Path 38" d="M325.676,676.828l-2.729,100.941-6.3.705-8.266-63.582-16.469-43.433Z" transform="translate(-291.913 -671.459)" fill="#8c9498"/>
            </g>
          </g>
          <g id="Group_95" data-name="Group 95" transform="translate(24.683 105.463)">
            <g id="Group_94" data-name="Group 94">
              <path id="Path_39" data-name="Path 39" d="M354.584,939.989l.4,3.57,7.211,2.808,3.006-3.951-3.8-3.189Z" transform="translate(-354.584 -939.227)" fill="#514943"/>
            </g>
          </g>
        </g>
        <g id="Group_98" data-name="Group 98" transform="translate(0 74.652)">
          <g id="Group_97" data-name="Group 97">
            <path id="Path_40" data-name="Path 40" d="M221.814,442.306c.033-1.52.122-3.035.283-4.542.928-8.682,6.606-11.965,14.3-14.279a13.626,13.626,0,0,1,12.626,4.293l.186-.165a15.265,15.265,0,0,1,1.732,2.711c.073.125.11.2.11.2,2.166,3.917,6.464,12.837,14.027,32.618,12.143,31.76,21.975,81.372,14.288,93.957l-.26-.616c-2.644.97-18.764,1.212-20.416,1.318-9.655.618-19.291,1.657-28.974,1.739a106.142,106.142,0,0,1-14.626-.764c-2.486-.324-10.976-.67-12.438-2.988-1.742-2.763,4.068-14.6,5.113-17.641,2.428-7.058,5.111-14.031,8.131-20.859,4.534-13.211,8-27.487,8-41.519C223.9,464.572,221.573,453.514,221.814,442.306Z" transform="translate(-202.329 -423.275)" fill="#aeccdc"/>
          </g>
        </g>
        <g id="Group_99" data-name="Group 99" transform="translate(12.456 74.914)">
          <path id="Path_41" data-name="Path 41" d="M256.15,423.942l-22.2,13.567.56,17.486,17.99,35.533,43.528-14.914-4.571-11.156L261.171,473.2l-9.215-32.344Z" transform="translate(-233.955 -423.942)" fill="#b3d2e3"/>
        </g>
        <g id="Group_106" data-name="Group 106" transform="translate(13.901 37.58)">
          <g id="Group_101" data-name="Group 101" transform="translate(21.333 2.252)">
            <g id="Group_100" data-name="Group 100">
              <path id="Path_42" data-name="Path 42" d="M291.788,343.959a12.8,12.8,0,0,1,11.779,7.693,11.264,11.264,0,0,0-7.546-16.784,13.041,13.041,0,0,0-3.866,9.071Z" transform="translate(-291.788 -334.868)" fill="#9e6652"/>
            </g>
          </g>
          <g id="Group_103" data-name="Group 103" transform="translate(9.68 6.709)">
            <g id="Group_102" data-name="Group 102">
              <path id="Path_43" data-name="Path 43" d="M284.953,352.394c-6.1-11.868-21.162-5.054-22.658,6.459-.851,6.547,4.255,13.949,10.571,16.462.439,1.08,1.491,4.108,2.562,4.6,1.16.534,3.835-1.092,4.9-1.692a1.829,1.829,0,0,0,.758-.651,3.418,3.418,0,0,0-.224-2.007,10.914,10.914,0,0,0,2.411-1.262c3.3-2.279,4.945-6.443,4.95-10.453A25.41,25.41,0,0,0,284.953,352.394Z" transform="translate(-262.202 -346.185)" fill="#eacdb0"/>
            </g>
          </g>
          <g id="Group_105" data-name="Group 105">
            <g id="Group_104" data-name="Group 104">
              <path id="Path_44" data-name="Path 44" d="M259.971,392.316a55.019,55.019,0,0,0,8.624-3.594c-1.9.991-8.954-20.411-9.467-21.884a22.625,22.625,0,0,1-.028-13.218,71.191,71.191,0,0,1,5.1-12.387,10.589,10.589,0,0,0,1.488-5.307,6.9,6.9,0,0,0-3.258-4.992,9.677,9.677,0,0,0-8.293-1.4,22.633,22.633,0,0,0-14.373,11.584c-3.26,6.87-2.3,15.242-.433,22.392a47.508,47.508,0,0,1,1.373,5.783,40.613,40.613,0,0,1,.074,6.357,27.8,27.8,0,0,0,.988,9.3,12.241,12.241,0,0,0,5.645,7.219C251.289,394.2,255.984,393.594,259.971,392.316Z" transform="translate(-237.624 -329.151)" fill="#9e6652"/>
            </g>
          </g>
        </g>
        <g id="Group_107" data-name="Group 107" transform="translate(70.979 111.566)">
          <path id="Path_45" data-name="Path 45" d="M382.542,523.339l6.58-6.339,9.869.127.237,6.007-13.988,6.787Z" transform="translate(-382.542 -517)" fill="#eacdb0"/>
        </g>
        <g id="Group_108" data-name="Group 108" transform="translate(90.086 40.672)">
          <path id="Path_46" data-name="Path 46" d="M434.007,352.044l6.894-6.379-3.545-7.483L433.812,337l-2.757,6.3,3.823,4.332Z" transform="translate(-431.055 -337)" fill="#eacdb0"/>
        </g>
      </g>
    </g>
  </g>
</svg>
