<svg id="fb" xmlns="http://www.w3.org/2000/svg" xmlns:xlink="http://www.w3.org/1999/xlink" width="32" height="32" viewBox="0 0 32 32">
  <defs>
    <linearGradient id="linear-gradient" x1="0.069" y1="0.248" x2="0.934" y2="0.748" gradientUnits="objectBoundingBox">
      <stop offset="0.451" stop-color="#005aa3"/>
      <stop offset="1" stop-color="#15267a"/>
    </linearGradient>
  </defs>
  <path id="Rectangle_1" data-name="Rectangle 1" d="M15.794,0h.437A15.356,15.356,0,0,1,31.588,15.356v.437A15.794,15.794,0,0,1,15.794,31.588h0A15.794,15.794,0,0,1,0,15.794v0A15.794,15.794,0,0,1,15.794,0Z" transform="translate(0.206 0.206)" fill="url(#linear-gradient)"/>
  <path id="Path_2" data-name="Path 2" d="M41.988,27.229h-.7a16.047,16.047,0,0,0-16,16h0a16.047,16.047,0,0,0,16,16h0a16.047,16.047,0,0,0,16-16v-.7A15.347,15.347,0,0,0,41.988,27.229Zm5.532,8.382-2.259,0c-1.771,0-2.114.842-2.114,2.076v2.723h4.224l-.55,4.266H43.148V55.623h-4.4V44.678H35.06V40.412h3.683V37.266c0-3.65,2.229-5.639,5.486-5.639a30.131,30.131,0,0,1,3.291.168Z" transform="translate(-25.29 -27.229)" fill="#f3f3f3"/>
</svg>
