<svg id="linkedin" xmlns="http://www.w3.org/2000/svg" xmlns:xlink="http://www.w3.org/1999/xlink" width="32" height="32" viewBox="0 0 32 32">
  <defs>
    <linearGradient id="linear-gradient" x1="0.069" y1="0.248" x2="0.934" y2="0.748" gradientUnits="objectBoundingBox">
      <stop offset="0.559" stop-color="#4987c3"/>
      <stop offset="1" stop-color="#00549e"/>
    </linearGradient>
  </defs>
  <path id="Rectangle_10" data-name="Rectangle 10" d="M15.794,0h.437A15.356,15.356,0,0,1,31.588,15.356v.437A15.794,15.794,0,0,1,15.794,31.588h0A15.794,15.794,0,0,1,0,15.794v0A15.794,15.794,0,0,1,15.794,0Z" transform="translate(0.206 0.206)" fill="url(#linear-gradient)"/>
  <path id="Path_11" data-name="Path 11" d="M41.988,93.355h-.7a16.047,16.047,0,0,0-16,16h0a16.047,16.047,0,0,0,16,16h0a16.047,16.047,0,0,0,16-16v-.7A15.347,15.347,0,0,0,41.988,93.355Zm-5.227,24.578H33v-12.1h3.766Zm-1.882-13.756a2.181,2.181,0,1,1,2.18-2.182A2.18,2.18,0,0,1,34.879,104.177Zm15.967,13.756H47.089v-5.884c0-1.4-.028-3.21-1.956-3.21-1.957,0-2.256,1.529-2.256,3.107v5.986H39.122v-12.1h3.606v1.653h.051a3.952,3.952,0,0,1,3.559-1.954c3.805,0,4.509,2.505,4.509,5.765Z" transform="translate(-25.29 -93.355)" fill="#f3f3f3"/>
</svg>
