<svg id="pinterest" xmlns="http://www.w3.org/2000/svg" xmlns:xlink="http://www.w3.org/1999/xlink" width="32" height="32" viewBox="0 0 32 32">
  <defs>
    <linearGradient id="linear-gradient" x1="0.069" y1="0.248" x2="0.934" y2="0.748" gradientUnits="objectBoundingBox">
      <stop offset="0.206" stop-color="#c35e4e"/>
      <stop offset="1" stop-color="#d60013"/>
    </linearGradient>
  </defs>
  <path id="Rectangle_12" data-name="Rectangle 12" d="M15.794,0h.437A15.357,15.357,0,0,1,31.588,15.357v.437A15.794,15.794,0,0,1,15.794,31.588h0A15.794,15.794,0,0,1,0,15.794v0A15.794,15.794,0,0,1,15.794,0Z" transform="translate(0.206 0.206)" fill="url(#linear-gradient)"/>
  <path id="Path_12" data-name="Path 12" d="M111.106,93.355h-.7a16.047,16.047,0,0,0-16,16h0a16.047,16.047,0,0,0,16,16h0a16.047,16.047,0,0,0,16-16v-.7A15.347,15.347,0,0,0,111.106,93.355Zm1.424,21.878a3.815,3.815,0,0,1-3.265-1.635s-.715,2.72-.887,3.387a14.413,14.413,0,0,1-1.469,3.232.712.712,0,0,1-1.321-.3,12.6,12.6,0,0,1,.1-3.634c.259-1.112,1.67-7.081,1.67-7.081a5.135,5.135,0,0,1-.427-2.115c0-1.98,1.149-3.459,2.578-3.459a1.791,1.791,0,0,1,1.8,2.008c0,1.221-.779,3.049-1.18,4.743a2.068,2.068,0,0,0,2.109,2.573c2.532,0,4.478-2.67,4.478-6.523a5.624,5.624,0,0,0-5.951-5.8,6.167,6.167,0,0,0-6.431,6.183,5.544,5.544,0,0,0,1.06,3.251.424.424,0,0,1,.1.408c-.108.45-.348,1.418-.4,1.616-.062.26-.206.315-.476.19-1.779-.828-2.893-3.429-2.893-5.519,0-4.493,3.266-8.62,9.414-8.62,4.942,0,8.782,3.522,8.782,8.227C119.922,111.282,116.826,115.233,112.53,115.233Z" transform="translate(-94.408 -93.355)" fill="#f3f3f3"/>
</svg>
