<svg id="twitter" xmlns="http://www.w3.org/2000/svg" xmlns:xlink="http://www.w3.org/1999/xlink" width="32" height="32" viewBox="0 0 32 32">
  <defs>
    <linearGradient id="linear-gradient" x1="0.069" y1="0.248" x2="0.934" y2="0.748" gradientUnits="objectBoundingBox">
      <stop offset="0.255" stop-color="#73b2e0"/>
      <stop offset="1" stop-color="#007cc3"/>
    </linearGradient>
  </defs>
  <path id="Rectangle_3" data-name="Rectangle 3" d="M15.794,0h.437A15.357,15.357,0,0,1,31.588,15.357v.437A15.794,15.794,0,0,1,15.794,31.588h0A15.794,15.794,0,0,1,0,15.794v0A15.794,15.794,0,0,1,15.794,0Z" transform="translate(0.206 0.206)" fill="url(#linear-gradient)"/>
  <path id="Path_3" data-name="Path 3" d="M111.106,27.229h-.7a16.047,16.047,0,0,0-16,16h0a16.047,16.047,0,0,0,16,16h0a16.047,16.047,0,0,0,16-16v-.7A15.347,15.347,0,0,0,111.106,27.229Zm8.4,12.431c.009.186.013.374.013.562A12.371,12.371,0,0,1,100.47,50.645a8.788,8.788,0,0,0,6.439-1.8,4.355,4.355,0,0,1-4.063-3.022,4.353,4.353,0,0,0,1.964-.074,4.353,4.353,0,0,1-3.49-4.265c0-.018,0-.037,0-.055a4.309,4.309,0,0,0,1.97.544,4.352,4.352,0,0,1-1.347-5.806,12.351,12.351,0,0,0,8.966,4.544,4.353,4.353,0,0,1,7.413-3.967,8.7,8.7,0,0,0,2.761-1.056,4.366,4.366,0,0,1-1.912,2.406,8.726,8.726,0,0,0,2.5-.685A8.844,8.844,0,0,1,119.5,39.66Z" transform="translate(-94.408 -27.229)" fill="#f3f3f3"/>
</svg>
