<svg id="youtube" xmlns="http://www.w3.org/2000/svg" xmlns:xlink="http://www.w3.org/1999/xlink" width="32" height="32" viewBox="0 0 32 32">
  <defs>
    <linearGradient id="linear-gradient" x1="0.069" y1="0.248" x2="0.934" y2="0.748" gradientUnits="objectBoundingBox">
      <stop offset="0.385" stop-color="#d75544"/>
      <stop offset="1" stop-color="#c4000a"/>
    </linearGradient>
  </defs>
  <path id="Path_7" data-name="Path 7" d="M248.766,59.147h0a15.84,15.84,0,0,1-15.794-15.794h0a15.841,15.841,0,0,1,15.794-15.794h.438A15.4,15.4,0,0,1,264.56,42.916v.437A15.84,15.84,0,0,1,248.766,59.147Z" transform="translate(-232.766 -27.353)" fill="url(#linear-gradient)"/>
  <g id="Group_15" data-name="Group 15">
    <path id="Path_8" data-name="Path 8" d="M255.614,54.123l5.376-2.785-5.376-2.805Z" transform="translate(-241.599 -35.538)" fill="#f3f3f3"/>
    <path id="Path_9" data-name="Path 9" d="M249.34,27.229h-.7a16.047,16.047,0,0,0-16,16h0a16.047,16.047,0,0,0,16,16h0a16.047,16.047,0,0,0,16-16v-.7A15.347,15.347,0,0,0,249.34,27.229ZM258.5,43.967a29.554,29.554,0,0,1-.2,3.162,4.229,4.229,0,0,1-.777,1.94,2.8,2.8,0,0,1-1.958.828c-2.734.2-6.84.2-6.84.2s-5.08-.046-6.643-.2a3.317,3.317,0,0,1-2.155-.835,4.23,4.23,0,0,1-.776-1.94,29.461,29.461,0,0,1-.2-3.162V42.484a29.461,29.461,0,0,1,.2-3.162,4.226,4.226,0,0,1,.776-1.939,2.8,2.8,0,0,1,1.958-.828c2.734-.2,6.836-.2,6.836-.2h.009s4.1,0,6.836.2a2.793,2.793,0,0,1,1.958.828,4.226,4.226,0,0,1,.777,1.939,29.554,29.554,0,0,1,.2,3.162Z" transform="translate(-232.642 -27.229)" fill="#f3f3f3"/>
  </g>
</svg>
