<svg xmlns="http://www.w3.org/2000/svg" width="72" height="72" viewBox="0 0 72 72">
  <g id="Doctor" transform="translate(-0.314 0)">
    <g id="Ellipse_10" data-name="Ellipse 10" transform="translate(0.314 0)" fill="none" stroke="#11157a" stroke-width="2">
      <circle cx="36" cy="36" r="36" stroke="none"/>
      <circle cx="36" cy="36" r="35" fill="none"/>
    </g>
    <g id="Group_63" data-name="Group 63" transform="translate(12.486 9.89)">
      <path id="Path_100" data-name="Path 100" d="M437.356,267.74a3.5,3.5,0,0,0-2.166-2.868c-.852-.307-1-.8-1-1.595a21.994,21.994,0,0,0-1.05-7.16.243.243,0,0,1-.117.089.215.215,0,0,1-.251-.12l-.007,0h-.037l-.034,0c-.027.005-.055.01-.083.017a1.7,1.7,0,0,0-.174.056l-.043.017-.009,0-.083.037c-.057.027-.112.055-.167.085a1.792,1.792,0,0,0-.237.148.153.153,0,0,1-.071.029c1.007,1.652,1.148,4.24,1.21,5.894.044,1.209.15,2.356-1.463,2.8a2.379,2.379,0,0,0-1.442,1.884,42.471,42.471,0,0,0-.79,4.99c-.107,1.25.7,1.879,1.937,1.9.364.005.807.065.858-.494.038-.414-.212-.6-.582-.617-1.155-.061-1.086-.828-.959-1.632.179-1.128.307-2.269.558-3.381a2.4,2.4,0,0,1,2.539-2.086,2.445,2.445,0,0,1,2.469,2.184c.218,1.009.309,2.045.487,3.063.159.906.365,1.8-1.015,1.86-.457.019-.482.35-.449.7.035.367.324.364.592.409a1.858,1.858,0,0,0,2.172-2.168C437.81,270.426,437.613,269.075,437.356,267.74Z" transform="translate(-399.18 -221.753)" fill="#ff7d05"/>
      <path id="Path_101" data-name="Path 101" d="M386.858,265.33c-.411-.257-.9-.368-.879-1.017.059-1.631.009-3.27.153-4.892a6.223,6.223,0,0,1,.5-2.4,1.877,1.877,0,0,1,.206-.218h0c-.035-.009-.071-.016-.106-.022l-.01,0-.058-.007a3.428,3.428,0,0,0-.473-.01c-.277.01-.552.043-.828.071-.745,1.949-.567,4.889-.565,6.936a1.479,1.479,0,0,1-.83,1.559,3.161,3.161,0,1,0,4.425,3.758A3.113,3.113,0,0,0,386.858,265.33Zm-1.39,4.773a1.851,1.851,0,0,1-2.06-1.824,2.019,2.019,0,0,1,1.947-2.147,2.1,2.1,0,0,1,1.994,2.117A1.859,1.859,0,0,1,385.468,270.1Z" transform="translate(-372.583 -222.133)" fill="#ff7d05"/>
      <path id="Path_99" data-name="Path 99" d="M373.615,184.066c.835-2.574,2.455-4.193,5.313-4.283a2.99,2.99,0,0,0,1.262-.261c3.2-1.683,6.371-.989,9.474.172a7.425,7.425,0,0,1,4.572,5.206c.7,2.395.376,4.8.253,7.2a.784.784,0,0,1-.917-.688c-.34-1.76-1.429-1.913-3-1.785a17.25,17.25,0,0,1-11.23-3.262c-1.833-1.236-2.25-1.069-2.851,1.107a11.2,11.2,0,0,1-2.23,4.5c-.206.237-.411.56-.8.4-.287-.121-.3-.421-.323-.693A19.539,19.539,0,0,1,373.615,184.066Zm1.966,16.82a19.548,19.548,0,0,0-2.108-3.809,3.707,3.707,0,0,1-.873-2.412c-.008-.385,0-.945.431-.941,2.423.023,2.786-2.072,3.76-3.542.089-.133.117-.305.2-.447.467-.842.279-2.344,1.087-2.527.7-.159,1.645.859,2.5,1.318a18.288,18.288,0,0,0,9.87,2.326c1.042-.064,1.755.067,2.105,1.192a1.845,1.845,0,0,0,1.46,1.4c1.188.153,1.193.893,1.012,1.776a1.621,1.621,0,0,1-.174.625c-2.086,2.813-2.872,6.415-5.6,8.872a7.376,7.376,0,0,1-4.791,2.132C379.594,206.9,377.38,204.093,375.581,200.885Zm11.3,12.3c-2.409,1.523-4.5,1.383-6.9-.465-1.63-1.252-2.155-3.542-1.375-6.058a10.712,10.712,0,0,0,10.512-.011C389.807,209.93,389.18,211.728,386.881,213.183Zm-5.683,7.923c-.846-.982-1.679-1.976-2.545-2.941a.956.956,0,0,1-.171-1.3c.582-.922.259-1.336-.773-1.534-.557-.107-1.515.123-1.554-.806-.052-1.226-.364-2.51.2-3.677.238-.487.772-.658,1.069.071q2.04,5.012,4.067,10.03Zm2.647,2.408-3.736-9.182a6.987,6.987,0,0,0,7.447-.1Zm7.723-9.055c-.056.967-.965.744-1.521.858-.956.2-1.443.511-.854,1.508a1,1,0,0,1-.147,1.324c-.831.921-1.626,1.874-2.436,2.814l-.359-.224,3.926-9.791c.1-.258.233-.555.556-.475a.968.968,0,0,1,.824.888C391.6,212.393,391.628,213.43,391.569,214.46Zm15.976,14.708a97.591,97.591,0,0,0-1.736-11.458,5.172,5.172,0,0,0-3.465-3.815c-2.954-1.113-5.9-2.255-8.857-3.357a6.9,6.9,0,0,1-2.234-1.319c-.951-.851-1.238-3.607-.354-4.474,2.313-2.271,2.931-5.545,4.874-8.032a2.565,2.565,0,0,0,.459-2.193c-.766-2.572-.219-5.193-.438-7.778a9.242,9.242,0,0,0-7.181-8.693c-2.964-.75-5.989-1.25-8.907.368a3.731,3.731,0,0,1-1.434.247,6.157,6.157,0,0,0-5.365,3.944,14.5,14.5,0,0,0-1.056,6.39c.03,1.3.426,2.688-.053,3.89-.882,2.211-.074,3.921,1.2,5.578a4.624,4.624,0,0,1,.924,1.519,11.135,11.135,0,0,0,2.738,4.581,1.887,1.887,0,0,1,.653,1.253c.12,2.441-.67,3.735-2.985,4.644-2.888,1.134-5.775,2.273-8.686,3.343a5.522,5.522,0,0,0-3.77,4.329c-.749,3.577-1.195,7.71-1.592,11.336-.05.459-.4,1.212.515,1.248.889.035.6-.748.655-1.214.42-3.514.841-7.539,1.569-11.009a4.418,4.418,0,0,1,3-3.546c1.944-.705,3.859-1.489,5.795-2.219.3-.112.611-.376.964-.205a.265.265,0,0,1,.116-.041c.313-.031.625-.07.94-.078a2.005,2.005,0,0,1,.966.153.171.171,0,0,1,.039.034l.079-.044s-.016,1.192,0,2.442c.006.372-.073.94.351.993,1.342.164,1.969.813,1.845,2.179-.011.117.187.256.293.38,1.844,2.149,3.717,4.275,5.522,6.458.765.925,1.272.681,1.921-.1,1.458-1.762,3.014-3.444,4.438-5.233.649-.816,1.956-1.374,1.342-2.861-.159-.386.389-.458.686-.468,1.341-.044,1.584-.843,1.492-1.981a2.665,2.665,0,0,1,.23-1.744l0,0a.3.3,0,0,1,.069-.078,1.789,1.789,0,0,1,.231-.146c.254-.14.76-.38,1.062-.229l0-.006c2.414.923,4.441,1.844,6.556,2.468,2.544.75,3.685,2.4,4.073,4.921.5,3.229.989,6.456,1.33,9.706.048.453-.04,1.087.752.957C407.773,230.1,407.589,229.561,407.545,229.168Z" transform="translate(-360.174 -177.344)" fill="#11157a"/>
    </g>
  </g>
</svg>
