<svg xmlns="http://www.w3.org/2000/svg" width="72" height="72" viewBox="0 0 72 72">
  <g id="Hospital" transform="translate(0.314 0)">
    <g id="Ellipse_10" data-name="Ellipse 10" transform="translate(-0.314 0)" fill="none" stroke="#11157a" stroke-width="2">
      <circle cx="36" cy="36" r="36" stroke="none"/>
      <circle cx="36" cy="36" r="35" fill="none"/>
    </g>
    <g id="Group_68" data-name="Group 68" transform="translate(5.726 8.878)">
      <g id="Group_68-2" data-name="Group 68">
        <path id="Path_106" data-name="Path 106" d="M276.994,313.136q-13.973,0-27.945,0c-.508,0-1.019.015-1.523-.034a.835.835,0,0,1,.008-1.667c.112-.014.226-.009.338-.021,2.63-.279,2.63-.279,2.63-2.889,0-6.323.041-12.646-.03-18.968-.017-1.506.482-1.984,1.952-1.913,2.14.1,4.293-.044,6.433.054,1.238.057,1.51-.407,1.488-1.549-.066-3.33.024-6.662-.046-9.992-.028-1.318.4-1.9,1.744-1.762.615.062,1.248-.047,1.861.021,2.691.3,4.656.124,5.663-3.262.982-3.305,4.919-5.016,8.261-4.625a8.407,8.407,0,0,1,7.489,6.374c.311,1.332.879,1.579,2.05,1.522,1.577-.077,3.163.04,4.741-.037,1.254-.061,1.706.428,1.686,1.667-.05,3.217.049,6.437-.044,9.653-.043,1.468.263,2.132,1.917,2,2.02-.16,4.065.038,6.093-.063,1.431-.071,1.859.475,1.849,1.856-.049,6.662.023,13.324-.055,19.985-.018,1.522.366,2.207,1.948,1.935a4.535,4.535,0,0,1,1.014.012.8.8,0,0,1,.846.859.838.838,0,0,1-.9.827c-.451.015-.9.017-1.354.017Zm-14.948-19.489c0,5.422.032,10.844-.025,16.264-.012,1.169.293,1.581,1.5,1.526,2.086-.1,4.182-.1,6.266,0,1.248.062,1.694-.28,1.64-1.578-.1-2.368.014-4.744-.043-7.114-.03-1.233.425-1.723,1.677-1.7,2.653.056,5.309.051,7.962,0,1.232-.024,1.72.432,1.686,1.691-.066,2.427.038,4.858-.043,7.284-.038,1.139.357,1.447,1.444,1.407a56.315,56.315,0,0,1,6.1.014c1.536.109,1.873-.426,1.864-1.884-.062-9.543-.023-19.088-.042-28.632,0-1.517.634-3.477-.25-4.436-.981-1.065-3-.2-4.545-.376-1.132-.131-1.628.224-1.945,1.433a8.44,8.44,0,0,1-7.764,6.264c-3.395.246-7.147-1.6-8.125-4.907-.83-2.808-2.381-3.017-4.622-2.789a5.843,5.843,0,0,1-1.353,0c-1.144-.153-1.41.362-1.4,1.436C262.071,282.917,262.045,288.282,262.046,293.647Zm-9.819,6.606c0,3.27.031,6.54-.019,9.81-.015.989.216,1.419,1.3,1.371,1.857-.083,3.721-.069,5.58,0,.971.034,1.251-.309,1.246-1.256q-.049-9.809,0-19.62c0-.857-.226-1.213-1.137-1.187-1.916.054-3.835.061-5.75,0-.965-.032-1.257.295-1.242,1.25C252.258,293.825,252.227,297.039,252.226,300.253Zm41.553,0c0,3.27.029,6.541-.018,9.811-.014,1,.251,1.409,1.324,1.363,1.857-.08,3.722-.061,5.581-.006.9.027,1.165-.306,1.162-1.169q-.036-9.9,0-19.793c0-.955-.423-1.112-1.231-1.095-1.86.038-3.723.057-5.582-.006-.963-.033-1.269.3-1.256,1.252C293.807,293.829,293.779,297.043,293.779,300.258Zm-16.686-18.181a6.922,6.922,0,1,0-6.967-6.777A6.87,6.87,0,0,0,277.093,282.077Zm3.89,25.086v-1.522c0-2.833,0-2.876-2.852-2.816-1.612.034-3.728-.73-4.7.328-.951,1.036-.251,3.123-.268,4.746-.037,3.511-.011,3.512,3.509,3.512C280.983,311.411,280.983,311.411,280.983,307.163Z" transform="translate(-246.755 -266.472)" fill="#11157a"/>
        <path id="Path_107" data-name="Path 107" d="M318.688,328.508c.084-.539-.234-1.286.811-1.307,1.12-.023.894.748.915,1.39s.082,1.234-.9,1.222C318.462,329.8,318.756,329.081,318.688,328.508Z" transform="translate(-286.181 -299.757)" fill="#11157a"/>
        <path id="Path_108" data-name="Path 108" d="M333.918,328.32c.1,1.01.026,1.523-.911,1.486-1.072-.043-.723-.8-.755-1.34-.035-.6-.164-1.28.845-1.272C334.255,327.2,333.862,328.046,333.918,328.32Z" transform="translate(-293.599 -299.753)" fill="#11157a"/>
        <path id="Path_109" data-name="Path 109" d="M293.244,328.524c-.087.495.248,1.231-.783,1.29-.944.053-1-.5-.94-1.161.052-.6-.294-1.433.845-1.442C293.336,327.2,293.23,327.861,293.244,328.524Z" transform="translate(-271.282 -299.762)" fill="#11157a"/>
        <path id="Path_110" data-name="Path 110" d="M306.837,328.453c-.02.636.207,1.386-.92,1.363-.908-.018-.832-.6-.789-1.139.046-.586-.349-1.443.813-1.469C306.9,327.187,306.881,327.79,306.837,328.453Z" transform="translate(-278.733 -299.761)" fill="#11157a"/>
        <path id="Path_111" data-name="Path 111" d="M293.242,346.525c0,.372.079,1.016-.88,1-1.119-.023-.8-.844-.833-1.443-.026-.535-.114-1.114.778-1.139C293.4,344.91,293.233,345.626,293.242,346.525Z" transform="translate(-271.284 -309.479)" fill="#11157a"/>
        <path id="Path_112" data-name="Path 112" d="M333.955,346.291c.037.653.057,1.254-.893,1.229-1.152-.03-.763-.875-.812-1.465-.046-.558-.1-1.1.794-1.124C334.18,344.905,333.927,345.661,333.955,346.291Z" transform="translate(-293.6 -309.475)" fill="#11157a"/>
        <path id="Path_113" data-name="Path 113" d="M293.248,310.9c.009.631.062,1.245-.892,1.233-.991-.012-.815-.7-.83-1.279-.015-.615-.086-1.242.88-1.225S293.229,310.307,293.248,310.9Z" transform="translate(-271.289 -290.126)" fill="#11157a"/>
        <path id="Path_114" data-name="Path 114" d="M306.849,310.942c.065.7-.038,1.213-.947,1.187-1.044-.03-.729-.78-.774-1.33-.053-.653-.032-1.228.926-1.178C307.066,309.675,306.8,310.378,306.849,310.942Z" transform="translate(-278.74 -290.12)" fill="#11157a"/>
        <path id="Path_115" data-name="Path 115" d="M318.79,310.526c.021-.123-.341-.875.719-.906.937-.028.986.507.937,1.183-.041.573.212,1.278-.8,1.33C318.686,312.182,318.682,311.61,318.79,310.526Z" transform="translate(-286.211 -290.121)" fill="#11157a"/>
        <path id="Path_116" data-name="Path 116" d="M333.962,310.922c.047.674.029,1.235-.921,1.209-1.044-.029-.752-.761-.789-1.32-.043-.641-.075-1.236.907-1.2C334.193,309.653,333.913,310.359,333.962,310.922Z" transform="translate(-293.606 -290.116)" fill="#11157a"/>
        <path id="Path_117" data-name="Path 117" d="M267.6,328.525c.016.733.057,1.305-.9,1.288-1.141-.02-.8-.814-.848-1.405-.046-.636-.032-1.226.9-1.208C267.874,327.222,267.516,328.039,267.6,328.525Z" transform="translate(-257.213 -299.756)" fill="#11157a"/>
        <path id="Path_118" data-name="Path 118" d="M267.6,346.161c.012.766.066,1.391-.9,1.36-1.131-.036-.806-.852-.844-1.462-.036-.574-.052-1.1.821-1.128C267.8,344.894,267.566,345.653,267.6,346.161Z" transform="translate(-257.212 -309.474)" fill="#11157a"/>
        <path id="Path_119" data-name="Path 119" d="M359.484,328.389c.113.981,0,1.467-.926,1.414-1.062-.061-.7-.822-.743-1.362-.05-.621-.112-1.264.874-1.249C359.874,327.21,359.387,328.092,359.484,328.389Z" transform="translate(-307.612 -299.752)" fill="#11157a"/>
        <path id="Path_120" data-name="Path 120" d="M359.493,346.031c.072.959.049,1.533-.894,1.487-1.155-.057-.724-.907-.789-1.491s-.023-1.084.831-1.1C359.8,344.911,359.445,345.726,359.493,346.031Z" transform="translate(-307.608 -309.474)" fill="#11157a"/>
      </g>
      <path id="Path_121" data-name="Path 121" d="M8.985-14.777v1.608H2.256v-1.608ZM6.466-10.609H4.775v-6.729H6.466Z" transform="translate(24.598 22.63)" fill="#ff7d05"/>
    </g>
  </g>
</svg>
