<svg xmlns="http://www.w3.org/2000/svg" width="72" height="72" viewBox="0 0 72 72">
  <g id="Patient" transform="translate(0.486 0)">
    <g id="Ellipse_10" data-name="Ellipse 10" transform="translate(-0.486 0)" fill="none" stroke="#11157a" stroke-width="2">
      <circle cx="36" cy="36" r="36" stroke="none"/>
      <circle cx="36" cy="36" r="35" fill="none"/>
    </g>
    <g id="Group_67" data-name="Group 67" transform="translate(11.218 8.419)">
      <g id="Group_67-2" data-name="Group 67">
        <path id="Path_102" data-name="Path 102" d="M427.377,429.01c-.408-.247-.6.271-.643,1.422-.036.926-.1,1.843-.15,2.764a26.155,26.155,0,0,1-.511,5.144h1.416a9.761,9.761,0,0,1-.006-2.786c.147-1.526.159-3.16.242-4.741C427.772,429.93,427.736,429.227,427.377,429.01Z" transform="translate(-417.746 -379.002)" fill="#11157a"/>
        <path id="Path_103" data-name="Path 103" d="M493.922,438.984a12.071,12.071,0,0,1-.15-1.761c-.061-2.123-.164-4.23-.248-6.344-.039-.993-.042-2.055-.455-1.916-.478.16-.413,1.292-.376,2.482.078,2.539.5,5.826.16,7.539Z" transform="translate(-453.23 -379.003)" fill="#11157a"/>
        <path id="Path_104" data-name="Path 104" d="M409.263,374.022a1.268,1.268,0,0,1-.049-.651,73.873,73.873,0,0,1,1.81-10.48,4.42,4.42,0,0,1,2.777-3.05c3.608-1.458,7.213-2.923,10.8-4.43a2.208,2.208,0,0,1,2.1.074,11.544,11.544,0,0,0,11.5.045,2.428,2.428,0,0,1,2.268-.056q5.31,2.21,10.665,4.31a4.723,4.723,0,0,1,3.033,3.455,83.467,83.467,0,0,1,1.68,9.983,1.539,1.539,0,0,1-.056.8h1.39a89.567,89.567,0,0,0-1.8-11.067,5.993,5.993,0,0,0-3.936-4.4c-3.58-1.382-7.122-2.859-10.677-4.3-.621-.252-1.313-.389-1.408-1.288-.2-1.913-.768-3.823,1.2-5.32a5.9,5.9,0,0,0,1.619-2.394,17.411,17.411,0,0,1,2.193-4.04,4.226,4.226,0,0,0,1-3.863,13.421,13.421,0,0,1-.368-5.087c.36-7.307-3.6-11.654-10.921-12.194-2.492-.184-4.677.729-7.006,1.166-3.591.674-5.52,2.11-6.552,5.629a20.974,20.974,0,0,0-.562,7.16,5.4,5.4,0,0,1-.082,2.2c-.9,2.231-.074,4.02,1.218,5.736a4.461,4.461,0,0,1,.936,1.419,13.46,13.46,0,0,0,3.267,5.378c1.306,1.434.413,4.845-1.39,5.586-3.337,1.37-6.65,2.806-10.027,4.074a6.468,6.468,0,0,0-4.341,5.084,95.614,95.614,0,0,0-1.576,10.009c-.02.186-.037.349-.051.5l.012.008Zm25.926-18.647c-2.721.975-5.281.3-7.766-.92-.522-.255-.82-.561-.7-1.189.162-.822.276-1.654.424-2.559a11.38,11.38,0,0,0,10.491.032c.123.161.18.2.186.248C438.293,354.629,438.851,354.064,435.189,355.375Zm-13.293-28.7c.907-2.484,2.539-4.023,5.3-4.149a3.277,3.277,0,0,0,1.487-.308c2.425-1.454,4.994-1.067,7.514-.549,4.644.956,6.988,3.644,7.53,8.335a48.479,48.479,0,0,1-.108,5.345c-.578.061-.792-.206-.841-.452-.453-2.267-2-2.2-3.851-2.1a17.975,17.975,0,0,1-11.119-3.414c-1.942-1.3-2.441-1.127-3.03,1.121a11.73,11.73,0,0,1-2.217,4.6c-.21.255-.415.583-.826.511-.439-.077-.471-.446-.483-.787C421.161,332.087,420.925,329.334,421.9,326.674Zm1.962,17.848c-.744-1.332-1.172-2.825-2.235-4.007a3.655,3.655,0,0,1-.842-2.217c-.05-.748-.022-1.4,1.042-1.294.792.082,1.23-.512,1.674-1.039a12.08,12.08,0,0,0,2.424-4.883c.227-.892.445-1.157,1.333-.565a19.664,19.664,0,0,0,12.833,3.509c.745-.062.994.253,1.247.843.413.96.921,1.86,2.141,2,.676.077.774.616.746,1.153a2.316,2.316,0,0,1-.249,1.158c-2.12,3.012-3,6.774-5.86,9.361a7.557,7.557,0,0,1-5.368,2.2C428.075,350.868,425.748,347.906,423.858,344.522Z" transform="translate(-407.916 -320.041)" fill="#11157a"/>
      </g>
      <path id="Path_105" data-name="Path 105" d="M6.807-11.195v1.218h-5.1v-1.218ZM4.9-8.037H3.617v-5.1H4.9Z" transform="translate(13.597 57.2)" fill="#ff7d05"/>
    </g>
  </g>
</svg>
