<svg xmlns="http://www.w3.org/2000/svg" width="91" height="91" viewBox="0 0 91 91">
  <g id="allergies" transform="translate(-288 -448)">
    <g id="Ellipse_5" data-name="Ellipse 5" transform="translate(288 448)" fill="#fff" stroke="#4c4f9b" stroke-width="1" opacity="0.15">
      <circle cx="45.5" cy="45.5" r="45.5" stroke="none"/>
      <circle cx="45.5" cy="45.5" r="45" fill="none"/>
    </g>
    <g id="Allergies-2" data-name="Allergies" transform="translate(233.573 398.195)" opacity="0.7">
      <path id="Path_1" data-name="Path 1" d="M84.077,105.2c-10.459-.075-15.651-9.206-10.969-18.841a21.134,21.134,0,0,1,3.689-5,26.057,26.057,0,0,0,7.1-16.224c.067-.938-.524-2.592,1.257-2.431,1.653.148.985,1.71.939,2.657a27.443,27.443,0,0,1-7.9,17.92,15.586,15.586,0,0,0-4.343,8.3,9.36,9.36,0,0,0,9.268,11.288,2.455,2.455,0,0,1,.654.013c1.256.414,3.664-1.061,3.6,1.306C87.309,106.225,85.009,104.663,84.077,105.2Z" transform="translate(0 -0.001)" fill="#11157a" stroke="#11157a" stroke-miterlimit="10" stroke-width="1"/>
      <path id="Path_2" data-name="Path 2" d="M122.825,105.191a.921.921,0,0,1-.327-.005c-1.066-.427-3.094.966-3.163-1.089-.07-2.124,1.988-1.153,3.055-1.178,8.712-.2,12.994-6.878,9.471-14.876a18.2,18.2,0,0,0-3.591-5.059,28.219,28.219,0,0,1-7.659-17.745c-.068-.924-.711-2.483,1.057-2.552,1.829-.071,1.134,1.546,1.2,2.465A25.95,25.95,0,0,0,130.2,81.609a17.361,17.361,0,0,1,4.7,8.505C136.744,98.751,131.633,105.15,122.825,105.191Z" transform="translate(-5.851 0)" fill="#11157a" stroke="#11157a" stroke-miterlimit="10" stroke-width="1"/>
      <path id="Path_3" data-name="Path 3" d="M101.673,109.457c-5.236-.324-9.593-2.314-12.588-6.711-1.248-1.833-2.58-3.243-4.978-3.176-.781.022-1.6-.056-1.545-1.186s.906-1.06,1.666-1.081c2.475-.07,4.638.723,5.881,2.919a13.381,13.381,0,0,0,23.313.12,6.171,6.171,0,0,1,5.826-3.041c.744.01,1.635-.116,1.755.988.116,1.076-.624,1.307-1.459,1.279-2.4-.081-3.724,1.341-4.978,3.168C111.48,107.228,107.016,109.224,101.673,109.457Z" transform="translate(-1.364 -4.223)" fill="#11157a" stroke="#11157a" stroke-miterlimit="10" stroke-width="1"/>
      <path id="Path_4" data-name="Path 4" d="M89.257,115.081c2.213,3.922,4.34,7.336,6.1,10.929a6.411,6.411,0,0,1-2.054,7.936,6.863,6.863,0,0,1-8.249-.122,6.484,6.484,0,0,1-1.825-8C84.986,122.325,87.053,118.976,89.257,115.081Zm4.411,13.669c-.026-1.635-3.7-8.339-4.294-8.034-2.057,1.064-2.39,3.471-3.63,5.2a4.823,4.823,0,0,0-.764,1.785,4.118,4.118,0,0,0,1.642,4.329,3.969,3.969,0,0,0,4.587.44A4.3,4.3,0,0,0,93.668,128.75Z" transform="translate(-1.363 -6.392)" fill="#fb0" stroke="#fb0" stroke-miterlimit="10" stroke-width="1"/>
      <path id="Path_5" data-name="Path 5" d="M117.843,115.111c2.184,3.8,4.194,7.056,5.95,10.439a6.583,6.583,0,0,1-1.757,8.3,6.887,6.887,0,0,1-8.259.073,6.544,6.544,0,0,1-1.918-8.251C113.595,122.265,115.618,119,117.843,115.111ZM122.231,128c-.772-2.421-1.848-5.821-4.207-6.924-1.591-.745-2.376,3.206-3.723,4.909a4.127,4.127,0,0,0-.685,1.473,4.084,4.084,0,0,0,1.393,4.41,4.007,4.007,0,0,0,4.846.572A4.49,4.49,0,0,0,122.231,128Z" transform="translate(-4.85 -6.396)" fill="#fb0" stroke="#fb0" stroke-miterlimit="10" stroke-width="1"/>
      <path id="Path_6" data-name="Path 6" d="M110.9,66.65c.7-1.3-.867-3.8,1.234-3.812,2.422-.013.9,2.523,1.2,3.888a42.369,42.369,0,0,1,.427,4.85c.083.84.558,1.845-.824,1.98-1.253.121-1.289-.914-1.4-1.765C111.3,70.074,111.11,68.351,110.9,66.65Z" transform="translate(-4.822 -0.019)" fill="#11157a" stroke="#11157a" stroke-miterlimit="10" stroke-width="1"/>
      <path id="Path_7" data-name="Path 7" d="M105.9,97.952c-1.1-.24-2.458.413-2.442-1.222.013-1.324,1.2-.96,1.989-1.121,1.178-.242,2.361-.464,3.535-.724.836-.186,1.785-.71,2.114.621.321,1.3-.848,1.383-1.588,1.616C108.263,97.514,106.959,97.717,105.9,97.952Z" transform="translate(-3.914 -3.897)" fill="#11157a" stroke="#11157a" stroke-miterlimit="10" stroke-width="1"/>
    </g>
  </g>
</svg>
