<svg xmlns="http://www.w3.org/2000/svg" width="91" height="91" viewBox="0 0 91 91">
  <g id="cardiology" transform="translate(-492 -346)">
    <g id="Ellipse_10" data-name="Ellipse 10" transform="translate(492 346)" fill="#fff" stroke="#4c4f9b" stroke-width="1" opacity="0.15">
      <circle cx="45.5" cy="45.5" r="45.5" stroke="none"/>
      <circle cx="45.5" cy="45.5" r="45" fill="none"/>
    </g>
    <g id="Cardiology-2" data-name="Cardiology" transform="translate(355.682 298.888)" opacity="0.7">
      <path id="Path_8" data-name="Path 8" d="M185.111,64.9a21.3,21.3,0,0,0,4.061-4.975c.62-.862.6-2.551,2.177-2.323a35.164,35.164,0,0,1,5.821,1.354c.826.27.158,1.117-.057,1.629a23.7,23.7,0,0,1-4.129,6.7c-1.23,1.376-1.393,2.39.01,3.683,1.957,1.8,1.263,2.74-1.059,3.468-2.426.76-4.386,2.156-6.913-.5-2.024-2.13-4.81-.8-6.745,1.123-3.334,3.306-4.186,7.461-3.5,11.955.354,2.315.414,4.241-2.53,4.746s-4.861-.792-5.486-3.651c-1.644-7.518,1.642-18.754,9.828-21.541,2.75-.936,2.3-4,2.423-6.353.2-3.834,1.591-4.878,5.373-3.954,1.088.265,1.27.921,1.341,1.81A20.1,20.1,0,0,1,185.111,64.9Z" transform="translate(-1.752 0)" fill="#fb0"/>
      <path id="Path_9" data-name="Path 9" d="M161.567,85.092a6.836,6.836,0,0,1-1.31,5.587,8.326,8.326,0,0,0-1.806,4.326c-.185,1.467-.994,3.179,2.01,2.29,1.689-.5,1.907,1.053,1.319,2.513-2.808,6.978-1.845,11.518,3.627,16.658,4.221,3.966,7.983,8.413,12.558,12.005,4.253,3.339,6.652,3.473,10.522-.333,6.179-6.078,9.953-13.1,6.678-22.121a3.014,3.014,0,0,1,.372-2.945c3.448-5.365,3.446-5.526,1.551-11.34,2.716-1.068,3.818.2,4.3,2.77a11.146,11.146,0,0,1-1.891,8.7,4,4,0,0,0-.533,3.774c2.484,9.189-3.293,21.773-11.813,26.1a8.375,8.375,0,0,1-8.7-.274,38.388,38.388,0,0,1-6.853-5.564c-3.086-3.022-6.17-6.046-9.191-9.132-3.688-3.768-5.906-8.191-5.545-13.606a7.483,7.483,0,0,0-.8-3.614C153.63,95.3,156.072,88.316,161.567,85.092Z" transform="translate(0 -4.546)" fill="#11157a"/>
      <path id="Path_10" data-name="Path 10" d="M190.3,118.616c-.793,1.556-1.547,3.136-2.4,4.661-.422.758-.7,2.21-1.868,1.643-1.385-.672-.307-1.819.094-2.7,1.175-2.573,2.405-5.119,3.98-8.451-2.815,1.412-4.869,2.485-6.965,3.471-.82.386-2,1.033-2.524-.046-.625-1.276.818-1.469,1.6-1.8a24.055,24.055,0,0,0,6.981-4.243c2.327-2.124,3.12-5.252,1.144-7.618-2.008-2.405-1.638-4.813-1.89-7.519-.411-4.436,1.844-6.131,5.3-7.583a26.558,26.558,0,0,1,17.324-1c.919.233,2.543.21,2.221,1.626-.351,1.545-1.744.625-2.645.386a23.8,23.8,0,0,0-17.5,1.6c-1.779.9-2.849,1.96-2.539,4.121.324,2.264-1.477,5.159,2.136,6.377a7.937,7.937,0,0,1,2.351,1.573c.652.544.8,1.729-.072,1.661-2.6-.205-1.408,1.55-1.636,2.614a29.138,29.138,0,0,0-.206,13.089c.231.966.447,2.839-1.02,2.881-1.848.052-.7-1.764-.949-2.731a14.491,14.491,0,0,1-.244-1.824Z" transform="translate(-3.954 -4.757)" fill="#11157a"/>
      <path id="Path_11" data-name="Path 11" d="M184.741,80.229c1.547-.658,2.517-.14,2.963.879,1.005,2.291,2.322,1.582,3.989.824,6.816-3.1,13.851-3.146,20.958-1.128.806.229,2.248.287,1.84,1.615-.38,1.242-1.617.61-2.439.378-7.633-2.155-14.988-1.633-21.986,2.244-1.4.778-2.281.636-3.006-.877C186.433,82.856,185.59,81.651,184.741,80.229Z" transform="translate(-4.62 -3.662)" fill="#11157a"/>
      <path id="Path_12" data-name="Path 12" d="M179.828,85.558c2.108,3.728,2.342,7.561,2.125,11.472a2.431,2.431,0,0,1-2.07,2.449c-1.621.234-3.477.922-4.883,0-1.03-.674.093-1.287.912-1.61,1.241-.49,3.062.284,3.76-1.032.912-1.718.184-3.7-.049-5.555C179.4,89.465,178.325,87.65,179.828,85.558Z" transform="translate(-3.037 -4.619)" fill="#fb0"/>
      <path id="Path_13" data-name="Path 13" d="M169.356,68.66c-1.677,1.393-6.372,1.293-7.135.218a1.043,1.043,0,0,1-.18-.816c.263-.7.884-.785,1.541-.69.409.059.819.123,1.221.216C166.208,67.911,167.609,68.247,169.356,68.66Z" transform="translate(-1.075 -1.777)" fill="#fb0"/>
      <path id="Path_14" data-name="Path 14" d="M162.333,76.333c-1.117-.535-2.878-.11-4.014-1.392a.69.69,0,0,1,.319-1.042c1.572-.6,3.013.2,4.486.548.627.149,1.618.11,1.265,1.26C164.1,76.64,163.362,76.567,162.333,76.333Z" transform="translate(-0.478 -2.767)" fill="#fb0"/>
    </g>
  </g>
</svg>
