<svg xmlns="http://www.w3.org/2000/svg" width="91" height="91" viewBox="0 0 91 91">
  <g id="cosmetology" transform="translate(-98 -350)">
    <g id="Ellipse_1" data-name="Ellipse 1" transform="translate(98 350)" fill="#fff" stroke="#4c4f9b" stroke-width="1" opacity="0.15">
      <circle cx="45.5" cy="45.5" r="45.5" stroke="none"/>
      <circle cx="45.5" cy="45.5" r="45" fill="none"/>
    </g>
    <g id="cosmetology-2" data-name="cosmetology" transform="translate(114.588 365.925)" opacity="0.7">
      <path id="Shape" d="M9.287,41.22,6.828,35.48A3.431,3.431,0,1,0,.55,38.252C5.081,48.218,5.3,49.3,7.314,51.309l8.052,8.052a.994.994,0,0,0,.7.291H26.843a.994.994,0,0,0,.994-.994,25.061,25.061,0,0,0-.329-6.03,14.011,14.011,0,0,0,2.646,0c-.428,1.82-.329,2.936-.329,6.029a.994.994,0,0,0,.994.992H41.6a.994.994,0,0,0,.7-.291l8.052-8.052c2.006-2.007,2.166-2.953,6.763-13.057a3.434,3.434,0,0,0-6.284-2.769l-2.459,5.74a5.048,5.048,0,0,0-3.959-.779,29.824,29.824,0,0,0,1.17-3.46c1.973-.4,6.754-2.13,6.754-9.644,0-2.546-.443-5.683-2.975-6.03A27.028,27.028,0,0,0,53.387,2.593l-.4-1.814A.994.994,0,0,0,52.013,0H5.652a.994.994,0,0,0-.973.779L4.262,2.667A26.987,26.987,0,0,0,8.3,21.324c-2.507.376-2.942,3.5-2.942,6.023,0,7.515,4.785,9.245,6.763,9.643A30.068,30.068,0,0,0,13.3,40.459a5.038,5.038,0,0,0-4.006.765ZM25.848,57.66H16.473L8.719,49.9C7.1,48.284,7.1,47.851,2.364,37.429A1.443,1.443,0,1,1,5,36.264c4.027,9.4,2.461,7.109,10.358,15.011a1,1,0,1,0,1.409-1.409c-5.448-5.448-5.7-5.6-6.533-6.868a3.013,3.013,0,0,1,3.842-.006,23.672,23.672,0,0,0,7.064,4.473c2.325.772,4.711,3.786,4.711,8Zm.952-7.133a8.886,8.886,0,0,0-5.033-4.945A19.539,19.539,0,0,1,16.4,42.321c-3.416-6.052-3.851-13.347-3.86-20.3,2.107-3.712,7.632-12.275,16.292-17.5,8.68,5.26,14.216,13.839,16.33,17.561-.016,7.058-.438,14.017-3.809,20.168A19.758,19.758,0,0,1,35.9,45.582a8.9,8.9,0,0,0-5.039,4.956,13.321,13.321,0,0,1-4.06-.007ZM47.431,43c-.826,1.266-1.065,1.4-6.533,6.868a1,1,0,0,0,1.409,1.409c7.822-7.821,6.329-5.6,10.358-15.006a1.443,1.443,0,1,1,2.64,1.165c-4.667,10.266-4.7,10.811-6.353,12.47l-7.76,7.76H31.814v-2.19A9.562,9.562,0,0,1,33.793,49.5c2.332-2.912,3.075-.845,9.8-6.5a3.013,3.013,0,0,1,3.842,0Zm2.921-15.661c0,5.006-2.426,6.8-4.227,7.439a57.161,57.161,0,0,0,1-10.738c.92-.658,1.735-.925,2.187-.706.243.117,1.042.751,1.042,4.005Zm.866-25.351a24.665,24.665,0,0,1-4.076,19.064c-.094-7.421-2.056-12.512-6-15.529A1,1,0,1,0,39.939,7.1c2.874,2.2,4.521,5.795,5.035,10.885-3.99-6.059-10.146-12.5-16.57-16Zm-44.772,0H20.005A25.888,25.888,0,0,0,14.14,7.327.995.995,0,0,0,15.693,8.57a24.048,24.048,0,0,1,8.2-6.5,31.224,31.224,0,0,1,2.962,1.349c-8.345,5.372-13.674,13.4-16.176,17.859A24.6,24.6,0,0,1,6.45,1.989Zm.9,25.351c0-3.254.8-3.892,1.044-4.009.443-.214,1.276.063,2.187.706a57.177,57.177,0,0,0,1,10.743C9.777,34.14,7.343,32.35,7.343,27.336Z" transform="translate(0 0)" fill="#11157a" stroke="#11157a" stroke-width="1"/>
      <path id="Shape-2" data-name="Shape" d="M17.439,21.721a4.348,4.348,0,0,1,3.339-.237l3.856,1.29a1,1,0,0,0,.628-1.889L21.406,19.6a6.325,6.325,0,0,0-4.856.345.994.994,0,0,0,.889,1.778Z" transform="translate(-0.093 -0.114)" fill="#ffcc3f" stroke="#ffcc3f" stroke-width="0.2"/>
      <path id="Shape-3" data-name="Shape" d="M32.994,22.82c.232,0,0,.054,4.176-1.336a4.339,4.339,0,0,1,3.339.237.994.994,0,1,0,.886-1.778,6.328,6.328,0,0,0-4.857-.345l-3.851,1.285a.994.994,0,0,0,.309,1.938Z" transform="translate(-0.186 -0.113)" fill="#ffcc3f" stroke="#ffcc3f" stroke-width="0.2"/>
      <path id="Shape-4" data-name="Shape" d="M24.881,26.67a.994.994,0,0,0-1.259-.622c-.035.011-3.425,1.116-6.043-.845a.994.994,0,0,0-1.293.094A2.472,2.472,0,0,1,14.994,26a.994.994,0,0,0,0,1.989,3.7,3.7,0,0,0,2.047-.751c.15.094.3.169.451.245a1.76,1.76,0,0,1-.51.507.994.994,0,0,0-.994.994c0,1.221,1.836,1.691,3.452-.814a9.76,9.76,0,0,0,4.823-.234.994.994,0,0,0,.617-1.26Z" transform="translate(-0.081 -0.147)" fill="#ffcc3f" stroke="#ffcc3f" stroke-width="0.2"/>
      <path id="Shape-5" data-name="Shape" d="M40.353,25.2c-2.606,1.954-5.973.872-6.042.845a.994.994,0,1,0-.643,1.879,9.742,9.742,0,0,0,4.823.234c.505.784,1.371,1.808,2.458,1.808a1.011,1.011,0,0,0,1.016-.994.973.973,0,0,0-.973-.994,1.638,1.638,0,0,1-.549-.514c.149-.076.3-.154.447-.243a3.7,3.7,0,0,0,2.047.757.994.994,0,0,0,0-1.989,2.468,2.468,0,0,1-1.285-.7.994.994,0,0,0-1.3-.094Z" transform="translate(-0.189 -0.147)" fill="#ffcc3f" stroke="#ffcc3f" stroke-width="0.2"/>
      <path id="Shape-6" data-name="Shape" d="M25.442,34.821a6.356,6.356,0,0,0,7.069,0,.994.994,0,1,0-1.1-1.654,4.375,4.375,0,0,1-4.861,0,.994.994,0,0,0-1.1,1.654Z" transform="translate(-0.146 -0.193)" fill="#ffcc3f" stroke="#ffcc3f" stroke-width="0.2"/>
      <path id="Shape-7" data-name="Shape" d="M34.93,40.783a1.207,1.207,0,0,0-1.293-1.193c-.824,0-3.263-1.59-4.672-1.59-1.428,0-3.834,1.59-4.668,1.59A1.208,1.208,0,0,0,23,40.783c0,1.4,2.809,3.182,5.965,3.182S34.93,42.186,34.93,40.783Zm-5.965-.8a18.677,18.677,0,0,1,3.107,1.221,6.67,6.67,0,0,1-6.213,0,18.478,18.478,0,0,1,3.106-1.22Z" transform="translate(-0.133 -0.223)" fill="#ffcc3f" stroke="#ffcc3f" stroke-width="0.2"/>
      <path id="Shape-8" data-name="Shape" d="M29.982,46H27.994a.994.994,0,1,0,0,1.989h1.989a.994.994,0,1,0,0-1.989Z" transform="translate(-0.157 -0.27)" fill="#ffcc3f" stroke="#ffcc3f" stroke-width="0.2"/>
      <circle id="Oval" cx="0.994" cy="0.994" r="0.994" transform="translate(10.937 9.941)" stroke="#11157a" stroke-width="1"/>
    </g>
  </g>
</svg>
