<svg xmlns="http://www.w3.org/2000/svg" width="91" height="91" viewBox="0 0 91 91">
  <g id="ct-surgery" transform="translate(-494 -449)">
    <g id="Ellipse_9" data-name="Ellipse 9" transform="translate(494 449)" fill="#fff" stroke="#4c4f9b" stroke-width="1" opacity="0.15">
      <circle cx="45.5" cy="45.5" r="45.5" stroke="none"/>
      <circle cx="45.5" cy="45.5" r="45" fill="none"/>
    </g>
    <g id="ct-surgery-2" data-name="ct-surgery" transform="translate(1078.349 -826.906)" opacity="0.7">
      <path id="Path_139" data-name="Path 139" d="M-566.755,1346.1c-3.763-.063-4.1-.523-3.13-3.254q4.172-11.7,8.373-23.383c.366-1.014.4-2.507,2.258-1.783.74.287.951-.467,1.183-1.006a1.028,1.028,0,0,0,.048-1.005,1.028,1.028,0,0,0-.833-.565c-2.159-.516-1.8-1.753-1.212-3.333,2.669-7.2,5.294-14.434,7.824-21.692.678-1.945,1.4-2.728,3.575-1.763a75.573,75.573,0,0,0,8.364,2.933c1.514.468,1.754,1.233,1.246,2.621-2.844,7.775-5.675,15.554-8.428,23.36-.526,1.49-1.2,1.848-2.57,1.109-.645-.351-1.352-.419-1.72.462-.274.653-.582,1.426.314,1.762,1.229.461,1.009,1.265.7,2.141-2.043,5.758-3.782,11.651-7.239,16.785C-560.3,1342.919-563.015,1345.854-566.755,1346.1Zm25.387-51.774c.256-1.205-.513-1.484-1.275-1.755a34.443,34.443,0,0,1-4.434-1.605c-2.473-1.29-3.4-.323-4.156,2.052-1.433,4.5-3.149,8.905-4.782,13.333-2.611,7.089-2.6,7.019,4.573,9.42,1.818.609,2.413.062,2.968-1.559,1.655-4.839,3.457-9.632,5.191-14.445.668-1.847,1.307-3.708,1.915-5.439Zm-17.239,25.788c-1.02-.184-1.254.652-1.515,1.371q-3.77,10.381-7.509,20.776c-.71,1.969.39,2.007,1.785,1.6,2.508-.729,4.115-2.607,5.591-4.592,3.45-4.657,5.146-10.123,7.048-15.492.291-.822.375-1.576-.613-1.949-1.567-.589-3.144-1.127-4.787-1.718Z" transform="translate(0)" fill="#11157a" stroke="#11157a" stroke-width="1"/>
      <path id="Path_140" data-name="Path 140" d="M-502.292,1349.436a7.779,7.779,0,0,1,3.917-6.978,7.779,7.779,0,0,1,8,.168,2.889,2.889,0,0,0,3.647-.021,7.271,7.271,0,0,1,8.59.292,7.621,7.621,0,0,1,3.2,8.027c-.86,5.345-4.307,8.987-8.357,12.1-6.327,4.865-4.6,4.286-10.537.009a22.5,22.5,0,0,1-6.808-7.69,11.993,11.993,0,0,1-1.651-5.909Zm13.812-2.365c-1.342-1.531-2.548-3.172-4.623-3.576a5.7,5.7,0,0,0-5.844,1.983c-1.955,2.345-1.794,4.914-.677,7.509,2.033,4.731,5.856,7.836,9.9,10.722a1.524,1.524,0,0,0,1.906.215c4.74-3.3,9.321-6.781,10.883-12.749a6.1,6.1,0,0,0-3.175-7.25c-2.7-1.3-5.342-.56-7.565,2.118l-.805,1.039Z" transform="translate(-27.57 -21.65)" fill="#11157a" stroke="#11157a" stroke-width="1"/>
      <path id="Path_141" data-name="Path 141" d="M-523.9,1368.954a8.645,8.645,0,0,1,1.1,1.327c1.659,3.326,4.263,4.612,7.943,3.978.79-.136,2.275-.569,2.313.953.04,1.6-1.439,1-2.258.992-2.931-.045-6.22.954-8.081-2.6-.617-1.183-1.123-.469-1.668.257-.985,1.311-1.419,3.03-3.106,4.2l-3.91-11.075-.663-.073-4.1,12.977c-1.366-2.38-2.542-4.283-3.565-6.263-.872-1.689-1.8-2.565-2.943-.359-1.2,2.317-3.226,1.811-5.138,1.81-.514,0-.968-.152-1.015-.79-.043-.583.265-1.09.787-1.012,3.978.6,4.682-3.286,7.192-5.239l4.193,6.8,4.932-15.381c1.344,4.068,2.393,7.365,3.536,10.631.366,1.045.2,2.761,1.523,2.866,1.033.082,1.29-1.557,1.916-2.417C-524.625,1370.148-524.384,1369.717-523.9,1368.954Z" transform="translate(-8.652 -28.989)" fill="#fb0"/>
      <path id="Path_142" data-name="Path 142" d="M-553.359,1348.634c-.378,1.093-.878,2.581-1.409,4.049-1.027,2.853-2.057,5.705-3.118,8.545-.194.518-.42,1.166-1.247.829-.7-.286-.762-.8-.538-1.43q2.258-6.362,4.526-12.723c.182-.51.5-.854,1.084-.724C-553.538,1347.3-553.209,1347.623-553.359,1348.634Z" transform="translate(-4.278 -24.001)" fill="#fb0"/>
    </g>
  </g>
</svg>
