<svg xmlns="http://www.w3.org/2000/svg" width="91" height="91" viewBox="0 0 91 91">
  <g id="dermatology" transform="translate(-597 -453)">
    <g id="Ellipse_12" data-name="Ellipse 12" transform="translate(597 453)" fill="#fff" stroke="#4c4f9b" stroke-width="1" opacity="0.15">
      <circle cx="45.5" cy="45.5" r="45.5" stroke="none"/>
      <circle cx="45.5" cy="45.5" r="45" fill="none"/>
    </g>
    <g id="dermatology-2" data-name="dermatology" transform="translate(613 467.982)" opacity="0.7">
      <path id="Shape" d="M59,29a1,1,0,0,0,0-2H47a2,2,0,0,0-2,2c0,3.281-.278,5.687,1.756,8.571A12.174,12.174,0,0,1,49,44a6,6,0,0,1-12,0,12.176,12.176,0,0,1,2.248-6.434C41.268,34.7,41,32.266,41,29a2,2,0,0,0-2-2H24.847c1.334-.8.511-.2,12.458-10.281l.847.847a11.549,11.549,0,0,1,.617,2.194,10.329,10.329,0,0,0,2.4,5.07,4,4,0,1,0,5.657-5.657,10.28,10.28,0,0,0-5.045-2.4,11.732,11.732,0,0,1-2.219-.621l-.727-.728L47.4,8.2a4,4,0,1,0-4.845-6.365L21.266,19.8a6.033,6.033,0,0,1-3.6,1.2H2a2,2,0,0,0-2,2v5a1,1,0,0,0,1,1H13a28.1,28.1,0,0,1-.075,4H1a1,1,0,0,0,0,2H12.376a7.5,7.5,0,0,1-.76,1.41A14.114,14.114,0,0,0,9,44a8,8,0,1,0,16,0,14.11,14.11,0,0,0-2.613-7.586A7.544,7.544,0,0,1,21.624,35H38.376a7.5,7.5,0,0,1-.76,1.41A14.114,14.114,0,0,0,35,44a8,8,0,1,0,16,0,14.11,14.11,0,0,0-2.613-7.586A7.544,7.544,0,0,1,47.624,35H59a1,1,0,0,0,0-2H47.075A28.929,28.929,0,0,1,47,29ZM41.45,18.745a8.339,8.339,0,0,1,3.966,1.842,2,2,0,1,1-2.829,2.829,8.393,8.393,0,0,1-1.847-3.992q-.075-.433-.178-.863Q41,18.668,41.45,18.745ZM2,27V23H17.667a8.075,8.075,0,0,0,4.844-1.636L43.8,3.4a2,2,0,1,1,2.355,3.236l-9.187,7.752a1,1,0,0,0-.355.225c-.574.573,2.579-2.1-11.747,9.987a12.074,12.074,0,0,1-7.2,2.4ZM16.517,39.872q.253-.36.483-.736.237.386.5.757A8.33,8.33,0,0,1,19,44a2,2,0,0,1-4,0,8.374,8.374,0,0,1,1.517-4.128ZM23,44a6,6,0,0,1-12,0,12.176,12.176,0,0,1,2.248-6.434C15.268,34.7,15,32.266,15,29h1v7.729a11.579,11.579,0,0,1-1.115,1.986A10.324,10.324,0,0,0,13,44a4,4,0,0,0,8,0,10.281,10.281,0,0,0-1.87-5.264A11.769,11.769,0,0,1,18,36.729V28.986c1.161-.028,1-.121,1,.014,0,3.281-.278,5.687,1.756,8.571A12.174,12.174,0,0,1,23,44ZM21.075,33A28.929,28.929,0,0,1,21,29H39a28.1,28.1,0,0,1-.075,4Z" fill="#11157a"/>
      <path id="Shape-2" data-name="Shape" d="M56.929,12.372a1,1,0,0,0-.557-1.3l-5-2A1,1,0,0,0,50.02,9.8l-1,5a1,1,0,1,0,1.96.392l.591-2.951C52.62,13.912,54,17.206,54,23a1,1,0,0,0,2,0,23.658,23.658,0,0,0-2.157-10.785l1.785.714a1.006,1.006,0,0,0,1.3-.557Z" fill="#fb0"/>
      <circle id="Oval" cx="1" cy="1" r="1" transform="translate(5 37)" fill="#fb0"/>
      <circle id="Oval-2" data-name="Oval" cx="1" cy="1" r="1" transform="translate(2 41)" fill="#fb0"/>
      <circle id="Oval-3" data-name="Oval" cx="1" cy="1" r="1" transform="translate(5 45)" fill="#fb0"/>
      <circle id="Oval-4" data-name="Oval" cx="1" cy="1" r="1" transform="translate(2 49)" fill="#fb0"/>
      <circle id="Oval-5" data-name="Oval" cx="1" cy="1" r="1" transform="translate(8 49)" fill="#fb0"/>
      <circle id="Oval-6" data-name="Oval" cx="1" cy="1" r="1" transform="translate(5 53)" fill="#fb0"/>
      <circle id="Oval-7" data-name="Oval" cx="1" cy="1" r="1" transform="translate(11 53)" fill="#fb0"/>
      <circle id="Oval-8" data-name="Oval" cx="1" cy="1" r="1" transform="translate(17 53)" fill="#fb0"/>
      <circle id="Oval-9" data-name="Oval" cx="1" cy="1" r="1" transform="translate(23 53)" fill="#fb0"/>
      <circle id="Oval-10" data-name="Oval" cx="1" cy="1" r="1" transform="translate(29 53)" fill="#fb0"/>
      <circle id="Oval-11" data-name="Oval" cx="1" cy="1" r="1" transform="translate(29 45)" fill="#fb0"/>
      <circle id="Oval-12" data-name="Oval" cx="1" cy="1" r="1" transform="translate(29 37)" fill="#fb0"/>
      <circle id="Oval-13" data-name="Oval" cx="1" cy="1" r="1" transform="translate(53 37)" fill="#fb0"/>
      <circle id="Oval-14" data-name="Oval" cx="1" cy="1" r="1" transform="translate(56 41)" fill="#fb0"/>
      <circle id="Oval-15" data-name="Oval" cx="1" cy="1" r="1" transform="translate(53 45)" fill="#fb0"/>
      <circle id="Oval-16" data-name="Oval" cx="1" cy="1" r="1" transform="translate(56 49)" fill="#fb0"/>
      <circle id="Oval-17" data-name="Oval" cx="1" cy="1" r="1" transform="translate(50 49)" fill="#fb0"/>
      <circle id="Oval-18" data-name="Oval" cx="1" cy="1" r="1" transform="translate(53 53)" fill="#fb0"/>
      <circle id="Oval-19" data-name="Oval" cx="1" cy="1" r="1" transform="translate(47 53)" fill="#fb0"/>
      <circle id="Oval-20" data-name="Oval" cx="1" cy="1" r="1" transform="translate(41 53)" fill="#fb0"/>
      <circle id="Oval-21" data-name="Oval" cx="1" cy="1" r="1" transform="translate(35 53)" fill="#fb0"/>
      <circle id="Oval-22" data-name="Oval" cx="1" cy="1" r="1" transform="translate(2 57)" fill="#fb0"/>
      <circle id="Oval-23" data-name="Oval" cx="1" cy="1" r="1" transform="translate(8 57)" fill="#fb0"/>
      <circle id="Oval-24" data-name="Oval" cx="1" cy="1" r="1" transform="translate(14 57)" fill="#fb0"/>
      <circle id="Oval-25" data-name="Oval" cx="1" cy="1" r="1" transform="translate(20 57)" fill="#fb0"/>
      <circle id="Oval-26" data-name="Oval" cx="1" cy="1" r="1" transform="translate(26 57)" fill="#fb0"/>
      <circle id="Oval-27" data-name="Oval" cx="1" cy="1" r="1" transform="translate(50 57)" fill="#fb0"/>
      <circle id="Oval-28" data-name="Oval" cx="1" cy="1" r="1" transform="translate(56 57)" fill="#fb0"/>
      <circle id="Oval-29" data-name="Oval" cx="1" cy="1" r="1" transform="translate(44 57)" fill="#fb0"/>
      <circle id="Oval-30" data-name="Oval" cx="1" cy="1" r="1" transform="translate(38 57)" fill="#fb0"/>
      <circle id="Oval-31" data-name="Oval" cx="1" cy="1" r="1" transform="translate(32 57)" fill="#fb0"/>
      <circle id="Oval-32" data-name="Oval" cx="1" cy="1" r="1" transform="translate(26 49)" fill="#fb0"/>
      <circle id="Oval-33" data-name="Oval" cx="1" cy="1" r="1" transform="translate(32 49)" fill="#fb0"/>
      <circle id="Oval-34" data-name="Oval" cx="1" cy="1" r="1" transform="translate(26 41)" fill="#fb0"/>
      <circle id="Oval-35" data-name="Oval" cx="1" cy="1" r="1" transform="translate(32 41)" fill="#fb0"/>
    </g>
  </g>
</svg>
