<svg xmlns="http://www.w3.org/2000/svg" width="91" height="91" viewBox="0 0 91 91">
  <g id="endocrinology" transform="translate(-697 -457)">
    <g id="Ellipse_14" data-name="Ellipse 14" transform="translate(697 457)" fill="#fff" stroke="#4c4f9b" stroke-width="1" opacity="0.15">
      <circle cx="45.5" cy="45.5" r="45.5" stroke="none"/>
      <circle cx="45.5" cy="45.5" r="45" fill="none"/>
    </g>
    <g id="endocrinology-2" data-name="endocrinology" transform="translate(681.517 438.613)" opacity="0.7">
      <path id="Path_143" data-name="Path 143" d="M177.258,126.614a2.824,2.824,0,0,1-2.011-.833l-.579-.579-.579.579a2.843,2.843,0,1,1-4.02-4.02l.6-.6-2.23-2.23h-3.625a.865.865,0,1,1,0-1.73H168.8a.865.865,0,0,1,.612.253l3.094,3.095a.864.864,0,0,1,0,1.224l-1.211,1.211a1.114,1.114,0,1,0,1.575,1.574l1.19-1.19a.864.864,0,0,1,1.224,0l1.19,1.19a1.14,1.14,0,0,0,1.574,0,1.114,1.114,0,0,0,0-1.574l-2.325-2.325a.866.866,0,0,1-.094-.114,1.152,1.152,0,0,0-.126-.15l-3.7-3.7a.864.864,0,0,1,0-1.224l3.7-3.7a1.152,1.152,0,0,0,.126-.15.891.891,0,0,1,.094-.114l2.325-2.325a1.114,1.114,0,0,0-1.574-1.574l-1.19,1.19a.864.864,0,0,1-1.224,0l-1.19-1.19a1.114,1.114,0,1,0-1.575,1.574L172.5,110.4a.864.864,0,0,1,0,1.224l-3.094,3.095a.864.864,0,0,1-.612.253h-3.983a.865.865,0,1,1,0-1.73h3.625l2.23-2.23-.6-.6a2.843,2.843,0,0,1,4.02-4.02l.579.579.579-.579a2.843,2.843,0,1,1,4.02,4.021l-2.277,2.277a2.819,2.819,0,0,1-.27.312l-3.084,3.084,3.084,3.084a2.85,2.85,0,0,1,.27.312l2.277,2.277a2.843,2.843,0,0,1-2.011,4.853Z" transform="translate(-90.424 -49.097)" fill="#fb0" stroke="#fb0" stroke-width="0.4"/>
      <path id="Path_144" data-name="Path 144" d="M48.21,128.129a2.844,2.844,0,0,1-2.011-4.853L48.476,121a2.825,2.825,0,0,1,.27-.312L51.83,117.6l-3.084-3.084a2.854,2.854,0,0,1-.27-.312L46.2,111.931a2.843,2.843,0,0,1,4.02-4.02l.579.579.579-.579a2.843,2.843,0,0,1,4.02,4.02l-.6.6,2.23,2.23h3.625a.865.865,0,0,1,0,1.73H56.67a.865.865,0,0,1-.612-.253l-3.094-3.095a.864.864,0,0,1,0-1.224l1.211-1.211a1.114,1.114,0,1,0-1.575-1.574l-1.19,1.19a.864.864,0,0,1-1.224,0L49,109.134a1.113,1.113,0,0,0-1.574,1.574l2.325,2.325a.863.863,0,0,1,.094.114,1.151,1.151,0,0,0,.126.15l3.7,3.7a.864.864,0,0,1,0,1.224l-3.7,3.7a1.149,1.149,0,0,0-.126.15.893.893,0,0,1-.094.114L47.424,124.5a1.114,1.114,0,0,0,0,1.574,1.14,1.14,0,0,0,1.574,0l1.19-1.19a.864.864,0,0,1,1.224,0l1.19,1.19a1.114,1.114,0,0,0,1.575-1.574l-1.211-1.21a.864.864,0,0,1,0-1.224l3.094-3.095a.864.864,0,0,1,.612-.253h3.983a.865.865,0,0,1,0,1.73H57.028l-2.23,2.23.6.6a2.843,2.843,0,0,1-4.02,4.021l-.579-.579-.579.579a2.824,2.824,0,0,1-2.011.832Z" transform="translate(-12.868 -50.088)" fill="#fb0" stroke="#fb0" stroke-width="0.4"/>
      <g id="Group_75" data-name="Group 75" transform="translate(25.692 45.179)">
        <path id="Path_147" data-name="Path 147" d="M49.855,99.969a9.883,9.883,0,0,1,0-9.212l.408-.775A11.62,11.62,0,1,0,29.7,79.158a34.784,34.784,0,0,0,0,32.41,11.62,11.62,0,0,0,20.566-10.825Zm-1.412,11.3a9.89,9.89,0,0,1-17.219-.505,33.055,33.055,0,0,1,0-30.8,9.892,9.892,0,1,1,17.508,9.212l-.408.775a11.617,11.617,0,0,0,0,10.825l.409.776a9.814,9.814,0,0,1-.285,9.721Z" transform="translate(-25.692 -72.948)" fill="#11157a" stroke="#11157a" stroke-width="0.4"/>
        <path id="Path_148" data-name="Path 148" d="M177.3,79.16a11.62,11.62,0,0,0-20.566,10.825l.409.776a9.883,9.883,0,0,1,0,9.212l-.408.775A11.62,11.62,0,1,0,177.3,111.572,34.784,34.784,0,0,0,177.3,79.16Zm-1.531,31.6a9.892,9.892,0,0,1-17.508-9.212l.408-.775a11.617,11.617,0,0,0,0-10.825l-.409-.776a9.892,9.892,0,0,1,17.508-9.212,33.056,33.056,0,0,1,0,30.8Z" transform="translate(-110.515 -72.949)" fill="#11157a" stroke="#11157a" stroke-width="0.4"/>
        <path id="Path_149" data-name="Path 149" d="M118.4,141.561a.865.865,0,0,0-.865-.865h-8.024a.865.865,0,0,0-.865.865v25.721a1.025,1.025,0,1,1-2.05,0V141.561a.865.865,0,0,0-.865-.865H97.7a.865.865,0,0,0,0,1.73h7.164v24.857a2.755,2.755,0,0,0,5.51,0V142.426h7.164a.865.865,0,0,0,.865-.865Z" transform="translate(-72.218 -117.255)" fill="#11157a" stroke="#11157a" stroke-width="0.4"/>
        <path id="Path_150" data-name="Path 150" d="M96.831,130.635a.865.865,0,0,0,.865.865h19.837a.865.865,0,0,0,0-1.73H97.7a.865.865,0,0,0-.865.865Z" transform="translate(-72.218 -110.109)" fill="#11157a" stroke="#11157a" stroke-width="0.4"/>
      </g>
      <path id="Path_151" data-name="Path 151" d="M107.233,53.655h-2.259a1.859,1.859,0,0,1-1.8-1.394l-.5-1.923-1.709,1.009a1.859,1.859,0,0,1-2.259-.287l-1.592-1.591a1.861,1.861,0,0,1-.288-2.259l1.01-1.71-1.927-.494a1.86,1.86,0,0,1-1.39-1.8V40.948a1.86,1.86,0,0,1,1.39-1.8l1.923-.5-1.009-1.709a1.861,1.861,0,0,1,.287-2.259l1.6-1.6a1.86,1.86,0,0,1,2.259-.288l1.709,1.009.5-1.922a1.86,1.86,0,0,1,1.8-1.395h2.259a1.859,1.859,0,0,1,1.8,1.394l.5,1.923,1.709-1.009a1.86,1.86,0,0,1,2.259.287l1.595,1.595a1.86,1.86,0,0,1,.287,2.259l-1.009,1.709,1.922.5h0a1.86,1.86,0,0,1,1.393,1.8v2.261a1.86,1.86,0,0,1-1.393,1.8l-1.923.5,1.009,1.709a1.86,1.86,0,0,1-.287,2.259l-1.595,1.6a1.859,1.859,0,0,1-2.259.288l-1.709-1.009-.5,1.922a1.86,1.86,0,0,1-1.8,1.395Zm-4-5.511a.864.864,0,0,1,.838.649l.782,3.036a.129.129,0,0,0,.125.094h2.259a.13.13,0,0,0,.126-.094l.782-3.035a.865.865,0,0,1,1.277-.529l2.7,1.594a.13.13,0,0,0,.157-.021l1.595-1.6a.13.13,0,0,0,.02-.158l-1.593-2.7a.865.865,0,0,1,.529-1.277l3.036-.782a.13.13,0,0,0,.094-.125V40.948a.13.13,0,0,0-.094-.126l-3.035-.782a.865.865,0,0,1-.529-1.277l1.593-2.7a.13.13,0,0,0-.021-.157l-1.595-1.595a.131.131,0,0,0-.158-.02l-2.7,1.593a.865.865,0,0,1-1.277-.529l-.782-3.036a.13.13,0,0,0-.125-.094h-2.259a.13.13,0,0,0-.125.094l-.782,3.035a.865.865,0,0,1-1.277.529l-2.7-1.594a.13.13,0,0,0-.157.021L98.342,35.9a.13.13,0,0,0-.02.158l1.593,2.7a.865.865,0,0,1-.529,1.277l-3.036.782a.13.13,0,0,0-.094.125v2.261a.13.13,0,0,0,.094.126l3.035.781a.865.865,0,0,1,.529,1.277l-1.594,2.7a.13.13,0,0,0,.021.157l1.595,1.6a.13.13,0,0,0,.158.02l2.7-1.593a.87.87,0,0,1,.44-.12Zm2.874-1.558a4.513,4.513,0,1,1,4.518-4.513,4.513,4.513,0,0,1-4.518,4.513Zm0-7.3a2.783,2.783,0,1,0,2.783,2.783,2.783,2.783,0,0,0-2.783-2.783Z" transform="translate(-45.018)" fill="#fb0" stroke="#fb0" stroke-width="0.4"/>
    </g>
  </g>
</svg>
