<svg id="ent" xmlns="http://www.w3.org/2000/svg" width="91" height="91" viewBox="0 0 91 91">
  <g id="Ellipse_15" data-name="Ellipse 15" fill="#fff" stroke="#4c4f9b" stroke-width="1" opacity="0.15">
    <circle cx="45.5" cy="45.5" r="45.5" stroke="none"/>
    <circle cx="45.5" cy="45.5" r="45" fill="none"/>
  </g>
  <g id="Group_3" data-name="Group 3" transform="translate(18.272 9.945)" opacity="0.7">
    <g id="Group_1" data-name="Group 1">
      <path id="Path_55" data-name="Path 55" d="M892.808,390.09c-.507-3.026-.561-3.148,1.877-4.228,5.979-2.647,11.863-2.127,17.6.859.072.038.083.194.17.416-1.672.227-3.206-.318-4.773-.543-.5-.072-1.275-.492-1.471.342-.208.886.679.808,1.172.9,1.6.284,3.206.53,4.821.692.846.085,1.881.158,2.174-.932.26-.968-.57-1.45-1.266-1.854a21.657,21.657,0,0,0-12.572-2.718,16.584,16.584,0,0,0-8.173,2.694c-.365.239-.763.962-1.322.414-.536-.524.089-.966.343-1.351a23.2,23.2,0,0,1,7.945-7.668c.494-.279,1.457-.431.895-1.313-.473-.742-1.045-.02-1.487.216a23.539,23.539,0,0,0-8.38,7.949c-.249.371-.374,1.187-1.054.857-.519-.252-.35-.934-.269-1.439a17.3,17.3,0,0,1,2.171-5.858c1.61-2.8,1.744-5.693,1.394-8.754-1.22-10.694,5.12-19.4,15.748-21.625a29.631,29.631,0,0,1,20.744,2.874c.442.239.976.941,1.466.132.518-.856-.427-.932-.826-1.185-8.631-5.475-23.325-4.955-30.973,1.213-6.005,4.843-8.353,11.28-7.433,18.867a12.109,12.109,0,0,1-1.174,7.742,23.124,23.124,0,0,0-2.264,5.831c-.42,1.73-.179,3.235,1.608,4.146a2.587,2.587,0,0,1,1.244,3.143c-.431,2.205-.182,4.167,1.764,5.593.762.559.325,1.091.05,1.66-1.4,2.907-.753,4.429,2.3,5.411a21.608,21.608,0,0,0,7.068.723c1.14-.018,1.384.336,1.141,1.422-.671,3-1.208,6.027-1.886,9.024-.231,1.023-.164,1.5,1.051,1.494q15.066-.044,30.133,0c1.286,0,1.309-.435.828-1.427-3.73-7.695-2.8-15.053,1.5-22.247,2.768-4.627,5.739-9.216,6.764-14.63,1.658-8.763.014-16.742-6.1-23.507-.346-.382-.7-1.389-1.463-.658-.74.712.218,1.1.574,1.521,6.754,7.971,8.05,16.869,4.454,26.555-1.3,3.5-3.345,6.629-5.19,9.852-2.918,5.1-4.889,10.416-3.924,16.444a20.5,20.5,0,0,0,1.431,5.2c.628,1.4.152,1.688-1.19,1.628a48.593,48.593,0,0,0-5.4.013c-1.449.1-1.728-.509-1.719-1.814.053-7.15-.071-14.3.06-21.449.1-5.669-2.176-9.614-7.549-11.621a2.711,2.711,0,0,1-1.263-1.117c-2.212-3.091-5.379-4.044-9-3.917-.5.018-1.166-.006-1.119.758.053.864.761.509,1.211.5,3.476-.093,6.437.839,8.238,4.1.294.532.81.614,1.288.8,4.873,1.873,6.838,4.712,6.846,9.933.01,7.324-.029,14.649.041,21.972.014,1.452-.415,1.878-1.862,1.861-4.456-.053-4.454,0-4.455-4.457,0-2.558.009-5.116-.029-7.673a5.735,5.735,0,0,0-3.858-5.663,40.489,40.489,0,0,1-5.886-2.99c-3.955-2.328-6.637-2.134-10.277.592-.439.329-.939,1.447-1.614.353-.506-.82-1.352-1.781-.169-2.766a14.937,14.937,0,0,1,7.7-3.777c.549-.069,1.314.052,1.137-.866-.157-.816-.808-.413-1.277-.362a11.5,11.5,0,0,0-4.314,1.275C895.463,388.348,894.227,389.2,892.808,390.09Zm21.329,17.031h.015c0,1.8-.043,3.6.017,5.394.033,1.005-.223,1.472-1.339,1.449-3.012-.061-6.026-.053-9.038-.01-1.013.014-1.334-.271-1.1-1.313.586-2.6,1.081-5.215,1.619-7.822.567-2.743.57-2.759-2.209-2.738a21.558,21.558,0,0,1-7.216-.817c-1.044-.356-2.165-.894-1.709-2.356,1.142-3.666,6.517-8.3,11.472-4.838a27.486,27.486,0,0,0,6.155,3.187,4.845,4.845,0,0,1,3.328,4.818C914.152,403.757,914.137,405.439,914.137,407.121Z" transform="translate(-887.706 -345.178)" fill="#11157a" stroke="#11157a" stroke-width="1"/>
    </g>
    <g id="Group_2" data-name="Group 2" transform="translate(35.569 21.105)">
      <path id="Path_56" data-name="Path 56" d="M911.251,422.981a4.044,4.044,0,0,0-.378-.7c-.314-.428-.7-.966-1.295-.616-.556.329-.354.964-.179,1.46a4.087,4.087,0,0,0,3.721,2.354,3.608,3.608,0,0,0,3.168-3.59,8.756,8.756,0,0,1,.9-4.519,12.514,12.514,0,0,0,1.24-5.794c-.177-3.191-2.2-5.719-4.845-6.1a6.932,6.932,0,0,0-6.925,4.329,11.329,11.329,0,0,0-.241,6.1,1.817,1.817,0,0,0,1.253,1.48.509.509,0,0,0,.644-.248,1.8,1.8,0,0,0-.349-1.9c-2.244-3.114-.389-7.55,3.323-8.788,2.728-.909,5.453.834,6.115,3.888a11.491,11.491,0,0,1-1.185,7.246,7.256,7.256,0,0,0-.743,4.02,2.613,2.613,0,0,1-1.3,2.627C912.843,425.121,911.847,424.763,911.251,422.981Z" transform="translate(-906.123 -405.414)" fill="#fb0" stroke="#fb0" stroke-width="1"/>
      <path id="Path_57" data-name="Path 57" d="M920.228,418.368a5.217,5.217,0,0,0-.724-3.422,2.28,2.28,0,0,0-2.589-1.027,3.144,3.144,0,0,0-2.348,2.622,5.681,5.681,0,0,0,.848,3.365,2.761,2.761,0,0,1-.054,2.929,1.805,1.805,0,0,0,0,2.276,1.412,1.412,0,0,0,1.748.385,2.276,2.276,0,0,0,1.55-2.11,4.733,4.733,0,0,0-.587-2.251c-.684-1.327-1.413-2.634-2.015-4-.554-1.256-.312-2.029.582-2.485a1.945,1.945,0,0,1,2.7.943A12.389,12.389,0,0,1,920.228,418.368Z" transform="translate(-910.881 -410.885)" fill="#fb0" stroke="#fb0" stroke-width="1"/>
    </g>
  </g>
</svg>
