<svg xmlns="http://www.w3.org/2000/svg" width="91" height="91" viewBox="0 0 91 91">
  <g id="gastrology" transform="translate(-83 -455)">
    <g id="Ellipse_3" data-name="Ellipse 3" transform="translate(83 455)" fill="#fff" stroke="#4c4f9b" stroke-width="1" opacity="0.15">
      <circle cx="45.5" cy="45.5" r="45.5" stroke="none"/>
      <circle cx="45.5" cy="45.5" r="45" fill="none"/>
    </g>
    <g id="Gastroenterology" transform="translate(-146.427 403.055)" opacity="0.7">
      <path id="Path_15" data-name="Path 15" d="M312.5,94.038c-.273,23.816-19.183,32.288-33.792,31.336a25.3,25.3,0,0,1-13.16-4.267,4.158,4.158,0,0,0-2.811-.65,9.648,9.648,0,0,1-6.03-1.261c-2.335-1.544-3.223-.2-3.8,1.77a16.855,16.855,0,0,0-.286,2.358,1.463,1.463,0,0,1-1.6,1.42c-.948-.051-1.34-.734-1.357-1.64-.049-2.688.473-5.193,2.727-6.93,1.969-1.517,3.885-.819,5.808.315a4.931,4.931,0,0,0,2.8.847c3.264-.407,5.8,1.006,8.568,2.471,9.824,5.2,24.628,2.377,32.808-5.976,7.6-7.763,9.384-20.8,3.993-30.749-3.591-6.623-8.772-11.042-16.86-10.626-4,.205-7.362,1.748-9.413,5.351a3.01,3.01,0,0,1-3.7,1.6,11.307,11.307,0,0,1-8.577-6.663c-.429-.922-.736-1.991.415-2.624,1.2-.66,1.766.234,2.307,1.143a15.433,15.433,0,0,0,1.817,2.7c2.537,2.719,4.222,2.692,6.652.027,4.57-5.01,13.043-6.339,19.842-2.719C308.592,76.449,312.068,85.288,312.5,94.038Z" transform="translate(-1.637)" fill="#11157a"/>
      <path id="Path_16" data-name="Path 16" d="M271.093,122.772a13.866,13.866,0,0,1,8.807-1.6,4.554,4.554,0,0,0,5.047-2.263c2.961-4.7,7.16-7.269,12.863-6.941,2.867.165,5.731.376,8.6.594,1.447.111,1.738.71,1.16,2.14C302.206,127.972,281.838,132.619,271.093,122.772Z" transform="translate(-6.015 -8.728)" fill="#fb0"/>
      <path id="Path_17" data-name="Path 17" d="M277.44,98.446A10.437,10.437,0,0,0,270.3,88.34,18.241,18.241,0,0,1,258.386,77.1c-.423-1.088-1.174-2.37.456-3.041,1.412-.582,1.916.6,2.306,1.647,2.181,5.851,6.665,8.967,12.479,10.426,2.1.527,3.663,1.423,4,3.746a1.391,1.391,0,0,0,.363.806c3.5,3,2.365,7.2,2.871,10.967a2.081,2.081,0,0,1-.921,2.316,11.006,11.006,0,0,0-4.064,4.259,1.932,1.932,0,0,1-1.926,1.131c-.4-.021-.795.016-1.192,0-3.437-.158-6.225,2.407-9.314,2.615-2.973.2-5.944-1.909-9.247-1.539-5.255.589-8.846,4.555-9.377,10.629a25.657,25.657,0,0,0-.021,2.677c.018.995-.267,1.9-1.346,1.985-1.235.092-1.674-.835-1.753-1.944-.6-8.349,4.125-17.11,13.839-16.2a53.151,53.151,0,0,0,16.393-1.192C274.47,105.85,277.43,101.811,277.44,98.446Z" transform="translate(0 -0.957)" fill="#11157a"/>
    </g>
  </g>
</svg>
