<svg xmlns="http://www.w3.org/2000/svg" width="91" height="91" viewBox="0 0 91 91">
  <g id="general_medicine" transform="translate(-479 -634)">
    <g id="Ellipse_16" data-name="Ellipse 16" transform="translate(479 634)" fill="#fff" stroke="#4c4f9b" stroke-width="1" opacity="0.15">
      <circle cx="45.5" cy="45.5" r="45.5" stroke="none"/>
      <circle cx="45.5" cy="45.5" r="45" fill="none"/>
    </g>
    <g id="general_medicine-2" data-name="general_medicine" transform="translate(-463.278 436.238)" opacity="0.7">
      <path id="Path_60" data-name="Path 60" d="M1007.4,249.51a26.982,26.982,0,0,0-4.3-.747,4.7,4.7,0,0,1-1.641-.357,30.511,30.511,0,0,1-5.336-.051,4.223,4.223,0,0,1-3.377,0c-1.033.033-2.065.081-3.1.132-.335.042-.669.08-1.005.105a.589.589,0,0,1-.2-.035c-2.175,1.445-4.029,1.461-5.658,2.05-6.854,2.475-8.243,4.347-8.194,11.473a13.264,13.264,0,0,1-.352,3.622q0,.3.029.591c0,.021.018.161.019.183.011.08.024.16.037.24.061.363.14.724.216,1.083a14.763,14.763,0,0,1,.272,1.659.764.764,0,0,1,.185.412,2.083,2.083,0,0,1,.3.228c6.012,5.912,13.757,6.492,21.357,6.99a41.16,41.16,0,0,0,16.858-3.065c3.994-1.755,6.561-4.273,6.418-9.27C1019.616,253.841,1018.559,252.272,1007.4,249.51Zm9.726,6.614c1.632,2.6.383,4.407-1.79,5.84-5.2,3.425-11.1,4.124-17.173,4.356-2.314-.342-5.864,1.045-6.7-1.339-.692-1.969,2.923-3.074,4.646-4.517,2.783-2.331,5.71-4.492,8.6-6.7C1008.141,251.145,1014.789,252.4,1017.125,256.124Zm-38.753-1.034c7.293-4.933,15.514-5.185,23.885-4.5.468.038.9.525,1.251.743-.08,1.116-.8,1.394-1.365,1.832-4.581,3.562-9.087,7.225-13.753,10.675-2.978,2.2-11.1-1.384-11.742-5.014A3.588,3.588,0,0,1,978.372,255.09Zm36.023,16.441c-5.4,3.024-11.319,3.641-16.835,3.7-5.965-.106-11.317-.652-16.3-3.066a9.8,9.8,0,0,1-4.132-3.146c-1.012-1.529-1.37-3.618-.429-4.979,1.267-1.834,2.447.466,3.621.906,11.421,4.29,22.779,4.425,34.125-.227,1-.41,1.946-1.8,3.078-.684.861.845.6,2.2.431,3.349C1017.64,269.488,1016.079,270.586,1014.395,271.531Z" transform="translate(-1.976 -4.149)" fill="#fb0" stroke="#fb0" stroke-width="1"/>
      <path id="Path_61" data-name="Path 61" d="M1005.539,216.382a13.521,13.521,0,0,0-18.632.141c-8.554,8.344-16.951,16.849-25.451,25.249a13.053,13.053,0,0,0-3.428,14.049c1.734,5.525,5.808,8.518,11.541,9.328a6.233,6.233,0,0,0,.786.049c.005-.282.011-.563.011-.844s0-.565-.018-.847c-1.08.144-2.6-.326-4.7-1.35-6.44-3.133-8.744-12.066-4.158-17.474,3.471-4.093,7.535-7.684,11.285-11.547,1.288-1.326,2.356-1.293,3.72-.07,3.639,3.265,7.36,6.448,11.126,9.723l.026,0c.323-.04.646-.082.969-.123-3.44-3.366-6.762-6.853-10.256-10.161-1.836-1.737-2.219-3-.1-4.908,3.458-3.1,6.654-6.5,9.947-9.781a11.74,11.74,0,0,1,18.688,3.524c2.029,4.289,1.757,8.605-1.442,12.227a114.144,114.144,0,0,1-8.252,8.3c.926-.023,1.851-.045,2.774-.006.03-.031.057-.06.087-.091,2.267-2.266,4.679-4.417,6.716-6.876A13.3,13.3,0,0,0,1005.539,216.382Z" fill="#11157a" stroke="#101475" stroke-width="1"/>
      <path id="Path_62" data-name="Path 62" d="M966.246,261.158c-4.174-3.982-3.874-8.02.7-11.442C965.214,253.421,963.841,257.142,966.246,261.158Z" transform="translate(-0.702 -4.308)" fill="#11157a" stroke="#101475" stroke-width="1"/>
    </g>
  </g>
</svg>
