<svg xmlns="http://www.w3.org/2000/svg" width="91" height="91" viewBox="0 0 91 91">
  <g id="general_surgery" transform="translate(-638 -643)">
    <g id="Ellipse_17" data-name="Ellipse 17" transform="translate(638 643)" fill="#fff" stroke="#4c4f9b" stroke-width="1" opacity="0.15">
      <circle cx="45.5" cy="45.5" r="45.5" stroke="none"/>
      <circle cx="45.5" cy="45.5" r="45" fill="none"/>
    </g>
    <g id="Group_4" data-name="Group 4" transform="translate(5.634 310.134)" opacity="0.7">
      <path id="Path_65" data-name="Path 65" d="M731.324,431.862a8.147,8.147,0,0,1-1.206-.008c-.887-.129-2.264.421-2.2-1.227.058-1.609,1.425-1.058,2.31-1.132a28.659,28.659,0,0,1,3.318-.007c.776.026,1.713-.108,1.775,1.087.074,1.431-1.013,1.229-1.88,1.276C732.734,431.89,732.028,431.859,731.324,431.862Z" transform="translate(-30.219 -29.709)" fill="#fb0"/>
      <path id="Path_66" data-name="Path 66" d="M679.27,431.8c-.915-.548-3.137.971-3.192-1.113s2.158-.951,3.351-1.281a3.565,3.565,0,0,1,1.2,0c1.05.086,2.547-.25,2.452,1.414-.085,1.507-1.505.853-2.4.972A12.173,12.173,0,0,1,679.27,431.8Z" transform="translate(-9.888 -29.673)" fill="#fb0"/>
      <path id="Path_67" data-name="Path 67" d="M669.71,431.6c-.463-.548-1.588.971-1.615-1.112s1.092-.951,1.7-1.282a.934.934,0,0,1,.609,0c.531.086,1.288-.25,1.241,1.413-.043,1.507-.762.853-1.214.973A3.131,3.131,0,0,1,669.71,431.6Z" transform="translate(-6.757 -29.593)" fill="#fb0"/>
      <path id="Path_68" data-name="Path 68" d="M696.895,429.457a2.646,2.646,0,0,1,.489,0c1.088.312,3.068-.888,3.081,1.18s-1.977.892-3.06,1.209a.578.578,0,0,1-.3,0c-1.3-.36-3.692.856-3.714-1.147C693.369,428.594,695.813,429.931,696.895,429.457Z" transform="translate(-16.68 -29.689)" fill="#fb0"/>
      <path id="Path_69" data-name="Path 69" d="M714.141,431.865a5.017,5.017,0,0,1-.9-.008c-.96-.179-2.573.608-2.576-1.129,0-1.7,1.606-1.066,2.582-1.17a22.118,22.118,0,0,1,3.01,0c.827.026,1.79.137,1.8,1.163.007,1.074-.988,1.079-1.8,1.1-.7.02-1.406,0-2.11,0Z" transform="translate(-23.454 -29.732)" fill="#fb0"/>
      <path id="Path_63" data-name="Path 63" d="M681.723,391.567c-1.707-1.794-3.565-3.631-5.258-5.609-.394-.461.407-1.021.823-1.437q15-14.992,29.984-30c.955-.958,1.561-1.171,2.7-.141,5.081,4.584,5.107,4.531.252,9.382q-13.075,13.064-26.128,26.15A4.156,4.156,0,0,1,681.723,391.567Zm.707-3.746a11.3,11.3,0,0,0,1.019-.829q13.18-13.146,26.356-26.3c.963-.958,1.153-1.722.109-2.791-1.116-1.142-1.89-.682-2.775.217-2.407,2.446-4.837,4.869-7.263,7.3q-9.418,9.427-18.834,18.854c-.607.609-1.6,1.192-.729,2.244C680.8,387.112,681.272,387.855,682.43,387.821Z" transform="translate(-9.999)" fill="#11157a"/>
      <path id="Path_64" data-name="Path 64" d="M650.866,423.608c4-3.968,7.86-7.8,11.721-11.636.143-.143.3-.433.417-.419,2.328.281,3.089,2.54,4.654,3.794.654.524,2.1,1.144,1.182,2.361a26.553,26.553,0,0,1-7.214,6.749C658.951,426.011,654.583,425.773,650.866,423.608Zm4.284-.535c3.956,1.236,8.133-2.7,10.384-4.7.853-.756-.143-1.82-.807-2.428-.574-.526-1.118-1.408-2-.57C660.662,417.349,657.034,420.034,655.15,423.073Z" transform="translate(0 -22.692)" fill="#11157a"/>
    </g>
  </g>
</svg>
