<svg xmlns="http://www.w3.org/2000/svg" width="91" height="91" viewBox="0 0 91 91">
  <g id="gyneacology" transform="translate(-182 -448)">
    <g id="Ellipse_4" data-name="Ellipse 4" transform="translate(182 448)" fill="#fff" stroke="#4c4f9b" stroke-width="1" opacity="0.15">
      <circle cx="45.5" cy="45.5" r="45.5" stroke="none"/>
      <circle cx="45.5" cy="45.5" r="45" fill="none"/>
    </g>
    <g id="Gyneacology-2" data-name="Gyneacology" transform="translate(-56.927 304.245)" opacity="0.7">
      <path id="Path_23" data-name="Path 23" d="M298.869,176.3c-.112,4.8-1.334,8.644-4.448,11.813-1.261,1.284-1.318,3.142-1.332,4.909-.029,3.7-.124,7.218-1.765,10.855-1.326,2.939-.52,6.667,1.073,9.818.431.853,1.116,1.792-.118,2.447-1.344.713-1.941-.413-2.293-1.363-1.7-4.6-2.877-9.212-.276-13.932a10.05,10.05,0,0,0,.767-5.6c-.253-4.128.352-7.834,3.522-10.967,1.993-1.97,2.016-4.9,2.222-7.589.18-2.333.164-4.692,1.042-6.908.37-.933.244-1.5-.842-1.647a1.85,1.85,0,0,1-.739-.236c-7.516-4.88-14.977-4.348-22.453.13-.736.441-1.677.337-1.136,1.692,1.045,2.619.942,5.446,1.177,8.2a11.677,11.677,0,0,0,3.2,7.743c1.982,1.964,2.428,4.489,2.492,7.172a27,27,0,0,0,1.68,10.017c1.566,3.867.67,8.561-1.578,12.531-.4.712-1.011,1.3-1.907.808-1.034-.565-.751-1.406-.314-2.234a15.667,15.667,0,0,0,1.588-7.292,7.684,7.684,0,0,0-1.055-4.437c-1.294-2.064-1.182-4.5-1.08-6.837.158-3.586-.31-6.819-3.1-9.523-1.64-1.59-2.082-3.941-2.406-6.207-.143-1,.053-2.09-.66-3.014-1.441.758-1.871,2.217-2.576,3.479-2.361,4.226-6.712,4.812-10.162,1.381a10.774,10.774,0,0,1-2.15-11.136c1.384-3.294,4.29-5.213,8.7-4.706a24.651,24.651,0,0,0,14.758-2.823,12.555,12.555,0,0,1,12.036.035,23.438,23.438,0,0,0,14.505,2.77c3.672-.488,6.966.688,8.669,4.344,1.771,3.8,1.138,7.46-1.3,10.785-2.5,3.41-8.657,4.752-11.068-1.141A6.907,6.907,0,0,0,298.869,176.3ZM312.2,174a5.462,5.462,0,0,0-3.646-5.409c-2.874-1.031-6.816-.327-8.213,1.46a3.638,3.638,0,0,0-.248,4.333c1.468,2.728,3.845,3.615,6.788,3.951C310.353,178.727,312.218,177.395,312.2,174Zm-48.327-5.8v.012c-.431,0-.865-.033-1.292,0a5.607,5.607,0,0,0-5.371,6.54c.356,3.134,1.92,4.018,6.012,3.4.6-.09,1.2-.12,1.79-.252,2.559-.577,5.089-3.733,4.822-5.979s-2.22-3.586-5.444-3.727C264.221,168.192,264.049,168.2,263.876,168.2Z" fill="#11157a"/>
      <path id="Path_24" data-name="Path 24" d="M286.5,174.677a12.467,12.467,0,0,1,.776,4.058,12.721,12.721,0,0,0,3.314,9.545,6.306,6.306,0,0,1,1.722,3.987q.13,5.322.042,10.647c-.013.888-.1,2.229-1.411,2-1.143-.2-.3-1.279-.307-1.967-.022-3.376-.026-6.752-.033-10.128a5.714,5.714,0,0,0-1.591-3.739,13.517,13.517,0,0,1-3.39-9.55,5.271,5.271,0,0,0-1.8-4.661c-.472-.376-1.007-.784-.645-1.5.28-.554.86-.5,1.372-.511a6.2,6.2,0,0,1,1.3.04,41.821,41.821,0,0,0,15.233.017c.867-.152,2.091-.511,2.62.505.543,1.044-.734,1.386-1.259,1.977a5.187,5.187,0,0,0-1.184,3.865,13.672,13.672,0,0,1-3.435,9.8,6.721,6.721,0,0,0-1.675,5.033c.219,3.271-.406,6.569.308,9.823.106.484.046.86-.436,1.048a.9.9,0,0,1-1.211-.651,5.285,5.285,0,0,1-.308-1.776c-.014-3.29.016-6.58.029-9.87a6,6,0,0,1,1.487-4.062,13.608,13.608,0,0,0,3.543-10,20.5,20.5,0,0,1,.612-3.854A37.554,37.554,0,0,1,286.5,174.677Z" transform="translate(-8.735 -3.492)" fill="#fb0"/>
    </g>
  </g>
</svg>
