<svg xmlns="http://www.w3.org/2000/svg" width="91" height="91" viewBox="0 0 91 91">
  <g id="heamatology" transform="translate(-442 -605)">
    <g id="Ellipse_18" data-name="Ellipse 18" transform="translate(442 605)" fill="#fff" stroke="#4c4f9b" stroke-width="1" opacity="0.15">
      <circle cx="45.5" cy="45.5" r="45.5" stroke="none"/>
      <circle cx="45.5" cy="45.5" r="45" fill="none"/>
    </g>
    <g id="Group_5" data-name="Group 5" transform="translate(-420.35 169.431)" opacity="0.7">
      <path id="Path_70" data-name="Path 70" d="M879.46,477.379c-.024-11.732,6.307-20.447,15.852-23.567A22.978,22.978,0,0,1,921.1,489c-.562.8-2.213,1.507-1.15,2.757.96,1.129,1.753,2.922,3.957,2.122,1.164-.423,2.146.322,2.983,1.167q3.57,3.607,7.177,7.177c1.68,1.664,1.668,3.29.009,4.965-1.782,1.8-3.281,1.873-5.15.063-2.43-2.353-4.787-4.783-7.191-7.163a3.072,3.072,0,0,1-1.071-3.264,2,2,0,0,0-.492-2.109c-1.323-1.58-2.271-2.1-4.365-.591-7.458,5.381-15.615,6.056-23.82,1.908C883.755,491.865,879.795,484.8,879.46,477.379Zm22.917,19.3a21.064,21.064,0,1,0-21.085-20.917A20.993,20.993,0,0,0,902.377,496.678Zm31.106,7.965a1.9,1.9,0,0,0-.276-.662c-2.679-2.7-5.339-5.426-8.088-8.057-.851-.815-1.572-.028-2.2.6a1.3,1.3,0,0,0-.128,2.042q3.831,3.877,7.7,7.715a1.167,1.167,0,0,0,1.633.225A2.673,2.673,0,0,0,933.482,504.643Z" fill="#11157a" stroke="#11157a" stroke-width="1"/>
      <path id="Path_71" data-name="Path 71" d="M917.914,483.342c.032,4.725-2.324,8.3-6.06,9.906a9.84,9.84,0,0,1-11-2.217A9.585,9.585,0,0,1,898.9,480.2c2.495-5.041,5.27-9.944,7.93-14.9.65-1.212,1.434-1.6,2.212-.153,2.785,5.186,5.566,10.375,8.25,15.613A8.836,8.836,0,0,1,917.914,483.342Zm-1.787.889a6.95,6.95,0,0,0-.135-1.687c-1.843-5.166-4.971-9.683-7.421-14.544-.449-.89-.983-.389-1.3.22-2.375,4.517-5,8.928-7.011,13.6-1.341,3.111-.225,6.19,2.382,8.441a7.648,7.648,0,0,0,8.724,1.261A7.743,7.743,0,0,0,916.127,484.231Z" transform="translate(-5.604 -3.485)" fill="#fb0" stroke="#fb0" stroke-width="1"/>
      <path id="Path_72" data-name="Path 72" d="M904.017,493.005c-.006-.372-.068-1.069.772-1.133.659-.051.76.495.862,1.046a4.186,4.186,0,0,0,3.76,3.708c.553.084,1.056.361.958.995-.129.834-.81.724-1.428.659A6.051,6.051,0,0,1,904.017,493.005Z" transform="translate(-7.426 -11.851)" fill="#fb0" stroke="#fb0" stroke-width="1"/>
    </g>
  </g>
</svg>
