<svg xmlns="http://www.w3.org/2000/svg" width="91" height="91" viewBox="0 0 91 91">
  <g id="nephrology" transform="translate(-552 -617)">
    <g id="Ellipse_19" data-name="Ellipse 19" transform="translate(552 617)" fill="#fff" stroke="#4c4f9b" stroke-width="1" opacity="0.15">
      <circle cx="45.5" cy="45.5" r="45.5" stroke="none"/>
      <circle cx="45.5" cy="45.5" r="45" fill="none"/>
    </g>
    <g id="Group_6" data-name="Group 6" transform="translate(-277.492 417.637)" opacity="0.7">
      <path id="Path_73" data-name="Path 73" d="M889.335,261.009c.482.979.915,1.888,1.378,2.781.154.3.373.627.777.524.479-.122.525-.567.464-.944a9.226,9.226,0,0,0-.495-2.113c-.461-1.091-.221-1.651.988-1.761.47-.043.909-.346,1.569-.127-1.456,3.907,1.046,5.732,3.96,7.347a35.562,35.562,0,0,1,3.745,2.224,8.344,8.344,0,0,1,3.136,6.012,64.4,64.4,0,0,1,.453,8.845c-.019,4.99,0,9.98,0,14.971,0,.339-.013.679,0,1.018.027.672-.132,1.1-.956,1.1-.906,0-.707-.61-.707-1.1q-.01-8.212,0-16.424a46.8,46.8,0,0,0-.441-8.259c-.486-2.726-1.756-4.6-4.721-5.128a3.97,3.97,0,0,0-4.883,4.336c.037.445.369,1.158-.2,1.265a2.668,2.668,0,0,1-2.3-.643c-.448-.428.1-.871.309-1.277.394-.775.851-1.523,1.189-2.32.182-.428.294-1.006-.231-1.308-.556-.32-.9.119-1.179.526a16.033,16.033,0,0,0-1.72,2.509c-.257.575-.626.707-1.063.136-.117-.153-.265-.283-.388-.433-1.494-1.819-1.433-2.041.705-2.822.544-.2,1.074-.442,1.6-.692.363-.173.7-.431.589-.89-.12-.5-.568-.438-.954-.437a10.066,10.066,0,0,0-2.816.682c-.723.215-1,.061-.947-.684.01-.144,0-.291,0-.436-.022-2.224-.022-2.225,2.031-1.483a1.9,1.9,0,0,0,.266.115c.628.117,1.454.666,1.792-.175.286-.709-.612-.958-1.1-1.324-.6-.45-1.872-.363-1.8-1.184C887.471,262.414,888.412,261.662,889.335,261.009Z" transform="translate(-31.726 -27.483)" fill="#fb0"/>
      <path id="Path_74" data-name="Path 74" d="M970.761,259.17a3.672,3.672,0,0,1,.562,0c2.238.441,2.2.435,1.729,2.587-.176.8-.849,2.045.094,2.361,1.09.365,1.136-1.142,1.6-1.849a6.485,6.485,0,0,0,.516-1.308c.574.087.793.5,1.082.8,1.487,1.535,1.447,1.645-.384,2.6-.673.352-1.906.607-1.459,1.595.38.839,1.374.169,2.082-.056a5.915,5.915,0,0,0,.8-.345c.7-.341,1.111-.22,1.091.644a1.139,1.139,0,0,0,.012.145c.256,2.512.24,2.513-2.131,1.809-.845-.251-2.141-.838-2.445.129-.326,1.032,1.139,1.209,1.934,1.512,2.212.843,2.308,1.271.681,3.1-.666.748-1.055.644-1.463-.174a10.063,10.063,0,0,0-1.543-2.281c-.326-.36-.635-.845-1.194-.486-.5.324-.355.869-.208,1.326a11.582,11.582,0,0,0,1.5,2.812c.19.287.349.662-.063.879a4.018,4.018,0,0,1-2.229.538c-.458-.044-.348-.557-.281-.849.824-3.532-2.7-6.2-6.75-4.181a4.342,4.342,0,0,0-2.167,2.426,17.991,17.991,0,0,0-1.035,6.568c-.036,6.642-.008,13.285-.038,19.927,0,.509.413,1.358-.726,1.359-1.077,0-.948-.737-.938-1.409.106-7.463-.166-14.926.211-22.391.234-4.642,1.99-8.112,6.428-9.969a12.759,12.759,0,0,0,1.764-1.009C970.913,264.041,971.483,262.752,970.761,259.17Z" transform="translate(-83.53 -27.392)" fill="#fb0"/>
      <path id="Path_75" data-name="Path 75" d="M842.665,238.425c.113,6.75,1.55,11.757,5.809,15.6a15.4,15.4,0,0,0,11.258,3.9c3.054-.1,4.783-1.956,4.973-5.151a18.591,18.591,0,0,0-.806-5.725,3.186,3.186,0,0,1,.862-3.455c.278-.249.565-.63.988-.285a.636.636,0,0,1,.047.928c-1.3,1.24-.612,2.573-.281,3.915a14,14,0,0,1,.281,6.193c-.724,3.565-3.835,5.374-8.042,4.9-10.743-1.2-15.973-9.353-16.371-18.528-.272-6.266,1.574-11.786,6.229-16.13,4.921-4.593,11.344-5.164,17.058-2.676,2.821,1.228,3.792,3.9,2.7,6.944a29.161,29.161,0,0,1-1.877,4.083c-.647,1.186-.878,2.193.226,3.26.428.414,1.247,1.12.53,1.694-.7.561-1.144-.409-1.551-.875a3.3,3.3,0,0,1-.471-4.395,23.892,23.892,0,0,0,1.917-4.226c.869-2.569.1-4.324-2.36-5.45a14.314,14.314,0,0,0-16.993,4.4C843.991,230.963,842.563,235.042,842.665,238.425Z" transform="translate(0 0)" fill="#11157a" stroke="#11157a" stroke-width="1"/>
      <path id="Path_76" data-name="Path 76" d="M1004.459,239.514c-.271-7.082-2.824-12.919-9.405-16.34-3.747-1.948-7.709-1.767-11.571-.253-2.635,1.033-3.4,2.952-2.47,5.639a24.183,24.183,0,0,0,1.807,3.959,3.761,3.761,0,0,1-.968,5.189c-.3.245-.625.587-1.005.233-.345-.321-.142-.727.067-1.062a6.064,6.064,0,0,1,.609-.814,2.064,2.064,0,0,0,.282-2.647,26.187,26.187,0,0,1-2.026-4.5c-1.147-3.562.08-6.084,3.589-7.372a15.718,15.718,0,0,1,18.58,5.746c5.533,7.591,5.12,19.359-1.1,26.354a15.933,15.933,0,0,1-14.214,5.479c-3.668-.4-5.443-2.645-5.479-6.337a14.791,14.791,0,0,1,.741-5.589,2.376,2.376,0,0,0-.431-2.7c-.294-.318-.488-.833-.072-1.172.481-.392.777.135,1.079.41a3.12,3.12,0,0,1,.747,3.348,16.365,16.365,0,0,0-.724,6.449,4.733,4.733,0,0,0,5.042,4.425c8.335.247,15.054-5.383,16.5-13.8A26.976,26.976,0,0,0,1004.459,239.514Z" transform="translate(-97.665 -0.04)" fill="#11157a" stroke="#11157a" stroke-width="1"/>
    </g>
  </g>
</svg>
