<svg xmlns="http://www.w3.org/2000/svg" width="91" height="91" viewBox="0 0 91 91">
  <g id="neurology" transform="translate(-388 -352)">
    <g id="Ellipse_8" data-name="Ellipse 8" transform="translate(388 352)" fill="#fff" stroke="#4c4f9b" stroke-width="1" opacity="0.15">
      <circle cx="45.5" cy="45.5" r="45.5" stroke="none"/>
      <circle cx="45.5" cy="45.5" r="45" fill="none"/>
    </g>
    <g id="Neurology-2" data-name="Neurology" transform="translate(120.045 92.597)" opacity="0.7">
      <path id="Path_47" data-name="Path 47" d="M313.508,266.72c15.82.26,26.359,8.8,28.19,21.487a26.424,26.424,0,0,1-2.407,15.079,58.62,58.62,0,0,1-3.3,6.3c-3.874,6.253-3.829,12.43.023,18.655,1.248,2.017,2.393,4.1,3.589,6.146.528.9.663,1.817-.343,2.421a1.611,1.611,0,0,1-2.363-.721c-3-4.828-6-9.663-7.039-15.381a14.556,14.556,0,0,1,1.492-8.721c1.364-3,3.031-5.864,4.432-8.849,4.074-8.679,4.6-17.338-1.967-24.957-6.694-7.765-15.593-9.757-25.347-7.285a25.381,25.381,0,0,0-15.131,11.117c-1.672,2.531-3.275,5.345-2.878,8.343.689,5.2-1.7,9.174-4.169,13.24-.375.617-.737,1.242-1.1,1.867-1.821,3.136-1.835,3.208,1.668,3.931,2.175.448,3.557,1.174,2.413,3.7-.813,1.8.636,1.76,1.693,1.985.91.194,1.94.236,2.059,1.464a1.474,1.474,0,0,1-1.663,1.75c-1.413-.012-1.06.773-.9,1.606a4.753,4.753,0,0,1-.042,1.536c-.724,4.886-.482,5.3,4.392,6.283,2.626.529,5.3.845,7.941,1.287a9.829,9.829,0,0,1,7.522,7.37,1.6,1.6,0,0,1-.92,2.036,1.405,1.405,0,0,1-2-.909c-1.46-5.16-5.681-5.629-9.988-6.084a23.9,23.9,0,0,1-7.454-1.959c-2.7-1.234-3.9-3.275-3.245-6.242a3.166,3.166,0,0,0-.735-3.279c-1.292-1.479-1.083-3.757-.518-5.655.408-1.374.053-1.742-1.2-2.16-4.268-1.421-4.831-2.98-2.647-6.855.861-1.527,1.764-3.032,2.678-4.53,1.829-3,3.461-5.9,2.9-9.78-.425-2.951.755-5.927,2.246-8.565C295.1,272.308,303.822,267.16,313.508,266.72Z" fill="#11157a"/>
      <path id="Path_48" data-name="Path 48" d="M325.221,325.264c.193-4.22.46-7.459,1.541-10.463,2.169-6.033-4.589-13.235-10.582-12.515-2.788.335-5.379-.247-7.053-2.841a1.292,1.292,0,0,0-1.54-.673c-4.26,1.019-6.034-2.116-7.485-4.986-1.466-2.9-.361-5.647,1.6-8.287,6.2-8.364,17.579-9.239,25.531-5.532a15.47,15.47,0,0,1,8.608,9.555c1.088,3.8-.01,8.229-2.209,11.95a1.868,1.868,0,0,1-.907.82c-4.5,1.4-4.306,4.684-3.613,8.385.422,2.255-.451,4.485-.888,6.709-1.084,5.52-1.881,11.033,1.031,16.3.4.721.587,1.421-.317,1.793s-1.251-.459-1.6-1.058A17.936,17.936,0,0,1,325.221,325.264Zm-8.7-45.66a32.252,32.252,0,0,0-9.917,3.645c-1.96,1.169-3.423,3.528-4.531,5.654-.875,1.678-1.623,4.053,1.523,4.855.249.064.541.66.513.983-.113,1.274.4,2.017,1.658,2.112a3.177,3.177,0,0,0,3.24-1.326,5.715,5.715,0,0,1,2.028-2.26,82.929,82.929,0,0,0,11.414-5.646,4.56,4.56,0,0,1,3.322-.414c.774.175,1.85.174,1.691,1.34-.135.993-1.061.76-1.76.7-1.861-.155-3.179.7-4.712,1.75a33.365,33.365,0,0,1-7.705,3.565,3.389,3.389,0,0,0-2.54,2.365c-.335,1.425.6,2.367,1.826,2.864s2.592,1.023,3.859.193c1.035-.678,1.7-.044,2.635.141a9.4,9.4,0,0,1,5.439,3.022c.356.393.868.693,1.187-.049.55-1.279,1.72-.893,2.679-1.048a6.024,6.024,0,0,0,4.125-2.484c.589-.831,1.174-1.8.558-2.851-.55-.94-1.581-.863-2.5-.836a16.5,16.5,0,0,0-6.747,2.07c-.607.3-1.365.922-1.893.026-.6-1.021.27-1.477,1.017-1.856a19.371,19.371,0,0,1,8.555-2.378c2.58-.042,3.586-2.048,2.431-4.231C330.373,282.814,324.449,280.186,316.523,279.6Z" transform="translate(-3.317 -1.937)" fill="#fb0"/>
    </g>
  </g>
</svg>
