<svg id="neuro_surgery" xmlns="http://www.w3.org/2000/svg" width="91" height="91" viewBox="0 0 91 91">
  <g id="Ellipse_20" data-name="Ellipse 20" fill="#fff" stroke="#4c4f9b" stroke-width="1" opacity="0.15">
    <circle cx="45.5" cy="45.5" r="45.5" stroke="none"/>
    <circle cx="45.5" cy="45.5" r="45" fill="none"/>
  </g>
  <g id="Group_7" data-name="Group 7" transform="translate(17.13 11.099)" opacity="0.7">
    <path id="Path_77" data-name="Path 77" d="M420.2,231.887c-1.624,0-3.248.007-4.872,0a1.929,1.929,0,0,1-2.1-1.88c-.274-1.981-.554-3.961-.872-5.935-.181-1.127.2-1.565,1.367-1.453a23.816,23.816,0,0,0,2.864.01c.383-.01.906.177.938-.532.035-.768-.52-.678-.974-.688-1.1-.024-2.2-.031-3.3-.014a1.218,1.218,0,0,1-1.424-1.205c-.18-1.25.227-2.878-.8-3.635-.924-.68-2.408-.167-3.645-.2-1.748-.049-2.015-.449-1.451-2.09,1.485-4.322,3.108-8.6,4.19-13.05.336-1.381.512-2.8.753-4.207,1.859-10.824,10.759-17.97,21.859-18.856,12.48-1,23.275,6.3,26.6,18.044,2.516,8.9.12,16.754-5.526,23.813a48.615,48.615,0,0,1-3.772,4.113c-3.611,3.582-4.293,7.917-3.2,12.687a43.219,43.219,0,0,0,2.007,6.252c.164.415.3,1.117.885.918.752-.254.435-.938.242-1.469a40.928,40.928,0,0,1-2.192-7.531,11.067,11.067,0,0,1,3.442-10.27c5.019-4.846,8.751-10.435,9.966-17.448a26.093,26.093,0,0,0-21.294-30.03,27.486,27.486,0,0,0-20.962,4.55,21.541,21.541,0,0,0-9.271,14.9c-.9,5.91-2.93,11.423-4.909,16.98-.929,2.609-.145,3.862,2.586,3.9,3.026.042,2.992.046,3.349,3.14.366,3.171.785,6.337,1.224,9.5a3.331,3.331,0,0,0,3.561,3.019c2.723.018,5.449.076,8.168-.025,1.211-.045,1.578.448,1.662,1.514.2,2.521.441,5.038.67,7.557.03.332.079.662.13.992.062.4.2.8.685.752s.569-.451.538-.86c-.094-1.236-.192-2.472-.306-3.706-.193-2.087-.421-4.172-.59-6.261-.071-.879-.446-1.292-1.35-1.277-1.624.028-3.249.008-4.873.008Z" transform="translate(-404.373 -176.776)" fill="#11157a" stroke="#11157a" stroke-width="1"/>
    <path id="Path_78" data-name="Path 78" d="M451.045,239.648c1.624,0,3.248.031,4.87-.014.739-.02,1.166.174,1.267.965a6.83,6.83,0,0,0,2.76,4.676,1.921,1.921,0,0,1,.875,2.464c-.208.471-.088.907.428,1.014.549.114.726-.357.812-.792a3.15,3.15,0,0,0-1.169-3.561,5.683,5.683,0,0,1-2.359-3.309c-.126-.48-.473-1.262.411-1.379.653-.086,1.605-.451,1.753.809a3.272,3.272,0,0,0,1.421,2.23,5.217,5.217,0,0,1,1.883,6c-.128.493-.471,1.126.26,1.33.692.194.841-.526.968-.995a5.75,5.75,0,0,0,.181-3.384c-.476-1.4.075-1.59,1.3-1.459a4.81,4.81,0,0,0,3.879-1.045,4.262,4.262,0,0,0,1.537-4.716,2,2,0,0,1,.451-2.039,7.554,7.554,0,0,0,.992-7.962,7.112,7.112,0,0,0-6.836-4.31,1.279,1.279,0,0,1-1.374-1.107c-1.724-5.563-9.258-7.556-13.368-4.182-1.52,1.248-2.747,2.142-4.892,2.138-2.469,0-4.018,1.872-4.373,4.322a1.427,1.427,0,0,1-.928,1.234,6.979,6.979,0,0,0-3.418,7.286,6.662,6.662,0,0,0,5.674,5.484,19.535,19.535,0,0,0,3.556.312C448.752,239.623,449.9,239.648,451.045,239.648Zm8.867-1.134c-2.524-.091-4.865.125-7.2-.116a3.69,3.69,0,0,1-3.408-2.614,3.836,3.836,0,0,1,1.183-4.023,4.13,4.13,0,0,1,4.468-.339c1.574.727,1.816,1.513,1.112,3.08a1.933,1.933,0,0,0-.223.522c-.054.481-.436,1.135.308,1.336.622.168.741-.462.883-.906a1.984,1.984,0,0,1,2.361-1.576c.482.06,1.26.577,1.323-.425.053-.831-.794-.817-1.276-.792a3.013,3.013,0,0,1-2.506-1.291,5.178,5.178,0,0,0-5.364-1.538c-3.3.87-4.671,4.27-2.977,7.409.57,1.055.273,1.282-.718,1.164-1.644-.2-3.318-.074-4.923-.7a4.749,4.749,0,0,1-3.2-3.881c-.319-2.15,0-4.218,1.913-5.666.4-.3.96-.888,1.362-.47a2.937,2.937,0,0,1,1.06,2.8c-.177.764-.561.89-1.211.834-.341-.029-.712.036-.774.458-.074.5.306.631.7.719a3.176,3.176,0,0,1,2.225,1.142c.248.372.589.765,1.043.416.48-.37.228-.838-.053-1.266-1.135-1.729-1.058-2.464.444-4.073.309-.33.655-.659.366-1.105-.32-.494-.787-.264-1.119.008-.774.634-1.062.132-1.347-.5a3.49,3.49,0,0,1,3.038-4.961,4.374,4.374,0,0,1,3.088.891.766.766,0,0,0,.92.151c.215-.132.4-.37.256-.592-1.076-1.621.361-2.249,1.264-2.881,3.493-2.444,8.829-1,10.882,2.824.591,1.1.853,2.036-.714,2.509a2.128,2.128,0,0,0-.707.475c-.285.247-.665.537-.423.952.28.48.726.329,1.118.086a6.676,6.676,0,0,1,2.322-1.058,6.247,6.247,0,0,1,7.42,4.872,6.834,6.834,0,0,1-5.388,7.873C464.883,238.769,462.3,238.332,459.913,238.515Zm7.1,4.606a10.153,10.153,0,0,1-3.672-1.085,2.588,2.588,0,0,1-1.313-1.437c-.185-.561-.186-.93.54-.946,1.793-.038,3.514.12,4.832,1.564.3.332.612.865,1.158.4s.109-.869-.188-1.217c-.556-.652-.376-.968.406-1.157a3.786,3.786,0,0,0,1.03-.48c1.034-.624,1.245-.035,1.262.84C471.108,241.471,469.233,243.145,467.017,243.121Z" transform="translate(-426.852 -205.577)" fill="#fb0" stroke="#fb0" stroke-width="1"/>
    <path id="Path_79" data-name="Path 79" d="M489.219,229.038c-.687.568-1.139.933-.671,1.6.565.808.31,1.252-.6,1.539a5.736,5.736,0,0,0-2.479,1.625c-.246.265-.394.59-.137.889a.706.706,0,0,0,.925.068,10.867,10.867,0,0,0,.9-.7,4.348,4.348,0,0,1,5.414-.181c.36.23.747.622,1.1.155.336-.447.117-.9-.353-1.205a2.336,2.336,0,0,0-.6-.381A4.33,4.33,0,0,1,489.219,229.038Z" transform="translate(-459.922 -213.985)" fill="#fb0" stroke="#fb0" stroke-width="1"/>
    <path id="Path_80" data-name="Path 80" d="M461.465,262.867a3.3,3.3,0,0,0-1.022-1.8c-.815-.637-1.1-1.208.111-1.712.412-.172.84-.442.569-.956a.78.78,0,0,0-1.235-.156c-1.171,1.412-2.815,1.3-4.362,1.559-.357.061-.988.154-.851.71.116.475.56.663,1.145.527,2.009-.469,3.563.091,4.409,2.108.132.315.346.616.749.511A.65.65,0,0,0,461.465,262.867Z" transform="translate(-418.767 -234.612)" fill="#fb0" stroke="#fb0" stroke-width="1"/>
  </g>
</svg>
