<svg xmlns="http://www.w3.org/2000/svg" width="91" height="91" viewBox="0 0 91 91">
  <g id="nutrition" transform="translate(-688 -569)">
    <g id="Ellipse_21" data-name="Ellipse 21" transform="translate(688 569)" fill="#fff" stroke="#4c4f9b" stroke-width="1" opacity="0.15">
      <circle cx="45.5" cy="45.5" r="45.5" stroke="none"/>
      <circle cx="45.5" cy="45.5" r="45" fill="none"/>
    </g>
    <g id="Group_8" data-name="Group 8" transform="translate(-77.592 50.567)" opacity="0.7">
      <path id="Path_81" data-name="Path 81" d="M781.652,569.769c0-5.678.053-11.356-.03-17.032a7.5,7.5,0,0,1,1.528-5c1.273-1.646,2.245-3.525,3.53-5.161a9.24,9.24,0,0,0,2.287-7.325c-.3-2,.367-2.894,2.612-2.837,5.524.139,11.054.057,16.581.04,1.353,0,2.7.1,2.332,1.907-.9,4.339,1.353,7.639,3.922,10.483,3.986,4.412,3.41,9.552,3.317,14.71-.012.644.015,1.39-.955,1.448-.665.04-1.131-.222-1.167-.915-.069-1.337-.953-1.39-1.985-1.379-2.859.029-5.719.052-8.577-.005-1.363-.027-1.844.541-1.837,1.85q.049,8.515,0,17.032c-.008,1.337.525,1.907,1.868,1.823.854-.054,1.715.006,2.573,0,.817-.008,1.593.06,1.565,1.136-.029,1.144-.942.966-1.674,1.013a5.3,5.3,0,0,1-1.142,0c-2.47-.378-3.247.554-3.284,3.1-.04,2.718.9,3.457,3.425,3.209a48.9,48.9,0,0,1,5.714-.021c.79.015,1.849-.276,1.786,1.137-.053,1.171-.945,1-1.661,1-9.625.014-19.251-.029-28.876.038-1.907.014-1.864-1.05-1.86-2.365C781.665,581.691,781.653,575.73,781.652,569.769Zm19.388-.749c0-2.838-.043-5.678.019-8.514.03-1.347-.493-1.825-1.838-1.809-4.478.052-8.958.063-13.435,0-1.513-.023-1.994.57-1.982,2.006q.071,8.372,0,16.746c-.013,1.477.581,1.989,2.034,1.97,4.382-.054,8.767-.076,13.149.011,1.669.033,2.131-.632,2.082-2.175C800.982,574.51,801.045,571.764,801.04,569.02ZM793.292,549.3c2.182,0,4.365-.018,6.548.008a2.484,2.484,0,0,0,2.426-1.1c1.269-1.989,2.606-3.935,3.938-5.884,1.011-1.481.236-1.73-1.114-1.713-2.372.028-4.745,0-7.118,0-7.864,0-7.838.015-11.906,6.747-.817,1.35-.94,2.008.964,1.951C789.114,549.246,791.2,549.295,793.292,549.3Zm16.179,7.268a23.443,23.443,0,0,1,3.132.024c2.381.323,2.988-.621,3.054-2.96.136-4.811-3.663-7.469-5.655-11.1-.645-1.175-1.241,0-1.613.538-1.555,2.255-3.186,4.473-4.559,6.836-2.214,3.81-.595,6.657,3.647,6.658ZM792.4,587.825h4.553c4.426,0,4.547-.185,4.119-4.593-.116-1.2-.556-1.674-1.727-1.669-4.647.021-9.3-.122-13.939.067-2.661.109-1.331,2.4-1.54,3.752-.185,1.182-.273,2.531,1.707,2.457C787.842,587.754,790.121,587.82,792.4,587.825Zm.15-36.377c-2.178,0-4.362.091-6.533-.028-1.824-.1-2.316.727-2.211,2.353.091,1.395-.281,2.873,2.028,2.817,4.449-.107,8.9-.1,13.353,0,2.149.044,1.828-1.331,1.867-2.631.043-1.4.091-2.651-1.97-2.535C796.909,551.543,794.725,551.448,792.547,551.448Zm7.166-12.989c2.367,0,4.736-.034,7.1.011,1.574.03,1.52-.985,1.554-2.075.035-1.143-.314-1.749-1.592-1.739q-6.961.055-13.923,0c-1.414-.011-1.732.681-1.732,1.927,0,1.27.375,1.927,1.771,1.892C795.165,538.42,797.44,538.462,799.713,538.459Z" fill="#11157a"/>
      <path id="Path_82" data-name="Path 82" d="M838.467,570.834c5.216-.187,8.944,2.8,9.861,7.888,2.115,11.755-7.644,21.019-18.547,17.606-8.068-2.526-12.536-12.839-8.844-20.409,1.822-3.735,5.273-5.611,9.935-4.94,1.907.275,2.458-.2,2.8-1.948a13.149,13.149,0,0,1,3.266-6.207c.544-.611,1.036-1.485,2.045-.509.849.82.124,1.261-.3,1.867a25.114,25.114,0,0,0-2.265,3.581C835.061,570.658,835.3,570.947,838.467,570.834Zm-16.5,10.719c-.021,6.086,3.174,10.958,8.283,12.63,9.37,3.066,17.992-5.116,15.932-15.119-1.047-5.083-5.633-7.447-10.424-5.335a2.847,2.847,0,0,1-2.611.332C826.691,571.391,821.991,574.588,821.966,581.554Z" transform="translate(-9.026 -6.998)" fill="#fb0"/>
      <path id="Path_83" data-name="Path 83" d="M848.212,589.452A9.306,9.306,0,0,1,841,598.046c-.73.129-1.8.766-2.052-.633-.174-.977.539-1.263,1.365-1.442,3.569-.775,5.165-3.269,5.726-6.613.13-.773.148-1.545,1.26-1.476C848.537,587.956,848.188,588.845,848.212,589.452Z" transform="translate(-13.61 -13.173)" fill="#fb0"/>
    </g>
  </g>
</svg>
