<svg xmlns="http://www.w3.org/2000/svg" width="91" height="91" viewBox="0 0 91 91">
  <g id="oncologist" transform="translate(-834 -559)">
    <g id="Ellipse_22" data-name="Ellipse 22" transform="translate(834 559)" fill="#fff" stroke="#4c4f9b" stroke-width="1" opacity="0.15">
      <circle cx="45.5" cy="45.5" r="45.5" stroke="none"/>
      <circle cx="45.5" cy="45.5" r="45" fill="none"/>
    </g>
    <g id="Group_9" data-name="Group 9" transform="translate(728.362 53.525)" opacity="0.7">
      <path id="Path_84" data-name="Path 84" d="M155.567,578.065c-.758,1.721-1.327,3.022-1.9,4.318-.332.747-.852,1.332-1.724,1.026-.983-.345-1.028-1.173-.674-2.019.681-1.624,1.368-3.248,2.111-4.845a2.831,2.831,0,0,0,.142-2.528c-.416-.925-.481-2.215-1.167-2.758-.894-.71-1.665.662-2.575.954-2.583.828-5.011.66-7.064-1.154-1.034-.914-1.473-.6-2.228.254a4.921,4.921,0,0,0-1.511,4.387,22.548,22.548,0,0,1,.092,3.654,1.247,1.247,0,0,1-1.137,1.433c-.914.08-1.34-.54-1.4-1.39-.091-1.284-.193-2.571-.2-3.857,0-1.063-.468-1.439-1.492-1.372-.878.058-1.763.01-2.645.006s-1.716-.18-1.743-1.249.762-1.317,1.668-1.318l3.46,0a2.345,2.345,0,0,0,1.7-.473c1.719-1.478,1.682-2.069-.263-3.163a9,9,0,0,1-4.724-8.813c.067-1.561-.442-1.285-1.428-1.07-2.873.628-5.223,1.721-5.565,5.129a12.053,12.053,0,0,1-.862,2.914c-.247.662-.724,1.249-1.541.97a1.306,1.306,0,0,1-.886-1.778c.408-1.363.716-2.765,1.244-4.079.508-1.265.09-1.862-1.07-2.327-1.381-.552-2.694-1.271-4.069-1.84-.78-.323-1.351-.735-1.115-1.639.281-1.077,1.172-1.075,1.968-.787,1.461.529,2.894,1.146,4.3,1.8a3.708,3.708,0,0,0,3.623.192,23.127,23.127,0,0,1,2.875-.98c1.074-.4,2.434-.6,3.1-1.372.807-.934-.525-2.028-.661-3.134a6.975,6.975,0,0,1,.947-4.074c.393-.779.413-1.177-.586-1.378q-3.085-.622-6.133-1.42c-.873-.23-1.426.3-2.06.624-1.209.61-2.36,1.337-3.564,1.958-.737.38-1.612.72-2.136-.245-.475-.873-.018-1.552.812-1.994.3-.159.588-.337.883-.506,3.266-1.872,3.265-1.871,1.154-5.084-.409-.623-.847-1.23-1.206-1.881a1.235,1.235,0,0,1,.385-1.785,1.2,1.2,0,0,1,1.768.408,31.229,31.229,0,0,1,2.355,3.556,5.234,5.234,0,0,0,4.3,2.939c1.472.2,3.083,1.144,4.329.764,1.364-.416.677-2.47,1.182-3.747a9.422,9.422,0,0,1,8.512-5.912c.656-.015,1.334.287,1.977-.07-.548-3.28-2.064-5.783-5.289-7.056a15.233,15.233,0,0,1-2.457-1.43c-.7-.445-1.115-1.058-.591-1.871.508-.786,1.194-.686,1.954-.309,1.5.745,2.815,1.862,4.594,2.366.255-1.768.49-3.43.737-5.09.138-.926.1-2.085,1.478-1.988,1.615.115,1.133,1.4,1.078,2.341a13.892,13.892,0,0,1-.428,3.219c-.884,2.9.012,5.451,1.241,8,.37.768.554,1.01,1.412.38,5.7-4.192,11.093-3,14.556,3.2.476.852.768.807,1.518.422,2.457-1.265,4.395-2.865,4.662-5.875a12.464,12.464,0,0,1,.651-2.345c.221-.748.718-1.2,1.5-1.012a1.267,1.267,0,0,1,.96,1.728c-.3,1.182-.608,2.364-.978,3.525-.318,1-.107,1.5,1.018,1.642,1.41.18,2.8.5,4.2.789.832.175,1.7.5,1.513,1.549-.2,1.145-1.148,1.186-2.081,1.019a18.119,18.119,0,0,1-2.984-.619c-2.436-.88-4.44-.2-6.393,1.319-.925.722-1.178,1.009-.071,1.814a7.41,7.41,0,0,1,3.224,6.263c-.009,1.145.459,1.293,1.433,1.379a15.246,15.246,0,0,0,9.48-2.336,8.365,8.365,0,0,1,1.84-.847,1.227,1.227,0,0,1,1.651.774,1.181,1.181,0,0,1-.671,1.525,30.2,30.2,0,0,1-3.095,1.536c-1.349.544-1.769,1.08-.393,2.142.961.742,1.758,1.692,2.678,2.492.671.583.955,1.236.315,1.909a1.371,1.371,0,0,1-2.011.012c-1.439-1.236-2.853-2.5-4.276-3.758-.767-.676-4.985-1.174-5.825-.713-.583.32-.351.811-.3,1.25a11.131,11.131,0,0,1-1.214,6.69c-.433.791-.437,1.25.444,1.772,4.189,2.483,2.49,2.611,6.693-.309.722-.5,1.472-.961,2.2-1.46.752-.518,1.538-.78,2.092.156.513.867.019,1.529-.725,2.047-1.391.966-2.74,2-4.166,2.909a1.6,1.6,0,0,0-.747,2.2c.536,1.532.934,3.115,1.33,4.691.185.739.237,1.568-.7,1.871-1,.322-1.511-.273-1.773-1.168a23.406,23.406,0,0,1-1.1-3.9c-.26-2.412-1.978-3.353-3.787-4.321-.847-.453-1.092-.283-1.268.693-.985,5.467-4.74,7.749-9.889,5.959-1.3-.452-2.235.236-3.286.542-.82.239-.193.924-.072,1.367a23.79,23.79,0,0,0,4.08,8.113c.447.594.824,1.241,1.223,1.871a1.129,1.129,0,0,1-.293,1.757,1.255,1.255,0,0,1-1.805-.334C157.361,580.674,156.581,579.51,155.567,578.065ZM168.3,552.6a6.582,6.582,0,0,0-.709-3.151,3.291,3.291,0,0,1-.294-2.143c.825-3.793-.756-6.429-4.469-7.305-1.017-.24-1.239-.617-1.334-1.578-.357-3.636-2.5-5.908-5.782-6.327-2.938-.374-5.621,1.328-6.9,4.548-.448,1.131-.791,1.24-1.825.586-2.747-1.738-5.49-1.615-7.762.158s-3.042,4.382-2.077,7.487a1.83,1.83,0,0,1-.592,2.278c-2.207,1.927-2.247,4.531-.083,6.445.844.747,1.06,1.264.2,2.1a5.677,5.677,0,0,0-1.2,6.9,6.179,6.179,0,0,0,5.934,3.875,1.781,1.781,0,0,1,1.757,1.012c2.159,3.6,5.739,3.539,8.029-.06.317-.5,6.585-2.25,7.109-1.986.06.03.109.081.168.115,2.341,1.311,4.221,1.237,5.767-.225s1.821-3.273.667-5.56c-.49-.971-.316-1.35.588-1.867C167.522,556.752,168.2,554.8,168.3,552.6Z" transform="translate(0)" fill="#11157a"/>
      <path id="Path_85" data-name="Path 85" d="M171.967,578.432a5.967,5.967,0,0,1-5.927-5.749,5.9,5.9,0,0,1,11.8-.237A5.914,5.914,0,0,1,171.967,578.432Zm.06-9.041a3.126,3.126,0,0,0-3.169,3.427c0,1.7,1.256,2.814,3.241,2.889a3.151,3.151,0,0,0,2.98-3.2A3.046,3.046,0,0,0,172.027,569.391Z" transform="translate(-21.923 -21.79)" fill="#fb0"/>
      <path id="Path_86" data-name="Path 86" d="M188.733,593.5a4.825,4.825,0,0,1-4.884-4.7,5.127,5.127,0,0,1,4.869-4.819,4.974,4.974,0,0,1,4.73,4.453A4.808,4.808,0,0,1,188.733,593.5Zm1.845-4.625c-.057-1.232-.548-2.169-1.908-2.155a1.987,1.987,0,0,0-2.1,2.048,1.937,1.937,0,0,0,2,2.126A1.786,1.786,0,0,0,190.578,588.88Z" transform="translate(-29.875 -29.5)" fill="#fb0"/>
      <path id="Path_87" data-name="Path 87" d="M158.075,587.073a4.052,4.052,0,0,1,4.144,4.041,4.278,4.278,0,0,1-4.356,4.562,4.2,4.2,0,0,1-4.238-4.233C153.6,588.729,155.268,587.092,158.075,587.073Zm-.142,6.033a1.7,1.7,0,0,0,1.577-1.794,1.483,1.483,0,0,0-1.659-1.627,1.681,1.681,0,0,0-1.629,1.744C156.221,592.453,156.966,592.944,157.934,593.105Z" transform="translate(-16.379 -30.878)" fill="#fb0"/>
      <path id="Path_88" data-name="Path 88" d="M197.261,563.306a3.556,3.556,0,1,1-3.556-3.432A3.57,3.57,0,0,1,197.261,563.306Z" transform="translate(-32.689 -18.732)" fill="#fb0"/>
      <path id="Path_89" data-name="Path 89" d="M165.177,559.2a3.567,3.567,0,0,1-3.416,3.577,3.52,3.52,0,0,1-3.564-3.619,3.49,3.49,0,1,1,6.98.043Z" transform="translate(-18.42 -16.849)" fill="#fb0"/>
    </g>
  </g>
</svg>
