<svg xmlns="http://www.w3.org/2000/svg" width="91" height="91" viewBox="0 0 91 91">
  <g id="Ophthalmology" transform="translate(-834 -443)">
    <g id="Ellipse_23" data-name="Ellipse 23" transform="translate(834 443)" fill="#fff" stroke="#4c4f9b" stroke-width="1" opacity="0.15">
      <circle cx="45.5" cy="45.5" r="45.5" stroke="none"/>
      <circle cx="45.5" cy="45.5" r="45" fill="none"/>
    </g>
    <g id="Group_10" data-name="Group 10" transform="translate(339.489 -144.424)" opacity="0.7">
      <path id="Path_90" data-name="Path 90" d="M553.719,625.83c4.255,8.3,3.954,13.985-.69,18.793a13.711,13.711,0,0,1-15.743,2.783,13.2,13.2,0,0,1-7.4-13.653c1.146.293,1.419,1.437,2.12,2.077a6.409,6.409,0,0,0,9.814-8.084,6.2,6.2,0,0,0-8.211-2.258c-4.574,2.448-8.3,5.958-11.848,9.685-.8.842-1.658,2.295-3,.98s.132-2.221.908-3.056a48.284,48.284,0,0,1,13.517-10.74,21.65,21.65,0,0,1,20.751.175c5.127,2.662,9.306,6.51,13.182,10.717.708.768,1.614,1.637.529,2.664-1.219,1.153-2.054.06-2.827-.765A49.85,49.85,0,0,0,553.719,625.83Z" transform="translate(-2.707 -1.845)" fill="#fb0"/>
      <path id="Path_91" data-name="Path 91" d="M568.32,639.156c-8.974,8.9-18.1,16.98-31.912,14.977-7.953-1.154-14.1-5.815-19.744-11.18-1.5-1.421-2.622-2.777-5.259-2.083-2.657.7-4.963-2.5-4.374-5.55a6.674,6.674,0,0,1,1.231-2.834c5.445-6.778,11.488-12.908,19.308-16.986,8.936-4.659,17.857-4.485,26.688.295,7.138,3.863,12.731,9.516,17.892,15.651.7.829,1.383,1.8.286,2.707-1.126.931-1.909-.017-2.594-.83a72.929,72.929,0,0,0-12-11.708c-11.619-8.668-22.58-8.714-34.276-.128a72.33,72.33,0,0,0-12.425,12.076,3.784,3.784,0,0,0-1.168,2.527c.048,1.359.661,2.455,2.11,1.567,2.086-1.278,3.291-.282,4.635,1.138a50.988,50.988,0,0,0,10.978,8.99q12.5,7.4,25.114.2a55.889,55.889,0,0,0,10.169-7.742C564.941,638.433,565.679,638.29,568.32,639.156Z" transform="translate(0)" fill="#11157a"/>
    </g>
  </g>
</svg>
