<svg xmlns="http://www.w3.org/2000/svg" width="91" height="91" viewBox="0 0 91 91">
  <g id="orthopedics" transform="translate(-388 -448)">
    <g id="Ellipse_7" data-name="Ellipse 7" transform="translate(388 448)" fill="#fff" stroke="#4c4f9b" stroke-width="1" opacity="0.15">
      <circle cx="45.5" cy="45.5" r="45.5" stroke="none"/>
      <circle cx="45.5" cy="45.5" r="45" fill="none"/>
    </g>
    <g id="Orthopedics-2" data-name="Orthopedics" transform="translate(354.791 300.051)" opacity="0.7">
      <path id="Path_25" data-name="Path 25" d="M87.419,184.108c.751,3.1,1.1,6.146-.924,8.97a5.666,5.666,0,0,1-7.912,1.787c-2.07-1.251-3-3-1.528-5.094,2.3-3.276,1.2-6.014-.777-8.845-4.605-6.581-10.373-12.041-16.408-17.253-1.111-.959-2.731-1.817-.575-3.328,1.463-1.026,2.136-3.961,4.9-1.165,8.011,8.092,16.018,16.172,23.229,25Z" transform="translate(-1.296 -0.4)" fill="#11157a"/>
      <path id="Path_26" data-name="Path 26" d="M104.746,223.49c-.081.9.592,2.164-1.232,2.321-1.677.144-1.944-.79-2.074-2.113-1-10.272-1.993-20.549-2.285-30.868A22.047,22.047,0,0,0,95.1,180.507,133.344,133.344,0,0,0,76.368,158.83c-.765-.714-2.55-1.217-.921-2.954,1.455-1.554,2.167-.356,3.076.475a125.948,125.948,0,0,1,20.612,24.274,17.054,17.054,0,0,1,3.018,8.406C102.758,200.52,103.55,211.993,104.746,223.49Z" transform="translate(-3.594)" fill="#11157a"/>
      <path id="Path_27" data-name="Path 27" d="M73.4,204.994c-.271,7.5,1.571,14.678,3.4,21.861.208.819,1.434,2.1-.517,2.5a1.977,1.977,0,0,1-2.632-1.6c-2.2-8.106-4.214-16.28-3.533-24.734.44-5.455-1.311-8.86-6.427-11.158-4.67-2.1-8.954-5.061-13.365-7.716-.646-.389-2.155-.67-1-2.053.8-.96,1.518-1.62,2.93-.657a161.023,161.023,0,0,0,16.172,9.3c3.357,1.757,4.815,4.778,4.963,8.461C73.465,201.128,73.4,203.063,73.4,204.994Z" transform="translate(0 -3.589)" fill="#11157a"/>
      <path id="Path_28" data-name="Path 28" d="M92.982,220.162c-.961-2.855-.973-5.607-2.874-8.12-1.047,3.242,1.38,7.146-3.2,8.93-.174-2.666-.359-5.276-.508-7.889-.077-1.352-.341-2.312-1.894-2.936-2.434-.977-2.088-2.772-.441-4.291a11.26,11.26,0,0,1,8.272-3.02,4.985,4.985,0,0,1,4.616,2.99,10.491,10.491,0,0,1-2.223,12.7C94.274,218.97,93.8,219.4,92.982,220.162Z" transform="translate(-4.701 -6.626)" fill="#fb0"/>
      <path id="Path_29" data-name="Path 29" d="M100.358,221.781c.261,5.007.475,10.017.8,15.02.138,2.1-1.238,1.98-2.5,1.812s-3.264,1-3.362-1.628c-.117-3.111-.386-6.222-.341-9.33C95,224.515,98.172,223.683,100.358,221.781Z" transform="translate(-6.395 -9.258)" fill="#fb0"/>
      <path id="Path_30" data-name="Path 30" d="M90.818,225.072c.6,4.408,1.13,8.094,1.582,11.79.1.829.706,2-.9,2.221-1.4.189-2.187-.237-2.347-1.795-.262-2.545-.605-5.089-1.07-7.605C87.681,227.493,89.37,226.789,90.818,225.072Z" transform="translate(-5.433 -9.715)" fill="#fb0"/>
      <path id="Path_31" data-name="Path 31" d="M92.136,188.251c1.7-1.2,3.256-1.512,4.512.636,1.243,2.127,1.276,6.4-.106,7.234-1.475.893-2.224.136-2.223-1.4a9.807,9.807,0,0,0-2.189-6.533A.372.372,0,0,0,92.136,188.251Z" transform="translate(-6.003 -4.47)" fill="#11157a"/>
    </g>
  </g>
</svg>
