<svg xmlns="http://www.w3.org/2000/svg" width="91" height="91" viewBox="0 0 91 91">
  <g id="pediatrician" transform="translate(-949 -443)">
    <g id="Ellipse_24" data-name="Ellipse 24" transform="translate(949 443)" fill="#fff" stroke="#4c4f9b" stroke-width="1" opacity="0.15">
      <circle cx="45.5" cy="45.5" r="45.5" stroke="none"/>
      <circle cx="45.5" cy="45.5" r="45" fill="none"/>
    </g>
    <g id="Group_14" data-name="Group 14" transform="translate(326.224 397.013)" opacity="0.7">
      <g id="Group_13" data-name="Group 13" transform="translate(639.572 57.326)">
        <path id="Path_95" data-name="Path 95" d="M693.921,87.789q-6.874-2.841-13.807-5.535c-1.655-.642-2.241-1.138-.843-2.863,3.3-4.077,2.689-8.845,1.835-13.567a2.443,2.443,0,0,0-.543-.992c-.5-.635-.979-.023-1.433.122-.5.161-.439.565-.152.9,0,0,1.779,6.518.014,10.5a11.947,11.947,0,0,1-17.119,4.567,11.8,11.8,0,0,1,10.9-20.818,14.587,14.587,0,0,1,4,2.616,1.363,1.363,0,0,0,1.888.047c.617-.639-.258-1.056-.643-1.432a13.082,13.082,0,0,0-13.8-3.269c-9.271,3.04-12.413,13.615-6.557,21.419,1.4,1.863.576,2.165-.967,2.758-4.629,1.778-9.232,3.624-13.824,5.5a4.7,4.7,0,0,0-3.169,5.816c.139.745.2,1.85,1.1,1.741.777-.095.792-1.165.611-1.918-.49-2.037.532-3.254,2.242-3.954,5.224-2.139,10.477-4.209,15.721-6.3a3.25,3.25,0,0,1,2.831.179,13.554,13.554,0,0,0,12.372-.019,3.217,3.217,0,0,1,2.838-.152c5.241,2.094,10.493,4.16,15.727,6.27a3.072,3.072,0,0,1,1.931,4.274c-.749,1.716-2.226,2-3.848,1.412-2.439-.883-4.824-1.913-7.263-2.8-4.75-1.722-4.834-1.7-4.844,3.343a3.028,3.028,0,0,1-.445,1.846V100.5a1.252,1.252,0,0,1,.26.684c.114,1.049-.621,1.416-1.531,1.647-2.419.615-3.521,2.506-4.323,4.644a26.462,26.462,0,0,0-1.2,3.454c-.47,2.1-1.953,2.647-3.76,2.536-1.74-.107-3.263-.591-3.636-2.767a18.731,18.731,0,0,0-1.405-4.1,5.905,5.905,0,0,0-4.026-3.77c-.921-.226-1.565-.6-1.442-1.686a1.174,1.174,0,0,1,.389-.834V97.875c-.731-.42-.362-1.423-.434-3.828-.014-.46.012-.922-.008-1.381-.067-1.5-.636-2.086-2.209-1.436-3.314,1.371-6.678,2.617-10,3.963-.662.268-1.654.524-1.311,1.56.392,1.184,1.256.486,1.9.242,2.573-.972,5.158-1.921,7.68-3.014,1.441-.625,1.986-.276,1.994,1.239.01,1.918.06,3.836.1,5.755a2.6,2.6,0,0,1-1.261,2.476c-2.507,1.7-3.339,3.922-2.431,6.777,1.365,4.293,2.9,8.534,4.466,12.761a4.4,4.4,0,0,0,2.291,2.424,5.794,5.794,0,0,0,8.1-7.679c-.653-1.581-.689-2.278,1.423-2.273,3.136.008,1.46,1.745,1.091,2.795-1.115,3.171.05,6.158,3.052,7.406,3.177,1.32,6.378.185,7.617-2.933,1.437-3.615,2.635-7.324,3.968-10.981,1.25-3.432,1.163-6.466-2.374-8.56-.639-.378-.578-1.034-.59-1.637-.021-1.074-.006-2.149-.009-3.223,0-1,.059-2-.017-2.992-.146-1.936.676-2,2.181-1.34,2.309,1.009,4.669,1.9,7.024,2.8,2.815,1.076,5.558.106,6.592-2.284A4.946,4.946,0,0,0,693.921,87.789Zm-32.647,36.439a3.418,3.418,0,0,1-3.346-2.515q-2.249-5.854-4.21-11.818a4.03,4.03,0,0,1,2.234-5.153,3.777,3.777,0,0,1,5.061,2.33c1.646,4.09,3.15,8.247,4.466,12.454C666.269,122.049,664.307,124.242,661.274,124.229ZM682.8,108.81c.077,2.09-1.173,3.865-1.746,5.838-.7,2.416-1.65,4.763-2.559,7.114a3.912,3.912,0,1,1-7.324-2.749c1.441-4.022,2.837-8.063,4.416-12.03.864-2.174,2.594-2.973,4.619-2.3A3.563,3.563,0,0,1,682.8,108.81Z" transform="translate(-639.572 -57.326)" fill="#11157a" stroke="#11157a" stroke-width="1"/>
        <path id="Path_96" data-name="Path 96" d="M683.282,145.865a27.516,27.516,0,0,1-2.926-.082v1.961c.241-.012.413,0,.643,0,2.909-.044,5.818-.018,8.728-.018s5.818-.016,8.728.011a5.011,5.011,0,0,1,.79.047v-2.058a3.536,3.536,0,0,1-1.227.158C693.106,145.811,688.194,145.867,683.282,145.865Z" transform="translate(-661.034 -105.012)" fill="#fb0" stroke="#fb0" stroke-width="2"/>
      </g>
      <path id="Path_97" data-name="Path 97" d="M642.53,138.545a5.086,5.086,0,0,0,4.085,1.6" transform="translate(-1.596 -43.814)" fill="none" stroke="#000" stroke-miterlimit="10" stroke-width="1"/>
    </g>
  </g>
</svg>
