<svg xmlns="http://www.w3.org/2000/svg" width="91" height="91" viewBox="0 0 91 91">
  <g id="plastic_surgery" transform="translate(-207 -352)">
    <g id="Ellipse_2" data-name="Ellipse 2" transform="translate(207 352)" fill="#fff" stroke="#4c4f9b" stroke-width="1" opacity="0.15">
      <circle cx="45.5" cy="45.5" r="45.5" stroke="none"/>
      <circle cx="45.5" cy="45.5" r="45" fill="none"/>
    </g>
    <g id="Plastic_Surgery-2" data-name="Plastic Surgery" transform="translate(171.74 96.415)" opacity="0.6">
      <path id="Path_32" data-name="Path 32" d="M80.52,263.257c13.526.174,23.86,8.368,25.772,20.56a26.649,26.649,0,0,1-2.885,16.419c-1.226,2.429-2.5,4.834-3.773,7.241A13.55,13.55,0,0,0,99.6,320.8c1.406,2.676,2.918,5.295,4.381,7.94.536.969,1.354,2.073.034,2.9-1.448.91-2.169-.295-2.809-1.371-.824-1.387-1.6-2.8-2.47-4.162-5-7.817-5.261-15.586-.184-23.551,3.131-4.91,5.208-10.273,4.834-16.27-.663-10.653-8.736-18.541-20.187-19.783a25.8,25.8,0,0,0-24.864,12.935c-1.281,2.325-2.429,4.823-2.093,7.471.523,4.122-1.026,7.48-3.084,10.776-.48.769-.924,1.562-1.385,2.344-2.27,3.845-2.286,3.9,1.9,5.1,1.593.456,2.322,1.189,1.613,2.8-.719,1.638-.212,2.419,1.546,2.553.919.07,1.885.248,1.965,1.453.075,1.141-.611,1.661-1.671,1.674-1.027.012-1.145.463-.877,1.338a3.862,3.862,0,0,1,.036,1.5c-.575,5.253-.492,5.41,4.633,6.422,2.273.449,4.572.772,6.863,1.125a9.3,9.3,0,0,1,7.792,7.061c.2.837.264,1.624-.637,2.1a1.415,1.415,0,0,1-2.181-.882c-1.4-4.677-5.129-5.416-9.222-5.784a22.911,22.911,0,0,1-7.872-2.034c-1.5-.715-3.325-1.794-2.962-3.453.922-4.205-3.027-7.794-1.184-12.036.479-1.1-.742-1.14-1.473-1.391-3.883-1.335-4.507-2.975-2.5-6.575.638-1.145,1.335-2.257,1.99-3.392,1.992-3.458,3.635-6.711,3.633-11.159-.006-9.658,9.091-19.212,19.877-22.245A26.559,26.559,0,0,1,80.52,263.257Z" transform="translate(0)" fill="#11157a"/>
      <path id="Path_33" data-name="Path 33" d="M97,297.191a6.416,6.416,0,0,1,5.9,3.522,6.585,6.585,0,0,1-.389,7.409,60.48,60.48,0,0,0-4.686,6.608c-1.024,1.885-2.994,2.293-5.022,1.749a4.207,4.207,0,0,1-3.053-3.415,1.7,1.7,0,0,1,1.071-2.2c.941-.333,1.533.2,1.873,1.033,1.049,2.578,2.168,2,3.125,0a18.884,18.884,0,0,1,3.353-4.606c1.717-1.863,2.12-3.91.271-5.909-1.593-1.723-3.553-1.455-5.678.73-.762.783-1.458,1.554-2.509.639-.978-.851-.534-1.829.073-2.695A6.427,6.427,0,0,1,97,297.191Z" transform="translate(-8.332 -6.538)" fill="#fb0"/>
      <path id="Path_34" data-name="Path 34" d="M67.413,303.48c-2.009-.366-3.086-2.311-4.054-3.862-.743-1.19.74-1.874,1.978-1.58,2.038.484,4.033,1.138,6.049,1.715.843.241,1.472.7,1.439,1.652-.033.974-.712,1.356-1.579,1.49C70.061,303.077,68.877,303.256,67.413,303.48Z" transform="translate(-3.224 -6.688)" fill="#fb0"/>
      <path id="Path_35" data-name="Path 35" d="M74.287,289.852c-.769-.169-2.005.392-2.031-1.074-.023-1.26,1.047-1.039,1.78-.973.823.074,2.092-.253,2.222.957C76.413,290.2,75.165,289.828,74.287,289.852Z" transform="translate(-4.976 -4.719)" fill="#fb0"/>
      <path id="Path_36" data-name="Path 36" d="M64.2,308.638c-.1.764-.444,1.507-1.025,1.347-1.32-.365-1.908-1.59-2.376-2.774-.249-.632.332-.944.807-.943C63.227,306.271,63.206,308.043,64.2,308.638Z" transform="translate(-2.758 -8.287)" fill="#fb0"/>
      <path id="Path_37" data-name="Path 37" d="M68.251,290.046c-.462,1.191-1.817,1.254-2.814,1.743-.653.32-1.264-.5-1.141-.979.341-1.342,1.718-1.444,2.788-1.83C67.832,288.709,68.175,289.191,68.251,290.046Z" transform="translate(-3.44 -4.942)" fill="#fb0"/>
      <path id="Path_38" data-name="Path 38" d="M84.023,291.415c-.241.8-.59,1.469-1.234,1.181-1.033-.462-2.311-.772-2.78-1.943-.167-.417.216-1.332.934-1.156A5.87,5.87,0,0,1,84.023,291.415Z" transform="translate(-6.463 -5.051)" fill="#fb0"/>
      <path id="Path_39" data-name="Path 39" d="M76.136,312.689a.759.759,0,0,1-.911-.927c.207-1.612,1.812-1.574,2.847-2.127.482-.258,1.278.624,1.093,1.075C78.633,312.008,77.2,312.182,76.136,312.689Z" transform="translate(-5.547 -8.927)" fill="#fb0"/>
      <path id="Path_40" data-name="Path 40" d="M67.009,312.3c.269-1.033.745-1.51,1.567-1.053.851.474,2.46-.409,2.572,1.335.068,1.058-.751,1.055-1.461.859C68.73,313.173,67.453,313.461,67.009,312.3Z" transform="translate(-3.965 -9.212)" fill="#fb0"/>
      <path id="Path_41" data-name="Path 41" d="M73.466,331.117c-.895.127-1.774.157-1.682-.813.145-1.512,1.653-1.016,2.556-1.387.713-.294,1.528-.135,1.456.828C75.677,331.314,74.186,330.76,73.466,331.117Z" transform="translate(-4.884 -12.625)" fill="#fb0"/>
      <path id="Path_42" data-name="Path 42" d="M83.725,327.1c-.641.983-1.84,1.224-2.885,1.653a.82.82,0,0,1-1.209-.861c.221-1.47,1.762-1.4,2.741-1.939C83.092,325.55,83.362,326.34,83.725,327.1Z" transform="translate(-6.395 -12.058)" fill="#fb0"/>
      <path id="Path_43" data-name="Path 43" d="M65.6,331.975c-.737-.151-1.9.316-1.928-.849-.039-1.62,1.374-1.025,2.243-1.092.723-.056,1.792-.3,1.731.962C67.576,332.461,66.32,331.737,65.6,331.975Z" transform="translate(-3.323 -12.855)" fill="#fb0"/>
    </g>
  </g>
</svg>
