<svg xmlns="http://www.w3.org/2000/svg" width="91" height="91" viewBox="0 0 91 91">
  <g id="psychiatrist" transform="translate(-945 -559)">
    <g id="Ellipse_25" data-name="Ellipse 25" transform="translate(945 559)" fill="#fff" stroke="#4c4f9b" stroke-width="1" opacity="0.15">
      <circle cx="45.5" cy="45.5" r="45.5" stroke="none"/>
      <circle cx="45.5" cy="45.5" r="45" fill="none"/>
    </g>
    <g id="Group_16" data-name="Group 16" transform="translate(171.864 434.713)" opacity="0.7">
      <g id="Group_15" data-name="Group 15" transform="translate(789.967 135.785)">
        <path id="Path_98" data-name="Path 98" d="M839.953,164.781c3.331,1.825,4.008,4.024,2.637,7.325-1.75,4.215-3.249,8.507-6.957,11.484-2.264,1.818-2.64,4.164-2.067,6.809.321,1.479.637,2.964,1.061,4.415,1.7,5.824.875,7.318-4.906,8.94a37.236,37.236,0,0,1-16.079,1.3c-4.837-.771-5.989-1.923-6.528-6.787-.291-2.617-.992-3.945-4.116-3.947-5.942,0-7.239-2.222-8.659-7.576-1.018-3.839-.208-8.226-3.394-11.655-1.761-1.9-.948-4.8.881-6.574,2.594-2.521,3.112-5.273,3.029-8.808-.209-8.827,6.664-16.022,16.732-18.229a14.8,14.8,0,0,1,2.233-.38c1.121-.069,2.881-1.192,3.124.605a2.845,2.845,0,0,1-2.812,3.341,17.085,17.085,0,0,0-7.826,2.6c-5.38,3.261-8.461,7.845-7.542,14.438.462,3.322-1.079,5.858-3.061,8.228-.807.964-2.176,2.746-.891,3.053,4.716,1.126,2.384,5.147,2.515,7.139.178,2.682,3.1,4.963,1.193,7.972-.372.586,1.166,1.5,2.207,1.616a38.655,38.655,0,0,0,4.88.348c2.863-.034,4.288,1.151,4.8,4.109,1.2,6.95,1.372,6.917,8.381,7a41.909,41.909,0,0,0,9.33-1.3c2.721-.585,3.991-1.9,2.763-4.763a17.3,17.3,0,0,1-.647-2.177c-1.354-4.835-1.533-9.045,2.913-12.956C837.554,176.465,837.687,174.816,839.953,164.781Z" transform="translate(-789.967 -136.936)" fill="#11157a"/>
        <path id="Path_99" data-name="Path 99" d="M826.622,147.979a12.077,12.077,0,0,1,7.2-11.127,11.223,11.223,0,0,1,12.675,2.119c3.618,3.333,5.321,7.629,3.256,12.319-1.358,3.084-.567,4.879,1.7,6.751a37.092,37.092,0,0,1,3.481,3.479c.855.922,1.935,1.971.7,3.248-1.356,1.4-2.547.348-3.576-.614a41.512,41.512,0,0,1-3.71-3.769c-1.6-1.93-2.939-2.576-5.719-1.493A11.787,11.787,0,0,1,826.622,147.979Zm4.065-.039a7.985,7.985,0,1,0,15.97-.129,8.14,8.14,0,0,0-7.9-7.99A7.986,7.986,0,0,0,830.687,147.94Z" transform="translate(-798.566 -135.785)" fill="#fb0"/>
        <path id="Path_100" data-name="Path 100" d="M841.119,143.174c2.117,0,3.947.664,3.949,3.063,0,2.361-2.074,3.533-3.688,4.862-.139.114-.794-.111-.935-.344-.465-.775.024-1.419.485-2.022.724-.947,2.31-1.82,1.212-3.147-1.317-1.59-2.035.335-3,.892a1.538,1.538,0,0,1-1.367-.069c-.723-.512-.1-1.14.154-1.628A3.282,3.282,0,0,1,841.119,143.174Z" transform="translate(-801.104 -137.519)" fill="#fb0"/>
      </g>
      <path id="Path_101" data-name="Path 101" d="M843.2,152.5s-1.531,0-.766,2.3" transform="translate(-12.259 -3.921)" fill="none" stroke="#fb0" stroke-miterlimit="10" stroke-width="2.2"/>
      <circle id="Ellipse_30" data-name="Ellipse 30" cx="1.148" cy="1.148" r="1.148" transform="translate(829.027 152.023)" fill="#fb0"/>
    </g>
  </g>
</svg>
