<svg xmlns="http://www.w3.org/2000/svg" width="91" height="91" viewBox="0 0 91 91">
  <g id="pulmanology" transform="translate(-590 -352)">
    <g id="Ellipse_11" data-name="Ellipse 11" transform="translate(590 352)" fill="#fff" stroke="#4c4f9b" stroke-width="1" opacity="0.15">
      <circle cx="45.5" cy="45.5" r="45.5" stroke="none"/>
      <circle cx="45.5" cy="45.5" r="45" fill="none"/>
    </g>
    <g id="Pulmanology-2" data-name="Pulmanology" transform="translate(463.17 200.346)" opacity="0.7">
      <path id="Path_18" data-name="Path 18" d="M188.931,197.94c2.046.512,2.915,1.487,2.889,3.512a46.173,46.173,0,0,0,.986,10.731c1.226,5.465,3.818,7.825,9.351,8.382a26.668,26.668,0,0,0,5.236.078c7.165-.7,6.259,1.045,6.272-7,.012-6.824-.468-13.621-2.679-20.164-2.45-7.249-6.707-12.916-14.063-15.788-3.656-1.428-4.741-.707-4.949,3.254-.086,1.634-.014,3.276-.014,5.049-2.39-.439-3.33-1.569-3.062-3.682.1-.768,0-1.56.075-2.331.511-5.17,3.319-7.025,8.247-5.352A24.966,24.966,0,0,1,212,187.921c3.235,6.608,4.217,13.725,4.542,20.954.17,3.788.034,7.589.116,11.383.036,1.662-.617,2.554-2.288,2.733-4.737.507-9.454,1.216-14.239.36-4.879-.872-8.109-3.574-9.591-8.29C188.795,209.525,188.72,203.834,188.931,197.94Z" transform="translate(-11.325 -2.505)" fill="#11157a"/>
      <path id="Path_19" data-name="Path 19" d="M162.21,186.082c0-1.949.064-3.6-.013-5.245-.175-3.757-1.321-4.526-4.788-3.239a22.21,22.21,0,0,0-12.117,10.83c-3.092,5.793-4.19,12.1-4.617,18.543-.244,3.684-.091,7.392-.195,11.087-.041,1.437.453,2.172,1.943,2.26,3.394.2,6.764.633,10.189.21,4.507-.557,7.276-2.979,8.434-7.293a38.676,38.676,0,0,0,1.21-11.57c-.076-1.965.6-3.127,2.872-3.713.136,6.844.462,13.573-2.775,19.837a10.413,10.413,0,0,1-7.318,5.324c-5.232,1.216-10.451.456-15.664-.235-1.313-.174-1.786-.946-1.805-2.2-.142-9.347-.327-18.7,2.558-27.764,2.639-8.292,7.469-14.7,15.8-17.97,2.474-.972,5.172-1.854,7.39.36,2.476,2.469,1.928,5.787,1.7,8.857C164.94,185.23,163.673,185.671,162.21,186.082Z" transform="translate(0 -2.482)" fill="#11157a"/>
      <path id="Path_20" data-name="Path 20" d="M156.131,209c-1.988,2.386-3.63,4.381-5.3,6.349-.477.561-.991,1.433-1.863.6-.684-.656-.038-1.251.343-1.782,6.236-8.679,14.25-15.371,23.315-20.9,1.15-.7,1.956-.281,2.918.308,8.635,5.28,16.3,11.637,22.309,19.868.171.236.376.448.542.687.432.622,1.164,1.308.21,1.972-.738.514-1.245-.179-1.677-.7-1.659-2-3.3-4.006-5.217-6.329-.512,1.978-.871,3.472-1.292,4.949-.193.676-.55,1.357-1.429,1.027-.688-.259-.6-.886-.409-1.479.122-.369.211-.75.326-1.122,1.1-3.59.539-6.515-2.711-8.948-3.587-2.684-7.248-5.243-10.93-7.786a2.175,2.175,0,0,0-2.866.044c-3.532,2.419-7,4.926-10.481,7.411-3.592,2.562-4.342,5.681-3.035,9.635.248.75,1.063,1.8-.2,2.226-1.182.4-1.349-.826-1.571-1.617C156.77,212.2,156.555,210.953,156.131,209Z" transform="translate(-2.463 -6.666)" fill="#fb0"/>
      <path id="Path_21" data-name="Path 21" d="M156.022,192.994c-2.106-.342-3.893-.278-5.452-1.164-.589-.334-1.325-.711-.891-1.547.318-.613.984-.5,1.551-.26,4.617,1.984,8.221-.187,12.273-2.259,6.071-3.1,8.226-7.439,7.246-14-.454-3.048-.084-6.222-.069-9.339,0-.765-.059-1.776,1.007-1.751,1.044.024.963,1.028.963,1.8.005,5.746-.016,11.492.009,17.238a3.975,3.975,0,0,1-2.177,3.535c-7.42,4.723-14.55,9.789-19.97,16.884-.435.569-.992,1.448-1.867.581-.673-.667-.058-1.273.372-1.766C151.242,198.388,153.5,195.856,156.022,192.994Z" transform="translate(-2.393)" fill="#fb0"/>
      <path id="Path_22" data-name="Path 22" d="M199.166,193.11c2.4,2.706,4.6,5.163,6.769,7.645.5.567,1.225,1.269.443,2-.868.816-1.419-.136-1.845-.694-5.351-7-12.365-12.035-19.711-16.666a4.335,4.335,0,0,1-2.323-4.03c.068-5.54.009-11.082.038-16.623,0-.806-.254-2.1.975-2.036,1.146.057.877,1.315.88,2.147.018,5.152.076,10.306-.027,15.456a3.829,3.829,0,0,0,2.013,3.81c2.327,1.4,4.522,3.023,6.78,4.543,3.157,2.126,6.523,2.935,10.222,1.591.694-.252,1.581-.927,2,.108.461,1.148-.683,1.5-1.469,1.719C202.448,192.5,200.939,192.738,199.166,193.11Z" transform="translate(-9.925 -0.007)" fill="#fb0"/>
    </g>
  </g>
</svg>
