<svg xmlns="http://www.w3.org/2000/svg" width="91" height="91" viewBox="0 0 91 91">
  <g id="radiology" transform="translate(-288 -352)">
    <g id="Ellipse_6" data-name="Ellipse 6" transform="translate(288 352)" fill="#fff" stroke="#4c4f9b" stroke-width="1" opacity="0.15">
      <circle cx="45.5" cy="45.5" r="45.5" stroke="none"/>
      <circle cx="45.5" cy="45.5" r="45" fill="none"/>
    </g>
    <g id="Radiology-2" data-name="Radiology" transform="translate(138.073 96.71)" opacity="0.7">
      <path id="Path_44" data-name="Path 44" d="M181.17,329.93c0-4.211.081-8.423-.039-12.631-.049-1.718.46-2.413,2.765-2.388q13.917.151,27.838,0c2.262-.024,2.859.589,2.841,2.351q-.128,12.631,0,25.263c.017,1.73-.515,2.414-2.8,2.39q-13.917-.143-27.838,0c-2.24.022-2.868-.58-2.81-2.353C181.263,338.353,181.17,334.141,181.17,329.93Zm18.17,7.015.593.032c.2.415.435.82.6,1.245.729,1.915,1.951,3.52,4.736,2.965,3.317-.661,3.123-3.011,2.992-5.14-.162-2.64-2.723-1.443-4.341-1.7-.646-.1-1.353.051-2.007-.035-.965-.128-2.591.474-2.541-1.006.043-1.275,1.514-.76,2.384-.795,1.9-.079,3.8-.006,5.7-.035,1.077-.016,2.529.149,2.473-1.17-.045-1.077-1.353-1.021-2.353-1.032-2.237-.024-4.476-.008-6.713-.034-.642-.007-1.418.038-1.5-.729-.108-.961.763-.964,1.552-.969,2.573-.018,5.148.018,7.719-.035,1.141-.023,2.85.31,2.79-1.2-.049-1.269-1.613-.986-2.667-1-2.573-.038-5.146-.009-7.719-.026-.768-.005-1.7.065-1.681-.889s.983-.846,1.725-.858c2.236-.037,4.476-.011,6.712-.05,1.015-.018,2.244-.07,2.16-1.207-.069-.939-1.193-.933-2.095-.94-2.35-.017-4.7-.012-7.049-.025-.693,0-1.4-.068-1.488-.789-.112-.9.636-1.043,1.5-1.057,1.341-.021,2.684-.026,4.022-.09a1.137,1.137,0,0,0,1.168-.837c.1-.638-.4-1.016-1.133-1.148-2.343-.418-5.211.6-6.887-1.684a.825.825,0,0,0-.593.052c-1.449,2.185-4.019,1.341-6.194,1.556-.848.084-1.6.345-1.537,1.151s.891.958,1.717.973c1.119.019,2.238.014,3.357.02.807,0,1.665.005,1.682.914s-.826.946-1.643.947c-2.014,0-4.032-.054-6.041.03-1.1.046-2.881-.513-2.962.977s1.684,1.124,2.821,1.162c1.787.061,3.583-.032,5.368.043.886.037,2.318-.407,2.4.823.087,1.323-1.388.9-2.264.917-2.572.059-5.146.015-7.719.032-1,.007-2.26-.033-2.215,1.114.042,1.095,1.277,1.089,2.293,1.095,2.685.015,5.37-.01,8.055.027.816.012,2-.219,1.88.967-.1.947-1.123.721-1.831.734-2.348.043-4.7.012-7.048.04-.967.012-1.868.255-1.8,1.221.057.806.89.961,1.722.968a30.787,30.787,0,0,1,4.353.058c1.552.242,4.429-1.056,4.394.916-.03,1.722-2.951.781-4.551.837-4.263.149-5.392,1.256-4.16,4.552a3.568,3.568,0,0,0,3.257,2.439,3.822,3.822,0,0,0,3.789-1.81c.538-.8.53-1.861,1.987-2.853a18.928,18.928,0,0,0,.017,2.322c.132.9-.523,2.37,1.368,2.29,1.734-.073,1.147-1.5,1.288-2.429C199.27,338.181,199.289,337.562,199.34,336.945Z" transform="translate(-2.778 -12.28)" fill="#fb0"/>
      <path id="Path_45" data-name="Path 45" d="M216.209,329.4a70.063,70.063,0,0,0-1.926-18.575c-1.163-5.367-5.939-7.174-10.574-9.292a1.473,1.473,0,0,0-1.712.233,11.957,11.957,0,0,1-1.145.939c-6.361,4.4-5.327,4.533-11.6-.065a3.85,3.85,0,0,0-4.362-.558c-5.912,2.283-8.924,6.09-9.863,11.722a98.442,98.442,0,0,0-.846,23.862c.072.947,1.234,2.55-1.235,2.7-2.238.135-1.848-1.448-1.917-2.493-.6-9.263-.615-18.469,1.6-27.649,1.732-7.164,8.116-9.506,14.563-12.009a1.989,1.989,0,0,1,2.249.561,10.042,10.042,0,0,0,1.031,1.036c4.917,3.88,4.314,4.081,9.09-.114,1.739-1.527,3.094-1.9,5.135-.888,1.637.815,3.334,1.534,4.988,2.323a13.5,13.5,0,0,1,7.722,9.158c2.555,9.431,2.183,18.924,1.56,28.459-.074,1.137-.548,1.639-1.9,1.613-1.637-.032-1.5-.961-1.437-1.9Q215.916,333.933,216.209,329.4Z" transform="translate(0 -7.799)" fill="#11157a"/>
      <path id="Path_46" data-name="Path 46" d="M205.1,278.579a15,15,0,0,1-3.4,9c-2.985,3.52-7.218,3.477-10.128-.116a14.892,14.892,0,0,1-3.318-9.69c.038-5.4,3.674-9.106,8.642-9C201.728,268.876,205.067,272.6,205.1,278.579Zm-14.009-.448a13.05,13.05,0,0,0,2.078,6.749c2.113,3.2,4.874,3.232,6.98.073a12.94,12.94,0,0,0,2.166-6.726c.161-3.9-2.291-6.692-5.717-6.655C193.277,271.607,191.034,274.278,191.088,278.131Z" transform="translate(-1.648)" fill="#11157a"/>
    </g>
  </g>
</svg>
