<svg xmlns="http://www.w3.org/2000/svg" width="91" height="91" viewBox="0 0 91 91">
  <g id="rheumatology" transform="translate(-1084 -439)">
    <g id="Ellipse_27" data-name="Ellipse 27" transform="translate(1084 439)" fill="#fff" stroke="#4c4f9b" stroke-width="1" opacity="0.15">
      <circle cx="45.5" cy="45.5" r="45.5" stroke="none"/>
      <circle cx="45.5" cy="45.5" r="45" fill="none"/>
    </g>
    <g id="Group_17" data-name="Group 17" transform="translate(26.845 455.285)" opacity="0.7">
      <path id="Path_102" data-name="Path 102" d="M1149.31,142.861a6.678,6.678,0,0,1,8.038-1.53,3.584,3.584,0,0,0,2.894-.1c2.83-1.109,5.53-.97,7.9,1.082a7.108,7.108,0,0,1-1.124,11.637,1.928,1.928,0,0,0-1.1,2.033c.119,5.12.168,10.241.227,15.361.006.5.237,1.26-.571,1.285-.834.025-.609-.766-.617-1.248-.1-5.528-.156-11.057-.263-16.585a1.421,1.421,0,0,1,1-1.525,5.953,5.953,0,1,0-4.445-11.045,6.417,6.417,0,0,1-4.979.067c-2.415-1.005-4.874-.158-6.592,2.069a5.543,5.543,0,0,0-.169,6.815,5.43,5.43,0,0,0,2.9,2.333c.774.217.951.676.959,1.4.064,5.574.152,11.148.229,16.722.007.488.113,1.149-.57,1.181-.865.039-.624-.749-.632-1.223q-.144-7.815-.232-15.631c-.009-.711-.04-1.264-.866-1.613C1147.113,152.566,1145.578,146.224,1149.31,142.861Z" transform="translate(-53.712 -107.09)" fill="#11157a" stroke="#11157a" stroke-width="2"/>
      <path id="Path_103" data-name="Path 103" d="M1148.3,23.665a7.132,7.132,0,0,1,1.369-11.379,1.934,1.934,0,0,0,1.145-2.007c-.131-4.983-.172-9.968-.244-14.952,0-.317-.013-.635,0-.952.012-.379.074-.775.548-.8.556-.024.626.414.654.84.015.226.01.453.014.68.077,5.347.126,10.7.254,16.041a1.755,1.755,0,0,1-1.237,1.93,5.941,5.941,0,0,0,4.523,10.981,7.152,7.152,0,0,1,4.994-.112c3.753,1.194,6.309-.392,7.572-3.562a5.8,5.8,0,0,0-3.631-7.682,1.2,1.2,0,0,1-.893-1.316c-.065-5.619-.152-11.237-.229-16.856-.007-.5-.083-1.134.631-1.119.746.016.558.712.566,1.163.09,5.21.177,10.421.216,15.633a1.7,1.7,0,0,0,1.045,1.783,6.844,6.844,0,0,1,3.765,7.808,7.112,7.112,0,0,1-7.481,5.806,6.845,6.845,0,0,1-2.345-.629,4.29,4.29,0,0,0-3.419.1A7.047,7.047,0,0,1,1148.3,23.665Z" transform="translate(-52.895)" fill="#11157a" stroke="#11157a" stroke-width="2"/>
      <path id="Path_104" data-name="Path 104" d="M1091.2,129.2a15.845,15.845,0,0,0,2.1,2.973c.866,1.238.808,1.462-.639,1.758-2.264.463-4.534.9-6.8,1.36-.294.06-.708,0-.818.364s.305.5.484.741c.526.706,1.821,1.127,1.561,2.045-.3,1.05-1.638.678-2.514.854-2.353.472-4.733.812-7.1,1.19-.428.068-1.008.267-1.134-.361-.143-.711.5-.75.978-.832,2.279-.388,4.561-.756,6.839-1.146.29-.05.732.041.782-.36.024-.192-.269-.431-.43-.639-.082-.106-.206-.182-.285-.29-.462-.63-1.609-.971-1.321-1.875.256-.8,1.334-.573,2.053-.733,2.079-.462,4.172-.859,6.264-1.259.746-.143.94-.368.38-1.027-.762-.9-1.46-1.85-2.152-2.8-.487-.671-.305-1.139.548-1.168,2.582-.088,5.165-.142,7.748-.2.378-.008.782.071.785.549,0,.529-.4.644-.848.654q-2.379.051-4.758.117C1092.386,129.127,1091.855,129.165,1091.2,129.2Z" transform="translate(-2.124 -97.812)" fill="#fb0" stroke="#fb0" stroke-width="1"/>
      <path id="Path_105" data-name="Path 105" d="M1082.513,102.831c.042.43.122.967.145,1.506.1,2.478.1,2.475-2.3,1.8-1.92-.537-3.846-1.048-5.76-1.606-.514-.15-1.416-.143-1.159-.972s1.013-.3,1.522-.166q2.762.715,5.5,1.533c.81.244,1.088.025.981-.8-.058-.448-.047-.9-.062-1.358-.062-1.779.041-1.872,1.7-1.432,2.321.617,4.644,1.226,6.951,1.89.49.141,1.452.039,1.224.893-.249.935-1.061.354-1.607.218-1.978-.492-3.942-1.038-5.912-1.56A1.226,1.226,0,0,0,1082.513,102.831Z" transform="translate(0 -78.399)" fill="#fb0" stroke="#fb0" stroke-width="1"/>
      <path id="Path_106" data-name="Path 106" d="M1175.707,123.183c.642.647.847,1.3.263,1.887a1.264,1.264,0,0,1-1.829.224,1.326,1.326,0,0,1-.151-1.948A1.2,1.2,0,0,1,1175.707,123.183Z" transform="translate(-72.955 -94.247)" fill="#fb0"/>
      <path id="Path_107" data-name="Path 107" d="M1193.72,123.108a1.457,1.457,0,0,1,1.935.071,1.278,1.278,0,0,1,.028,1.825c-.536.62-1.218.46-1.774-.062A1.283,1.283,0,0,1,1193.72,123.108Z" transform="translate(-87.36 -94.16)" fill="#fb0"/>
      <path id="Path_108" data-name="Path 108" d="M1212.8,117.383c.548-.419,1.163-.788,1.791-.187a1.318,1.318,0,1,1-1.823,1.9C1212.149,118.593,1212.387,117.973,1212.8,117.383Z" transform="translate(-101.166 -89.871)" fill="#fb0"/>
    </g>
  </g>
</svg>
