<svg xmlns="http://www.w3.org/2000/svg" width="91" height="91" viewBox="0 0 91 91">
  <g id="transplant" transform="translate(-1084 -559)">
    <g id="Ellipse_26" data-name="Ellipse 26" transform="translate(1084 559)" fill="#fff" stroke="#4c4f9b" stroke-width="1" opacity="0.15">
      <circle cx="45.5" cy="45.5" r="45.5" stroke="none"/>
      <circle cx="45.5" cy="45.5" r="45" fill="none"/>
    </g>
    <g id="Group_18" data-name="Group 18" transform="translate(796.115 121.318)" opacity="0.7">
      <path id="Path_110" data-name="Path 110" d="M356.215,484.283c-.9,1.082-3.268,2.172-4.57,2.834a32.7,32.7,0,0,0-4.573,2.828l.334-2.325c.048-.025.1-.049.145-.076.356-.2,3.742-1.978,4.1-2.176,4.565-2.548,5.8-4.735,7.624-9.642a13.192,13.192,0,0,0-.271-9.854,10.006,10.006,0,0,0-11.97-5.865,14.078,14.078,0,0,0-8.318,5.937c-.6.915-1.017.867-1.552-.014a11.962,11.962,0,0,0-3-3.3c-3.188-2.43-6.742-3.6-10.737-2.635-5.774,1.392-8.394,8.305-7.5,13.264.635,3.525,3.541,7.588,5.761,10.292h-1.36c-.948-1.312-2.954-3.66-3.686-4.949a14.587,14.587,0,0,1,.956-15.942c3.125-3.969,7.748-4.73,12.205-3.461a14.24,14.24,0,0,1,7.516,5.127c.534.694.752.585,1.273-.051a14.992,14.992,0,0,1,10.209-5.609,10.94,10.94,0,0,1,11.053,6.552s4.333,7.642-2.072,16.978l-.024.034S357.018,483.315,356.215,484.283Z" transform="translate(2.502)" fill="#fb0" stroke="#fb0" stroke-miterlimit="10" stroke-width="2"/>
      <path id="Path_109" data-name="Path 109" d="M350.027,485c-.51-3.39-1.664-4.471-4.908-4.491-6.629-.042-13.258-.029-19.887,0a2.761,2.761,0,0,1-.73-.094h-1.989l.071.1c-3.835,0-7.309-.016-10.782.007a6.5,6.5,0,0,0-4.291,1.49c-3.179,2.708-6.327,5.452-9.483,8.187-.3.263-.98.439-.521,1,.4.483.853.056,1.176-.219,2.829-2.406,5.712-4.758,8.429-7.286a7.278,7.278,0,0,1,5.147-2.11q15.575-.088,31.151-.165a9.738,9.738,0,0,1,3.908.595,2.616,2.616,0,0,1,.611,4.29,4.336,4.336,0,0,1-3.027,1.024q-6.519-.027-13.038,0c-.462,0-1.2-.182-1.213.511-.016.746.736.51,1.184.511,4.529.018,9.058,0,13.587.026a7.462,7.462,0,0,0,3.008-.432,7.716,7.716,0,0,0,1.587-1.571.6.6,0,0,1,.09-.281v-.9a.392.392,0,0,1,.022-.1.537.537,0,0,1,.008-.073.452.452,0,0,1-.008-.069Z" transform="translate(0 3.141)" fill="#11157a" stroke="#11157a" stroke-miterlimit="10" stroke-width="2"/>
      <path id="Path_111" data-name="Path 111" d="M348.248,487.288c.186-1.779,15.907-11.024,17.766-10.2,2.842,1.266,3.262,4.409.734,6.514-2.993,2.492-6.115,4.829-9.181,7.232-5.169,4.053-10.354,8.086-15.5,12.169a7.727,7.727,0,0,1-7.165,1.54c-2.893-.747-5.481-2.187-8.185-3.366-3.907-1.7-7.81-3.419-11.729-5.094a3.259,3.259,0,0,0-3.248.288c-2.254,1.451-4.3,3.162-6.424,4.789-.325.249-.691.654-1.062.279-.5-.5.09-.853.4-1.095a63.407,63.407,0,0,1,6.888-5.074,4.617,4.617,0,0,1,4.348.032c5.7,2.486,11.354,5.079,17.08,7.5,2.818,1.193,5.714,1.646,8.372-.573,1.009-.842,2.06-1.635,3.1-2.445q10.493-8.2,20.981-16.409a7.81,7.81,0,0,0,1.332-1.361,2.335,2.335,0,0,0,.208-2.805,2.443,2.443,0,0,0-2.833-1.18C363.431,478.227,349.049,486.979,348.248,487.288Z" transform="translate(0.967 2.647)" fill="#11157a" stroke="#11157a" stroke-miterlimit="10" stroke-width="2"/>
    </g>
  </g>
</svg>
