<svg xmlns="http://www.w3.org/2000/svg" width="91" height="91" viewBox="0 0 91 91">
  <g id="urology" transform="translate(-699 -352)">
    <g id="Ellipse_13" data-name="Ellipse 13" transform="translate(699 352)" fill="#fff" stroke="#4c4f9b" stroke-width="1" opacity="0.15">
      <circle cx="45.5" cy="45.5" r="45.5" stroke="none"/>
      <circle cx="45.5" cy="45.5" r="45" fill="none"/>
    </g>
    <g id="Urology-2" data-name="Urology" transform="translate(332.546 310.01)" opacity="0.7">
      <path id="Path_49" data-name="Path 49" d="M380.9,74.941c.251-5.877,2.017-11.054,6.732-14.843a10.715,10.715,0,0,1,12.888-.7A9.2,9.2,0,0,1,403.885,70c-.224.556-.35,1.366-1.254.948-.605-.28-1.5-.311-1.514-1.3,0-.173.115-.345.132-.522.451-4.7-.325-6.57-3.306-7.979-3.263-1.543-6.758-.8-9.652,2.062-6.873,6.788-5.554,21.882,2.4,27.446a6.417,6.417,0,0,0,7.613.186c2.484-1.635,3.506-3.859,2.342-6.753-.383-.951-.087-1.337.8-1.528a1.665,1.665,0,0,1,2.1,1.2c1,2.439.08,6.07-2.137,8.219-4.066,3.943-9.839,3.8-14.051-.515C382.886,86.9,381.253,81.148,380.9,74.941Z" transform="translate(0 -0.026)" fill="#11157a"/>
      <path id="Path_50" data-name="Path 50" d="M459.015,75.232c-.255,6.112-2.016,11.9-6.659,16.471-4.109,4.043-9.66,4.119-13.655.367a7.862,7.862,0,0,1-2.433-7.653c.243-1.255.8-2.263,2.394-1.851,1.878.485.526,1.5.338,2.267a5.054,5.054,0,0,0,1.813,5.345,6.348,6.348,0,0,0,6.813,1.341,8.751,8.751,0,0,0,2.306-1.393c6.85-5.651,8.377-18.493,2.992-25.5-2.269-2.953-5.117-4.935-9.1-4.088-4.028.857-5.976,3.73-5.211,7.782.263,1.394.179,2.417-1.323,2.621-1.534.208-1.284-1.3-1.436-2.09-.682-3.532.067-6.741,3.024-9.009a9.963,9.963,0,0,1,10.986-1.256c5.659,2.748,8.075,7.764,8.989,13.688C458.992,73.161,458.957,74.077,459.015,75.232Z" transform="translate(-15.061)" fill="#11157a"/>
      <path id="Path_51" data-name="Path 51" d="M413.789,97.1c0-2.445.046-4.89-.009-7.333-.118-5.186-2.376-8.993-7.251-11.1-1.576-.682-3.121-1.441-4.644-2.237a8.13,8.13,0,0,1-3.351-3.091c-.4-.684-1.07-1.554-.172-2.15.822-.545,1.217.4,1.589,1,1.647,2.662,4.5,3.532,7.111,4.725,1.183.54,2.1-.113,2.813-1.028.384-.491.7-1.273,1.447-.81a1.139,1.139,0,0,1,0,1.881c-1.389,1.226-.81,1.9.342,2.882A11.044,11.044,0,0,1,415.4,88.28c.143,4.976.08,9.957.155,14.935.016,1.066-.466,2.484,1.492,2.549,2.15.072,1.652-1.456,1.662-2.62.035-4.255,0-8.511.025-12.766.027-4.311.9-8.32,4.546-11.13,1.482-1.141-.044-1.606-.382-2.329-.273-.585-.684-1.182-.084-1.72.718-.643,1.118.008,1.481.534,1.1,1.594,2.432,1.543,4.019.741,2.42-1.223,5.014-2.169,6.343-4.826a.892.892,0,0,1,1.347-.46c.6.375.386.916.146,1.435a8.171,8.171,0,0,1-3.745,3.8c-1.839.97-3.748,1.8-5.607,2.74a10.254,10.254,0,0,0-6.1,9.257c-.182,5.426-.315,10.867-.118,16.288.111,3.054-1.594,2.755-3.582,2.816-2.083.064-3.5-.11-3.242-2.828.237-2.513.05-5.065.05-7.6Z" transform="translate(-4.682 -3.728)" fill="#fb0"/>
      <path id="Path_52" data-name="Path 52" d="M441.751,80.53c2.349.873,4.272,1.423,5.877,2.646.523.4,1.078.865.622,1.563-.494.754-1.113.3-1.631-.066a14.962,14.962,0,0,0-7.081-2.529c-.937-.114-1.989-.364-2.975.71a12.146,12.146,0,0,1,5.1,3.435c.421.549,1.063,1.2.213,1.857-.743.575-1.1-.184-1.518-.612a12.349,12.349,0,0,0-.944-.973c-1.663-1.365-3.49-2.489-5.7-1.631-2.07.805-2.521,2.871-2.584,4.742-.178,5.245-.1,10.5-.144,15.749a1.551,1.551,0,0,0,1.238,1.778c2.755.812,5.15,2.181,5.167,5.467.017,3.5-1.865,5.96-4.946,7.5a18.084,18.084,0,0,1-2.768,1.093c-1.363.42-2.982.482-2.667,2.629a.837.837,0,0,1-.785.937c-.686.044-.916-.465-.97-1.047-.178-1.9.209-3.4,2.439-3.84a11.586,11.586,0,0,0,5.641-2.506,5.615,5.615,0,0,0,2.163-5.285c-.357-2.138-2.142-2.913-3.926-3.234-1.926-.347-2.469-1.229-2.422-3.106.124-4.886.054-9.777.055-14.666A10.607,10.607,0,0,1,436,80.682c4.107-1.813,8.671-2.837,11.467-6.851a.76.76,0,0,1,1.18-.172c.508.449.354.979.013,1.453a13.706,13.706,0,0,1-4.154,3.848C443.752,79.409,442.979,79.832,441.751,80.53Z" transform="translate(-12.196 -4.396)" fill="#11157a"/>
      <path id="Path_53" data-name="Path 53" d="M403.818,82.377a14.634,14.634,0,0,0-10.2,2.009c-.641.36-1.357,1.378-2.033.287-.616-1,.5-1.381,1.108-1.813a22.308,22.308,0,0,1,5.233-2.272c-2.379-1.619-4.778-2.74-6.3-4.9-.44-.624-1.341-1.328-.371-2.056.8-.6,1.286.3,1.7.843,2.281,2.964,5.625,4.129,8.938,5.378,4.049,1.527,7.721,3.661,8.39,8.377.892,6.289.222,12.65.345,18.978.024,1.264-1,1.278-1.865,1.526-2.031.576-4.23,1.17-4.467,3.713-.242,2.594,1.21,4.446,3.335,5.8a15.192,15.192,0,0,0,4.816,1.771,2.316,2.316,0,0,1,2.084,2.437c-.02.832.48,2.114-.709,2.313-1.218.2-.909-1.071-.976-1.794-.117-1.264-1.107-1.239-1.955-1.476a12.5,12.5,0,0,1-6.529-3.66c-3.369-3.953-2.26-8.6,2.587-10.384,1.4-.517,2.012-1.107,1.973-2.667-.112-4.524-.049-9.053-.082-13.579a14.089,14.089,0,0,0-.234-2.431c-.744-4.051-3.409-5.248-6.92-3.121-.462.28-.848.691-1.323.941-.851.446-1.329,2.5-2.366,1.378-1.141-1.236.607-2.208,1.494-2.934A40.289,40.289,0,0,1,403.818,82.377Z" transform="translate(-2.729 -4.391)" fill="#11157a"/>
      <path id="Path_54" data-name="Path 54" d="M421.323,128.541c2.339,0,4.68-.012,7.019.015.488.006,1.205-.184,1.307.541a1.989,1.989,0,0,1-.488,1.191c-1.4,1.979-7.059,3.684-9.448,2.979-2.064-.61-4.248-.9-5.9-2.459-.515-.484-1.173-1.054-.907-1.815.257-.736,1.089-.43,1.668-.439C416.823,128.516,419.072,128.539,421.323,128.541Z" transform="translate(-8.791 -19.549)" fill="#fb0"/>
    </g>
  </g>
</svg>
